<?xml version="1.0" encoding="UTF-8" standalone="no"?>
<!DOCTYPE svg PUBLIC "-//W3C//DTD SVG 1.1//EN" "http://www.w3.org/Graphics/SVG/1.1/DTD/svg11.dtd">
<svg width="100%" height="100%" viewBox="0 0 256 256" version="1.1" xmlns="http://www.w3.org/2000/svg" xmlns:xlink="http://www.w3.org/1999/xlink" xml:space="preserve" xmlns:serif="http://www.serif.com/" style="fill-rule:evenodd;clip-rule:evenodd;stroke-miterlimit:1.5;">
    <g transform="matrix(1,0,0,1,0,-280)">
        <g id="city-2" transform="matrix(1.03226,0,0,1.03226,0,280)">
            <rect x="0" y="0" width="248" height="248" style="fill:none;"/>
            <clipPath id="_clip1">
                <rect x="0" y="0" width="248" height="248"/>
            </clipPath>
            <g clip-path="url(#_clip1)">
                <g transform="matrix(0.990043,0,0,1.08604,-12.5316,-333.176)">
                    <circle cx="138.687" cy="434.18" r="125.111" style="fill:rgb(0,199,255);fill-opacity:0.53;"/>
                </g>
                <g transform="matrix(1.01255,0,0,1.01255,11.175,15.9818)">
                    <g transform="matrix(2.325,0,0,5.69266,-26.35,-142.696)">
                        <path d="M33,41.063C33,39.373 29.639,38 25.5,38C21.361,38 18,39.373 18,41.063L18,75.454C18,77.145 21.361,78.517 25.5,78.517C29.639,78.517 33,77.145 33,75.454L33,41.063Z" style="fill:white;stroke:rgb(100,100,100);stroke-width:0.66px;"/>
                    </g>
                    <g transform="matrix(0.553782,0,0,5.55116,7.13887,-125.13)">
                        <path d="M33,38.748C33,38.335 29.639,38 25.5,38C21.361,38 18,38.335 18,38.748L18,77.769C18,78.182 21.361,78.517 25.5,78.517C29.639,78.517 33,78.182 33,77.769L33,38.748Z" style="fill:rgb(243,243,243);"/>
                    </g>
                    <g transform="matrix(1,0,0,1,0.359377,12.5976)">
                        <g transform="matrix(1.9375,0,0,1.9375,-91.0625,32.9375)">
                            <circle cx="64" cy="30" r="2" style="fill:rgb(57,164,239);stroke:rgb(100,100,100);stroke-width:0.49px;stroke-linejoin:round;stroke-miterlimit:1.41421;"/>
                        </g>
                        <g transform="matrix(1.9375,0,0,1.9375,-91.0625,44.5625)">
                            <circle cx="64" cy="30" r="2" style="fill:rgb(57,164,239);stroke:rgb(100,100,100);stroke-width:0.49px;stroke-linejoin:round;stroke-miterlimit:1.41421;"/>
                        </g>
                    </g>
                </g>
                <g transform="matrix(1.01255,0,0,1.01255,11.175,15.9818)">
                    <g transform="matrix(2.325,0,0,5.69266,-26.35,-142.696)">
                        <path d="M33,41.063C33,39.373 29.639,38 25.5,38C21.361,38 18,39.373 18,41.063L18,75.454C18,77.145 21.361,78.517 25.5,78.517C29.639,78.517 33,77.145 33,75.454L33,41.063Z" style="fill:white;stroke:rgb(217,217,217);stroke-width:0.66px;"/>
                    </g>
                    <g transform="matrix(-0.553782,0,0,5.55116,58.8159,-125.13)">
                        <path d="M33,38.748C33,38.335 29.639,38 25.5,38C21.361,38 18,38.335 18,38.748L18,77.769C18,78.182 21.361,78.517 25.5,78.517C29.639,78.517 33,78.182 33,77.769L33,38.748Z" style="fill:rgb(243,243,243);"/>
                    </g>
                    <g transform="matrix(1,0,0,1,0.359377,12.5976)">
                        <g transform="matrix(1.9375,0,0,1.9375,-91.0625,32.9375)">
                            <circle cx="64" cy="30" r="2" style="fill:rgb(57,164,239);stroke:rgb(223,223,223);stroke-width:0.49px;stroke-linejoin:round;stroke-miterlimit:1.41421;"/>
                        </g>
                        <g transform="matrix(1.9375,0,0,1.9375,-91.0625,44.5625)">
                            <circle cx="64" cy="30" r="2" style="fill:rgb(57,164,239);stroke:rgb(223,223,223);stroke-width:0.49px;stroke-linejoin:round;stroke-miterlimit:1.41421;"/>
                        </g>
                    </g>
                </g>
                <g transform="matrix(-0.720939,0.416234,0.315286,0.546092,118.139,7.95868)">
                    <ellipse cx="139.102" cy="62.386" rx="7.347" ry="6.144" style="fill:rgb(246,216,88);fill-opacity:0.15;"/>
                </g>
                <g transform="matrix(-0.362145,0.0596045,0.0451488,0.274315,91.6843,71.7247)">
                    <ellipse cx="139.102" cy="62.386" rx="7.347" ry="6.144" style="fill:rgb(246,216,88);fill-opacity:0.15;"/>
                </g>
                <g transform="matrix(1.01255,0,0,1.01255,6.27047,15.9818)">
                    <g transform="matrix(2.325,0,0,7.27786,18.2125,-251.807)">
                        <path d="M33,40.396L25.5,38L18,40.396L18,76.121L25.5,78.517L33,76.121L33,40.396Z" style="fill:rgb(150,188,184);stroke:rgb(132,166,162);stroke-width:0.53px;"/>
                    </g>
                    <g>
                        <g transform="matrix(1.9375,0,0,1.9375,-6.78125,5.8125)">
                            <path d="M47,22.5C47,21.672 46.328,21 45.5,21L41.5,21C40.672,21 40,21.672 40,22.5C40,23.328 40.672,24 41.5,24L45.5,24C46.328,24 47,23.328 47,22.5Z" style="fill:rgb(57,164,239);stroke:rgb(126,166,162);stroke-width:0.49px;stroke-linejoin:round;stroke-miterlimit:1.41421;"/>
                        </g>
                        <g transform="matrix(1.9375,0,0,1.9375,-6.78125,25.1875)">
                            <path d="M47,22.5C47,21.672 46.328,21 45.5,21L41.5,21C40.672,21 40,21.672 40,22.5C40,23.328 40.672,24 41.5,24L45.5,24C46.328,24 47,23.328 47,22.5Z" style="fill:rgb(57,164,239);stroke:rgb(126,166,162);stroke-width:0.49px;stroke-linejoin:round;stroke-miterlimit:1.41421;"/>
                        </g>
                        <g transform="matrix(1.9375,0,0,1.9375,-6.78125,34.875)">
                            <path d="M47,22.5C47,21.672 46.328,21 45.5,21L41.5,21C40.672,21 40,21.672 40,22.5C40,23.328 40.672,24 41.5,24L45.5,24C46.328,24 47,23.328 47,22.5Z" style="fill:rgb(57,164,239);stroke:rgb(126,166,162);stroke-width:0.49px;stroke-linejoin:round;stroke-miterlimit:1.41421;"/>
                        </g>
                        <g transform="matrix(1.9375,0,0,1.9375,-6.78125,54.25)">
                            <path d="M47,22.5C47,21.672 46.328,21 45.5,21L41.5,21C40.672,21 40,21.672 40,22.5C40,23.328 40.672,24 41.5,24L45.5,24C46.328,24 47,23.328 47,22.5Z" style="fill:rgb(57,164,239);stroke:rgb(126,166,162);stroke-width:0.49px;stroke-linejoin:round;stroke-miterlimit:1.41421;"/>
                        </g>
                        <g transform="matrix(1.9375,0,0,1.9375,-6.78125,63.9375)">
                            <path d="M47,22.5C47,21.672 46.328,21 45.5,21L41.5,21C40.672,21 40,21.672 40,22.5C40,23.328 40.672,24 41.5,24L45.5,24C46.328,24 47,23.328 47,22.5Z" style="fill:rgb(57,164,239);stroke:rgb(126,166,162);stroke-width:0.49px;stroke-linejoin:round;stroke-miterlimit:1.41421;"/>
                        </g>
                    </g>
                    <g transform="matrix(1.82313,0,0,1.61458,-70.1738,-9.15469)">
                        <path d="M81,21L81,9" style="fill:none;stroke:rgb(100,100,100);stroke-width:1.67px;"/>
                    </g>
                </g>
                <g transform="matrix(1.01255,0,0,1.01255,-0.595872,15.9818)">
                    <g transform="matrix(2.325,0,0,6.61795,64.7125,-208.857)">
                        <path d="M33,40.635C33,39.181 29.639,38 25.5,38C21.361,38 18,39.181 18,40.635L18,75.882C18,77.337 21.361,78.517 25.5,78.517C29.639,78.517 33,77.337 33,75.882L33,40.635Z" style="fill:white;stroke:rgb(217,217,217);stroke-width:0.58px;"/>
                    </g>
                    <g transform="matrix(-0.553782,0,0,6.32871,149.784,-186.182)">
                        <path d="M33,38.656C33,38.294 29.639,38 25.5,38C21.361,38 18,38.294 18,38.656L18,77.861C18,78.223 21.361,78.517 25.5,78.517C29.639,78.517 33,78.223 33,77.861L33,38.656Z" style="fill:rgb(243,243,243);"/>
                    </g>
                    <g transform="matrix(-0.96875,0,0,1.52154,168.183,-36.3312)">
                        <path d="M76.399,56.023C76.399,54.956 75.733,53.933 74.548,53.178C73.363,52.424 71.756,52 70.08,52C70.028,52 70,52 70,52L70,181.885L76.399,181.885L76.399,56.023Z" style="fill-opacity:0.12;"/>
                    </g>
                    <g>
                        <g transform="matrix(1.9375,0,0,1.9375,-1.11022e-16,-8.88178e-16)">
                            <circle cx="64" cy="30" r="2" style="fill:rgb(57,164,239);stroke:rgb(224,224,224);stroke-width:0.49px;stroke-linejoin:round;stroke-miterlimit:1.41421;"/>
                        </g>
                        <g transform="matrix(1.9375,0,0,1.9375,-1.11022e-16,11.625)">
                            <circle cx="64" cy="30" r="2" style="fill:rgb(57,164,239);stroke:rgb(224,224,224);stroke-width:0.49px;stroke-linejoin:round;stroke-miterlimit:1.41421;"/>
                        </g>
                        <g transform="matrix(1.9375,0,0,1.9375,-1.11022e-16,23.25)">
                            <circle cx="64" cy="30" r="2" style="fill:rgb(57,164,239);stroke:rgb(224,224,224);stroke-width:0.49px;stroke-linejoin:round;stroke-miterlimit:1.41421;"/>
                        </g>
                        <g transform="matrix(1.9375,0,0,1.9375,-1.11022e-16,46.5)">
                            <circle cx="64" cy="30" r="2" style="fill:rgb(57,164,239);stroke:rgb(224,224,224);stroke-width:0.49px;stroke-linejoin:round;stroke-miterlimit:1.41421;"/>
                        </g>
                    </g>
                </g>
                <g transform="matrix(1.53442,0,0,1.53442,-203.02,-43.6147)">
                    <circle cx="212.887" cy="92.486" r="0.887" style="fill:rgb(88,181,246);"/>
                </g>
                <g transform="matrix(0.767211,0,0,0.767211,-38.329,25.2985)">
                    <circle cx="212.887" cy="92.486" r="0.887" style="fill:rgb(88,181,246);"/>
                </g>
                <g transform="matrix(1.53442,0,0,1.53442,-203.02,-20.0816)">
                    <circle cx="212.887" cy="92.486" r="0.887" style="fill:rgb(88,181,246);"/>
                </g>
                <g transform="matrix(0.767211,0,0,0.767211,-38.329,48.8316)">
                    <circle cx="212.887" cy="92.486" r="0.887" style="fill:rgb(88,181,246);"/>
                </g>
                <g transform="matrix(1.53442,0,0,1.53442,-283.264,-20.9779)">
                    <circle cx="212.887" cy="92.486" r="0.887" style="fill:rgb(88,181,246);"/>
                </g>
                <g transform="matrix(0.767211,0,0,0.767211,-118.573,47.9353)">
                    <circle cx="212.887" cy="92.486" r="0.887" style="fill:rgb(88,181,246);"/>
                </g>
                <g transform="matrix(1.53442,0,0,1.53442,-283.264,-9.22809)">
                    <circle cx="212.887" cy="92.486" r="0.887" style="fill:rgb(88,181,246);"/>
                </g>
                <g transform="matrix(0.767211,0,0,0.767211,-118.573,59.6852)">
                    <circle cx="212.887" cy="92.486" r="0.887" style="fill:rgb(88,181,246);"/>
                </g>
                <g transform="matrix(1.53442,0,0,1.53442,-203.02,-55.3848)">
                    <circle cx="212.887" cy="92.486" r="0.887" style="fill:rgb(88,181,246);"/>
                </g>
                <g transform="matrix(0.767211,0,0,0.767211,-38.329,13.5285)">
                    <circle cx="212.887" cy="92.486" r="0.887" style="fill:rgb(88,181,246);"/>
                </g>
                <g transform="matrix(1.53442,0,0,1.53442,-203.02,-67.1579)">
                    <circle cx="212.887" cy="92.486" r="0.887" style="fill:rgb(88,181,246);"/>
                </g>
                <g transform="matrix(0.767211,0,0,0.767211,-38.329,1.7554)">
                    <circle cx="212.887" cy="92.486" r="0.887" style="fill:rgb(88,181,246);"/>
                </g>
                <g transform="matrix(1.01255,0,0,1.01255,-5.5004,15.9818)">
                    <g transform="matrix(2.325,0,0,7.44761,109.275,-271.384)">
                        <path d="M33,40.341L25.5,38L18,40.341L18,76.176L25.5,78.517L33,76.176L33,40.341Z" style="fill:rgb(108,102,91);stroke:rgb(95,90,80);stroke-width:0.52px;"/>
                    </g>
                    <g>
                        <g transform="matrix(1.9375,0,0,1.9375,84.2812,-9.6875)">
                            <path d="M47,22.5C47,21.672 46.328,21 45.5,21L41.5,21C40.672,21 40,21.672 40,22.5C40,23.328 40.672,24 41.5,24L45.5,24C46.328,24 47,23.328 47,22.5Z" style="fill:rgb(57,164,239);stroke:rgb(86,86,86);stroke-width:0.49px;stroke-linejoin:round;stroke-miterlimit:1.41421;"/>
                        </g>
                        <g transform="matrix(1.9375,0,0,1.9375,84.2812,-4.52971e-14)">
                            <path d="M47,22.5C47,21.672 46.328,21 45.5,21L41.5,21C40.672,21 40,21.672 40,22.5C40,23.328 40.672,24 41.5,24L45.5,24C46.328,24 47,23.328 47,22.5Z" style="fill:rgb(57,164,239);stroke:rgb(86,86,86);stroke-width:0.49px;stroke-linejoin:round;stroke-miterlimit:1.41421;"/>
                        </g>
                        <g transform="matrix(1.9375,0,0,1.9375,84.2812,29.0625)">
                            <path d="M47,22.5C47,21.672 46.328,21 45.5,21L41.5,21C40.672,21 40,21.672 40,22.5C40,23.328 40.672,24 41.5,24L45.5,24C46.328,24 47,23.328 47,22.5Z" style="fill:rgb(57,164,239);stroke:rgb(86,86,86);stroke-width:0.49px;stroke-linejoin:round;stroke-miterlimit:1.41421;"/>
                        </g>
                        <g transform="matrix(1.9375,0,0,1.9375,84.2812,38.75)">
                            <path d="M47,22.5C47,21.672 46.328,21 45.5,21L41.5,21C40.672,21 40,21.672 40,22.5C40,23.328 40.672,24 41.5,24L45.5,24C46.328,24 47,23.328 47,22.5Z" style="fill:rgb(57,164,239);stroke:rgb(86,86,86);stroke-width:0.49px;stroke-linejoin:round;stroke-miterlimit:1.41421;"/>
                        </g>
                        <g transform="matrix(1.9375,0,0,1.9375,84.2812,58.125)">
                            <path d="M47,22.5C47,21.672 46.328,21 45.5,21L41.5,21C40.672,21 40,21.672 40,22.5C40,23.328 40.672,24 41.5,24L45.5,24C46.328,24 47,23.328 47,22.5Z" style="fill:rgb(57,164,239);stroke:rgb(86,86,86);stroke-width:0.49px;stroke-linejoin:round;stroke-miterlimit:1.41421;"/>
                        </g>
                    </g>
                    <g transform="matrix(1.82313,0,0,1.61458,20.8887,-22.2812)">
                        <path d="M81,21L81,9" style="fill:none;stroke:rgb(95,90,80);stroke-width:1.67px;"/>
                    </g>
                    <g transform="matrix(-0.96875,0,0,1.61091,253.812,-54.1804)">
                        <path d="M76.399,55.8C76.399,54.792 75.733,53.826 74.548,53.113C73.363,52.4 71.756,52 70.08,52C70.028,52 70,52 70,52L70,181.885L76.399,181.885L76.399,55.8Z" style="fill-opacity:0.12;"/>
                    </g>
                </g>
                <g transform="matrix(1.19851,0,0,1.19851,59.5608,-43.4058)">
                    <path d="M89.429,119.156C89.429,118.441 88.849,117.861 88.134,117.861L84.552,117.861C83.837,117.861 83.257,118.441 83.257,119.156C83.257,119.871 83.837,120.451 84.552,120.451L88.134,120.451C88.849,120.451 89.429,119.871 89.429,119.156Z" style="fill:rgb(88,181,246);"/>
                </g>
                <g transform="matrix(1.19851,0,0,1.19851,59.5608,-23.781)">
                    <path d="M89.429,119.156C89.429,118.441 88.849,117.861 88.134,117.861L84.552,117.861C83.837,117.861 83.257,118.441 83.257,119.156C83.257,119.871 83.837,120.451 84.552,120.451L88.134,120.451C88.849,120.451 89.429,119.871 89.429,119.156Z" style="fill:rgb(88,181,246);"/>
                </g>
                <g transform="matrix(-0.720939,0.416234,0.315286,0.546092,198.876,-24.2254)">
                    <ellipse cx="139.102" cy="62.386" rx="7.347" ry="6.144" style="fill:rgb(246,216,88);fill-opacity:0.15;"/>
                </g>
                <g transform="matrix(-0.362145,0.0596045,0.0451488,0.274315,172.422,39.5406)">
                    <ellipse cx="139.102" cy="62.386" rx="7.347" ry="6.144" style="fill:rgb(246,216,88);fill-opacity:0.15;"/>
                </g>
                <g transform="matrix(1.19851,0,0,1.19851,59.5608,-53.2149)">
                    <path d="M89.429,119.156C89.429,118.441 88.849,117.861 88.134,117.861L84.552,117.861C83.837,117.861 83.257,118.441 83.257,119.156C83.257,119.871 83.837,120.451 84.552,120.451L88.134,120.451C88.849,120.451 89.429,119.871 89.429,119.156Z" style="fill:rgb(88,181,246);"/>
                </g>
                <g transform="matrix(1.19851,0,0,1.19851,59.5608,-82.6516)">
                    <path d="M89.429,119.156C89.429,118.441 88.849,117.861 88.134,117.861L84.552,117.861C83.837,117.861 83.257,118.441 83.257,119.156C83.257,119.871 83.837,120.451 84.552,120.451L88.134,120.451C88.849,120.451 89.429,119.871 89.429,119.156Z" style="fill:rgb(88,181,246);"/>
                </g>
                <g transform="matrix(1.19851,0,0,1.19851,59.5608,-92.4607)">
                    <path d="M89.429,119.156C89.429,118.441 88.849,117.861 88.134,117.861L84.552,117.861C83.837,117.861 83.257,118.441 83.257,119.156C83.257,119.871 83.837,120.451 84.552,120.451L88.134,120.451C88.849,120.451 89.429,119.871 89.429,119.156Z" style="fill:rgb(88,181,246);"/>
                </g>
                <g transform="matrix(1.01255,0,0,1.01255,-9.42403,15.9818)">
                    <g transform="matrix(2.325,0,0,5.83611,153.838,-153.96)">
                        <path d="M33,40.988C33,39.339 29.639,38 25.5,38C21.361,38 18,39.339 18,40.988L18,75.529C18,77.179 21.361,78.517 25.5,78.517C29.639,78.517 33,77.179 33,75.529L33,40.988Z" style="fill:white;stroke:rgb(217,217,217);stroke-width:0.65px;"/>
                    </g>
                    <g transform="matrix(-0.553782,0,0,5.57608,238.976,-131.34)">
                        <path d="M33,38.745C33,38.334 29.639,38 25.5,38C21.361,38 18,38.334 18,38.745L18,77.772C18,78.184 21.361,78.517 25.5,78.517C29.639,78.517 33,78.184 33,77.772L33,38.745Z" style="fill:rgb(243,243,243);"/>
                    </g>
                    <g>
                        <g transform="matrix(1.9375,0,0,1.9375,89.125,25.1875)">
                            <circle cx="64" cy="30" r="2" style="fill:rgb(57,164,239);stroke:rgb(225,225,225);stroke-width:0.49px;stroke-linejoin:round;stroke-miterlimit:1.41421;"/>
                        </g>
                        <g transform="matrix(1.9375,0,0,1.9375,89.125,36.8125)">
                            <circle cx="64" cy="30" r="2" style="fill:rgb(57,164,239);stroke:rgb(225,225,225);stroke-width:0.49px;stroke-linejoin:round;stroke-miterlimit:1.41421;"/>
                        </g>
                        <g transform="matrix(1.9375,0,0,1.9375,89.125,48.4375)">
                            <circle cx="64" cy="30" r="2" style="fill:rgb(57,164,239);stroke:rgb(225,225,225);stroke-width:0.49px;stroke-linejoin:round;stroke-miterlimit:1.41421;"/>
                        </g>
                    </g>
                </g>
                <g transform="matrix(-0.720939,0.416234,0.315286,0.546092,280.764,0.622556)">
                    <ellipse cx="139.102" cy="62.386" rx="7.347" ry="6.144" style="fill:rgb(246,216,88);fill-opacity:0.15;"/>
                </g>
                <g transform="matrix(-0.362145,0.0596045,0.0451488,0.274315,254.309,64.3886)">
                    <ellipse cx="139.102" cy="62.386" rx="7.347" ry="6.144" style="fill:rgb(246,216,88);fill-opacity:0.15;"/>
                </g>
                <g transform="matrix(0.801191,0,0,0.801191,12.3063,12.0521)">
                    <circle cx="90.411" cy="15.213" r="4.589" style="fill:rgb(248,232,53);"/>
                    <path d="M90.411,10.624C92.944,10.624 95,12.68 95,15.213C95,17.745 92.944,19.802 90.411,19.802C87.879,19.802 85.822,17.745 85.822,15.213C85.822,12.68 87.879,10.624 90.411,10.624ZM90.411,12.8C91.743,12.8 92.824,13.881 92.824,15.213C92.824,16.544 91.743,17.625 90.411,17.625C89.08,17.625 87.999,16.544 87.999,15.213C87.999,13.881 89.08,12.8 90.411,12.8Z" style="fill:rgb(100,100,100);"/>
                </g>
                <g transform="matrix(1.53442,0,0,1.53442,-121.646,-41.5721)">
                    <circle cx="212.887" cy="92.486" r="0.887" style="fill:rgb(88,181,246);"/>
                </g>
                <g transform="matrix(0.767211,0,0,0.767211,43.0458,27.3412)">
                    <circle cx="212.887" cy="92.486" r="0.887" style="fill:rgb(88,181,246);"/>
                </g>
                <g transform="matrix(1.53442,0,0,1.53442,-121.646,-29.7674)">
                    <circle cx="212.887" cy="92.486" r="0.887" style="fill:rgb(88,181,246);"/>
                </g>
                <g transform="matrix(0.767211,0,0,0.767211,43.0458,39.1459)">
                    <circle cx="212.887" cy="92.486" r="0.887" style="fill:rgb(88,181,246);"/>
                </g>
                <g transform="matrix(1.53442,0,0,1.53442,-121.646,-17.8678)">
                    <circle cx="212.887" cy="92.486" r="0.887" style="fill:rgb(88,181,246);"/>
                </g>
                <g transform="matrix(0.767211,0,0,0.767211,43.0458,51.0455)">
                    <circle cx="212.887" cy="92.486" r="0.887" style="fill:rgb(88,181,246);"/>
                </g>
                <g transform="matrix(1.19851,0,0,1.19851,-20.7117,-17.9476)">
                    <path d="M89.429,119.156C89.429,118.441 88.849,117.861 88.134,117.861L84.552,117.861C83.837,117.861 83.257,118.441 83.257,119.156C83.257,119.871 83.837,120.451 84.552,120.451L88.134,120.451C88.849,120.451 89.429,119.871 89.429,119.156Z" style="fill:rgb(88,181,246);"/>
                </g>
                <g transform="matrix(1.19851,0,0,1.19851,-20.7117,-27.7567)">
                    <path d="M89.429,119.156C89.429,118.441 88.849,117.861 88.134,117.861L84.552,117.861C83.837,117.861 83.257,118.441 83.257,119.156C83.257,119.871 83.837,120.451 84.552,120.451L88.134,120.451C88.849,120.451 89.429,119.871 89.429,119.156Z" style="fill:rgb(88,181,246);"/>
                </g>
                <g transform="matrix(1.19851,0,0,1.19851,-20.7117,-47.3743)">
                    <path d="M89.429,119.156C89.429,118.441 88.849,117.861 88.134,117.861L84.552,117.861C83.837,117.861 83.257,118.441 83.257,119.156C83.257,119.871 83.837,120.451 84.552,120.451L88.134,120.451C88.849,120.451 89.429,119.871 89.429,119.156Z" style="fill:rgb(88,181,246);"/>
                </g>
                <g transform="matrix(1.19851,0,0,1.19851,-20.7117,-57.1834)">
                    <path d="M89.429,119.156C89.429,118.441 88.849,117.861 88.134,117.861L84.552,117.861C83.837,117.861 83.257,118.441 83.257,119.156C83.257,119.871 83.837,120.451 84.552,120.451L88.134,120.451C88.849,120.451 89.429,119.871 89.429,119.156Z" style="fill:rgb(88,181,246);"/>
                </g>
                <g transform="matrix(1.19851,0,0,1.19851,-20.7117,-76.802)">
                    <path d="M89.429,119.156C89.429,118.441 88.849,117.861 88.134,117.861L84.552,117.861C83.837,117.861 83.257,118.441 83.257,119.156C83.257,119.871 83.837,120.451 84.552,120.451L88.134,120.451C88.849,120.451 89.429,119.871 89.429,119.156Z" style="fill:rgb(88,181,246);"/>
                </g>
            </g>
        </g>
    </g>
</svg>
