<?xml version="1.0" encoding="UTF-8" standalone="no"?>
<!-- Created with Inkscape (http://www.inkscape.org/) -->

<svg
   xmlns:dc="http://purl.org/dc/elements/1.1/"
   xmlns:cc="http://creativecommons.org/ns#"
   xmlns:rdf="http://www.w3.org/1999/02/22-rdf-syntax-ns#"
   xmlns:svg="http://www.w3.org/2000/svg"
   xmlns="http://www.w3.org/2000/svg"
   xmlns:sodipodi="http://sodipodi.sourceforge.net/DTD/sodipodi-0.dtd"
   xmlns:inkscape="http://www.inkscape.org/namespaces/inkscape"
   width="150mm"
   height="150mm"
   viewBox="0 0 150 150"
   version="1.1"
   id="svg8"
   inkscape:version="0.92.4 (5da689c313, 2019-01-14)"
   sodipodi:docname="jeep.svg">
  <defs
     id="defs2" />
  <sodipodi:namedview
     id="base"
     pagecolor="#ffffff"
     bordercolor="#666666"
     borderopacity="1.0"
     inkscape:pageopacity="0.0"
     inkscape:pageshadow="2"
     inkscape:zoom="0.7"
     inkscape:cx="266.95036"
     inkscape:cy="116.69465"
     inkscape:document-units="mm"
     inkscape:current-layer="layer1"
     showgrid="false"
     inkscape:window-width="1855"
     inkscape:window-height="1057"
     inkscape:window-x="57"
     inkscape:window-y="-8"
     inkscape:window-maximized="1" />
  <metadata
     id="metadata5">
    <rdf:RDF>
      <cc:Work
         rdf:about="">
        <dc:format>image/svg+xml</dc:format>
        <dc:type
           rdf:resource="http://purl.org/dc/dcmitype/StillImage" />
        <dc:title></dc:title>
      </cc:Work>
    </rdf:RDF>
  </metadata>
  <g
     inkscape:label="Layer 1"
     inkscape:groupmode="layer"
     id="layer1"
     transform="translate(0,-147)">
    <g
       id="g1007"
       transform="translate(-0.37797619,-0.75595238)">
      <g
         transform="translate(-26.192413,24.405372)"
         id="g995">
        <rect
           style="opacity:1;vector-effect:none;fill:#333333;fill-opacity:1;stroke:none;stroke-width:0.76499999;stroke-linecap:butt;stroke-linejoin:miter;stroke-miterlimit:4;stroke-dasharray:none;stroke-dashoffset:0;stroke-opacity:1"
           id="rect972-4"
           width="15.073953"
           height="10.294378"
           x="104.35514"
           y="182.83427" />
        <rect
           style="opacity:1;vector-effect:none;fill:#333333;fill-opacity:1;stroke:none;stroke-width:0.76499999;stroke-linecap:butt;stroke-linejoin:miter;stroke-miterlimit:4;stroke-dasharray:none;stroke-dashoffset:0;stroke-opacity:1"
           id="rect972"
           width="15.073953"
           height="10.294378"
           x="81.102692"
           y="182.83427" />
        <g
           id="g964"
           transform="translate(10.777527,83.901641)">
          <path
             style="fill:#e6e6e6;fill-opacity:1;stroke-width:0.73531479"
             d="m 38.824546,142.05078 c -3.218166,-3.35866 -4.52716,-7.41853 -3.592546,-11.14233 0.432486,-1.72317 0.322572,-1.79943 -2.011356,-1.39566 -1.357863,0.23491 -3.387238,0.77373 -4.509724,1.19738 -1.641388,0.6195 -2.311289,0.52556 -3.422307,-0.4799 -1.152189,-1.04271 -1.627248,-1.09665 -2.862785,-0.32505 -2.004317,1.25172 -3.966295,-0.33574 -3.660067,-2.9614 0.272548,-2.33688 2.374622,-2.88318 4.319946,-1.12269 1.393821,1.26139 1.415919,1.01487 1.415919,-15.79537 V 92.949001 l 45.405688,0.453544 c 24.973128,0.249449 46.445706,0.611448 47.716856,0.804443 1.81906,0.276185 2.28876,0.09462 2.20594,-0.852713 -0.15382,-1.759603 2.15992,-3.064817 3.70514,-2.090117 1.05754,0.667082 1.20946,1.96244 1.04845,8.939482 l -0.18829,8.15936 5.01789,0.45213 c 2.75984,0.24867 6.06747,0.58354 7.3503,0.74414 1.5515,0.19424 2.46698,-0.0587 2.73435,-0.75543 0.5297,-1.38038 2.58647,-1.34381 3.12344,0.0555 0.2328,0.60664 1.2978,1.11278 2.3667,1.12477 1.06889,0.012 4.59058,0.92194 7.82596,2.02211 l 5.88252,2.00033 0.22339,4.32416 c 0.20919,4.04924 0.12738,4.29906 -1.2868,3.92925 -1.13336,-0.29639 -1.51019,-0.0452 -1.51019,1.00686 0,1.60481 2.49695,1.95419 3.44935,0.48265 0.32718,-0.50553 0.76033,-3.56628 0.96254,-6.80167 0.28596,-4.57529 0.61276,-5.88251 1.47063,-5.88251 0.86912,0 1.14894,1.23243 1.31979,5.81276 0.12543,3.36311 -0.10698,6.13656 -0.55149,6.58107 -0.42256,0.42257 -0.7683,1.86024 -0.7683,3.19484 0,2.12499 -0.23835,2.42654 -1.918,2.42654 -1.67506,0 -1.85997,0.2312 -1.45987,1.82534 0.93524,3.72629 -0.37299,7.78546 -3.5919,11.1449 l -3.07255,3.20668 h -6.50226 -6.50227 l -3.18287,-3.32182 c -1.79021,-1.86837 -3.1878,-4.04009 -3.19413,-4.96338 -0.019,-2.77788 -1.02977,-3.76149 -2.85912,-2.78245 -1.14544,0.61302 -9.91465,0.78752 -31.52822,0.6274 -27.79425,-0.2059 -30.086457,-0.32016 -31.96356,-1.59318 -1.112164,-0.75425 -2.022116,-1.79425 -2.022116,-2.3111 0,-0.72652 -1.482857,-1.83239 -2.45704,-1.83239 -0.07195,0 -0.156743,1.90824 -0.188431,4.24053 -0.04305,3.16887 -0.502965,4.91992 -1.81986,6.92887 -2.700143,4.11911 -4.787843,5.00752 -11.767264,5.00752 H 41.89709 Z M 21.560367,127.60991 c 0,-0.40442 -0.35042,-0.73532 -0.77871,-0.73532 -0.428291,0 -0.574209,0.3309 -0.324262,0.73532 0.249948,0.40442 0.600367,0.73531 0.778711,0.73531 0.178344,0 0.324261,-0.33089 0.324261,-0.73531 z M 142.15199,109.22704 c 0,-0.40442 -0.49634,-0.73532 -1.10297,-0.73532 -0.60664,0 -1.10297,0.3309 -1.10297,0.73532 0,0.40442 0.49633,0.73531 1.10297,0.73531 0.60663,0 1.10297,-0.33089 1.10297,-0.73531 z m -58.089867,-5.1472 V 99.667947 H 77.44429 70.826457 v 4.411893 4.41188 h 6.617833 6.617833 z m 24.265387,0 v -4.411893 h -6.61783 -6.617835 v 4.411893 4.41188 h 6.617835 6.61783 z m 11.76504,-1.47063 c 0,-4.738699 -0.21447,-5.882523 -1.10297,-5.882523 -1.23612,0 -1.30506,0.792124 -0.63057,7.245283 0.67207,6.43003 1.73354,5.5956 1.73354,-1.36276 z"
             id="path970"
             inkscape:connector-curvature="0" />
          <path
             style="fill:#8c8c8c;fill-opacity:1;stroke-width:0.73531479"
             d="m 38.824546,142.05078 c -3.218166,-3.35866 -4.52716,-7.41853 -3.592546,-11.14233 0.432486,-1.72317 0.322572,-1.79943 -2.011356,-1.39566 -1.357863,0.23491 -3.387238,0.77373 -4.509724,1.19738 -1.641388,0.6195 -2.311289,0.52556 -3.422307,-0.4799 -1.152189,-1.04271 -1.627248,-1.09665 -2.862785,-0.32505 -2.004317,1.25172 -3.966295,-0.33574 -3.660067,-2.9614 0.272548,-2.33688 2.374622,-2.88318 4.319946,-1.12269 1.393821,1.26139 1.415919,1.01487 1.415919,-15.79537 V 92.949001 l 45.405688,0.453544 c 24.973128,0.249449 46.445706,0.611448 47.716856,0.804443 1.81906,0.276185 2.28876,0.09462 2.20594,-0.852713 -0.15382,-1.759603 2.15992,-3.064817 3.70514,-2.090117 1.05754,0.667082 1.20946,1.96244 1.04845,8.939482 l -0.18829,8.15936 5.01789,0.45213 c 2.75984,0.24867 6.06747,0.58354 7.3503,0.74414 1.5515,0.19424 2.46698,-0.0587 2.73435,-0.75543 0.5297,-1.38038 2.58647,-1.34381 3.12344,0.0555 0.2328,0.60664 1.2978,1.11278 2.3667,1.12477 1.06889,0.012 4.59058,0.92194 7.82596,2.02211 l 5.88252,2.00033 0.22339,4.32416 c 0.20919,4.04924 0.12738,4.29906 -1.2868,3.92925 -1.13336,-0.29639 -1.51019,-0.0452 -1.51019,1.00686 0,1.60481 2.49695,1.95419 3.44935,0.48265 0.32718,-0.50553 0.76033,-3.56628 0.96254,-6.80167 0.28596,-4.57529 0.61276,-5.88251 1.47063,-5.88251 0.86912,0 1.14894,1.23243 1.31979,5.81276 0.12543,3.36311 -0.10698,6.13656 -0.55149,6.58107 -0.42256,0.42257 -0.7683,1.86024 -0.7683,3.19484 0,2.12499 -0.23835,2.42654 -1.918,2.42654 -1.67506,0 -1.85997,0.2312 -1.45987,1.82534 0.93524,3.72629 -0.37299,7.78546 -3.5919,11.1449 l -3.07255,3.20668 h -6.50226 -6.50227 l -3.18287,-3.32182 c -1.79021,-1.86837 -3.1878,-4.04009 -3.19413,-4.96338 -0.019,-2.77788 -1.02977,-3.76149 -2.85912,-2.78245 -1.14544,0.61302 -9.91465,0.78752 -31.52822,0.6274 -27.79425,-0.2059 -30.086457,-0.32016 -31.96356,-1.59318 -1.112164,-0.75425 -2.022116,-1.79425 -2.022116,-2.3111 0,-0.72652 -1.482857,-1.83239 -2.45704,-1.83239 -0.07195,0 -0.156743,1.90824 -0.188431,4.24053 -0.04305,3.16887 -0.502965,4.91992 -1.81986,6.92887 -2.700143,4.11911 -4.787843,5.00752 -11.767264,5.00752 H 41.89709 Z m 14.032853,-4.18477 c 1.44224,-1.19695 2.027378,-5.12973 1.118788,-7.51951 -1.617736,-4.25497 -9.000999,-4.40467 -11.000047,-0.22304 -1.398321,2.92502 -0.353261,7.04709 2.1143,8.33952 2.013431,1.05457 6.161095,0.73578 7.766959,-0.59697 z m -7.031644,-2.16764 c -0.808846,-0.80884 -1.47063,-1.96697 -1.47063,-2.5736 0,-0.60663 0.661784,-1.76476 1.47063,-2.5736 0.808846,-0.80885 1.966967,-1.47063 2.573602,-1.47063 0.606634,0 1.764755,0.66178 2.573601,1.47063 0.808847,0.80884 1.47063,1.96697 1.47063,2.5736 0,1.42524 -2.618995,4.04423 -4.044231,4.04423 -0.606635,0 -1.764756,-0.66178 -2.573602,-1.47063 z m 4.727023,-0.42018 c 0.635522,-0.63552 1.155495,-1.60456 1.155495,-2.15342 0,-1.28746 -2.021453,-3.30892 -3.308916,-3.30892 -0.548861,0 -1.5179,0.51998 -2.153422,1.1555 -0.635522,0.63552 -1.155495,1.60456 -1.155495,2.15342 0,0.54886 0.519973,1.5179 1.155495,2.15342 0.635522,0.63552 1.604561,1.1555 2.153422,1.1555 0.54886,0 1.5179,-0.51998 2.153421,-1.1555 z m 99.366172,2.58782 c 1.44224,-1.19695 2.02737,-5.12973 1.11879,-7.51951 -1.61774,-4.25497 -9.001,-4.40467 -11.00005,-0.22304 -1.39832,2.92502 -0.35326,7.04709 2.1143,8.33952 2.01343,1.05457 6.16109,0.73578 7.76696,-0.59697 z m -7.03164,-2.16764 c -0.80885,-0.80884 -1.47063,-1.96697 -1.47063,-2.5736 0,-1.42524 2.61899,-4.04423 4.04423,-4.04423 1.42524,0 4.04423,2.61899 4.04423,4.04423 0,0.60663 -0.66179,1.76476 -1.47063,2.5736 -0.80885,0.80885 -1.96697,1.47063 -2.5736,1.47063 -0.60664,0 -1.76476,-0.66178 -2.5736,-1.47063 z m 4.72702,-0.42018 c 0.63552,-0.63552 1.15549,-1.60456 1.15549,-2.15342 0,-1.28746 -2.02145,-3.30892 -3.30891,-3.30892 -1.28747,0 -3.30892,2.02146 -3.30892,3.30892 0,1.28746 2.02145,3.30892 3.30892,3.30892 0.54886,0 1.5179,-0.51998 2.15342,-1.1555 z m -28.2571,-11.05587 c 0,-7.69835 0.21194,-9.92577 0.91915,-9.66 4.07461,1.53128 4.45769,1.50353 3.97809,-0.28819 -0.25589,-0.95599 -0.46979,-2.02174 -0.47531,-2.36833 -0.006,-0.34659 -0.54832,-0.4236 -1.20621,-0.17114 -0.6579,0.25245 -1.56785,0.15802 -2.02212,-0.20986 -0.45427,-0.36789 -1.48772,-0.85805 -2.29657,-1.08925 -0.90066,-0.25745 -0.68692,-0.32764 0.55149,-0.1811 1.11216,0.13161 2.02211,-0.0457 2.02211,-0.39406 0,-0.34834 -0.62265,-0.63335 -1.38365,-0.63335 -1.20532,0 -1.45077,-0.80562 -1.9043,-6.25018 -0.91743,-11.013647 -1.67305,-6.690012 -1.28777,7.36864 0.32973,12.03194 0.21949,13.95972 -0.94612,16.54458 l -1.31934,2.92577 H 91.721331 69.455992 l -3.542828,-6.7236 c -1.978649,-3.75509 -3.647792,-6.18993 -3.780572,-5.51486 -0.141431,0.71906 -0.951643,1.20874 -1.999955,1.20874 h -1.762211 l 1.632299,2.42137 c 0.897764,1.33175 2.455934,4.22705 3.462601,6.434 1.924528,4.21921 2.884111,5.18812 5.890502,5.94776 1.011058,0.25547 12.674988,0.50363 25.919846,0.55148 l 24.081556,0.087 z m -45.221856,8.53479 c -0.293504,-0.4749 -0.202752,-1.19434 0.201671,-1.59877 0.490209,-0.49021 0.913195,-0.44749 1.268958,0.12814 0.293504,0.4749 0.202752,1.19435 -0.201671,1.59877 -0.490209,0.49021 -0.913195,0.4475 -1.268958,-0.12814 z m 4.411888,0 c -0.293503,-0.4749 -0.202752,-1.19434 0.201672,-1.59877 0.490209,-0.49021 0.913195,-0.44749 1.268958,0.12814 0.293504,0.4749 0.202752,1.19435 -0.201671,1.59877 -0.490209,0.49021 -0.913196,0.4475 -1.268959,-0.12814 z m 4.411889,0 c -0.293504,-0.4749 -0.202752,-1.19434 0.201671,-1.59877 0.490209,-0.49021 0.913199,-0.44749 1.268959,0.12814 0.293501,0.4749 0.202755,1.19435 -0.201668,1.59877 -0.490212,0.49021 -0.913199,0.4475 -1.268962,-0.12814 z m 22.059439,0 c -0.2935,-0.4749 -0.20275,-1.19434 0.20167,-1.59877 0.49021,-0.49021 0.9132,-0.44749 1.26896,0.12814 0.2935,0.4749 0.20276,1.19435 -0.20166,1.59877 -0.49022,0.49021 -0.91321,0.4475 -1.26897,-0.12814 z m 4.41189,0 c -0.2935,-0.4749 -0.20275,-1.19434 0.20167,-1.59877 0.49021,-0.49021 0.9132,-0.44749 1.26896,0.12814 0.2935,0.4749 0.20276,1.19435 -0.20166,1.59877 -0.49022,0.49021 -0.91321,0.4475 -1.26897,-0.12814 z m 4.41189,0 c -0.2935,-0.4749 -0.20275,-1.19434 0.20167,-1.59877 0.49021,-0.49021 0.9132,-0.44749 1.26896,0.12814 0.2935,0.4749 0.20276,1.19435 -0.20167,1.59877 -0.49021,0.49021 -0.9132,0.4475 -1.26896,-0.12814 z m 15.78286,-5.36746 c 1.80537,-3.72088 3.42225,-7.06613 3.59308,-7.43389 0.17081,-0.36776 -0.2481,-0.45427 -0.93093,-0.19225 -0.68282,0.26202 -1.07871,0.21302 -0.87976,-0.1089 0.19896,-0.32191 -2.26554,-1.44661 -5.47667,-2.49932 l -5.8384,-1.91403 v 9.49324 9.49324 l 3.12509,-0.0364 3.12508,-0.0364 3.28251,-6.76523 z m 0.25858,5.9927 c 1.95102,-1.02694 2.68296,-2.04721 2.69783,-3.76064 0.0177,-2.03331 2.94885,-6.00138 5.83658,-7.90119 3.63028,-2.38832 10.57213,-2.45405 13.83455,-0.131 2.85158,2.0305 3.13489,2.0135 3.13489,-0.18809 0,-2.89496 -2.53522,-4.08593 -8.69774,-4.08593 -4.91539,0 -5.56611,0.17399 -6.87525,1.83829 -1.03825,1.31993 -2.15434,1.83829 -3.95802,1.83829 -2.40276,0 -2.64031,0.25514 -5.46149,5.86619 -3.75563,7.46959 -3.81795,8.26453 -0.51135,6.52408 z M 27.442886,128.34522 c 0,-1.47063 -0.367658,-2.20594 -1.102973,-2.20594 -1.11294,0 -1.575305,2.95913 -0.612762,3.92168 1.054128,1.05413 1.715735,0.39252 1.715735,-1.71574 z m -4.505281,0.623 c 1.245288,-0.7777 1.261317,-0.95972 0.194262,-2.20595 -1.826469,-2.13316 -3.737603,-1.7654 -3.449573,0.66381 0.131869,1.11216 0.27749,2.10484 0.323603,2.20594 0.204711,0.44885 1.687757,0.11306 2.931708,-0.6638 z m -2.510829,-0.67254 c -0.363732,-0.58853 -0.262567,-0.72654 0.284665,-0.38833 0.466909,0.28857 0.848926,0.20182 0.848926,-0.19277 0,-0.39459 -0.413614,-0.88433 -0.919143,-1.08832 -0.662744,-0.26742 -0.67485,-0.38707 -0.0434,-0.42893 1.255681,-0.0832 1.995571,1.40899 1.128525,2.27603 -0.490209,0.49021 -0.923402,0.43099 -1.299577,-0.17768 z m 9.222054,-1.05343 c 0,-2.43388 -0.12974,-2.56816 -2.389773,-2.47346 -1.72818,0.0724 -1.931747,0.18835 -0.735315,0.4188 1.266857,0.244 1.654458,0.82348 1.654458,2.47346 0,1.18514 0.330892,2.1548 0.735315,2.1548 0.404423,0 0.735315,-1.15812 0.735315,-2.5736 z m 6.158154,0.15887 c 0.923679,-0.92368 1.984037,-2.18113 2.356349,-2.79433 0.372313,-0.6132 1.807816,-1.90485 3.19001,-2.87034 5.326719,-3.72081 14.780282,-1.71323 18.057555,3.83475 0.65892,1.11546 1.858265,2.38146 2.665209,2.81332 1.337774,0.71596 1.294804,0.4408 -0.487212,-3.11979 -3.566458,-7.12603 -3.733093,-7.21391 -13.678388,-7.21391 h -8.688619 l -3.113811,3.30891 c -1.712596,1.81991 -3.701088,3.30892 -4.418871,3.30892 -0.959858,0 -1.305061,0.5835 -1.305061,2.20594 0,1.87331 0.282241,2.20595 1.87171,2.20595 1.029441,0 2.627448,-0.75574 3.551129,-1.67942 z m 78.497706,0.0319 c 1.09523,-2.04645 1.45954,-4.97032 0.6193,-4.97032 -0.99615,0 -1.5412,1.31743 -0.66578,1.60924 0.46589,0.15529 0.14582,1.08654 -0.77641,2.25898 l -1.56909,1.99476 -20.905862,-0.005 -20.90587,-0.005 -1.892642,-3.73495 c -1.040953,-2.05423 -1.761061,-3.86653 -1.600238,-4.02736 0.160822,-0.16082 1.066859,1.3611 2.013416,3.38204 l 1.721014,3.67449 h 8.388852 8.388851 L 86.6511,125.47397 c -0.26911,-1.22527 -0.137268,-2.34105 0.30923,-2.617 1.121671,-0.69323 0.9988,-8.28035 -0.140776,-8.69304 -0.735315,-0.26629 -0.735315,-0.6442 0,-1.88958 1.1112,-1.882 1.270447,-14.077033 0.183828,-14.077033 -0.432541,0 -0.735314,2.573603 -0.735314,6.250173 v 6.25018 H 77.44429 68.620513 v -6.25018 c 0,-6.147925 -0.02957,-6.250173 -1.80715,-6.250173 -1.597654,0 -1.981243,0.584574 -3.308917,5.042653 -1.762428,5.9179 -1.861858,8.75806 -0.375409,10.72333 0.593774,0.78503 1.07452,1.77771 1.068327,2.20594 -0.0062,0.42823 -0.362275,0.28227 -0.791295,-0.32437 -1.448639,-2.04838 -0.317496,0.54515 3.0085,6.89801 l 3.308916,6.32023 21.849746,0.009 21.849739,0.009 0.88172,-1.64751 z m -41.272288,-3.13204 c 0.949839,-1.01106 1.389694,-1.83828 0.977455,-1.83828 -0.412239,0 -1.3714,0.68716 -2.131468,1.52702 l -1.381942,1.52703 -0.482645,-1.80467 c -0.265454,-0.99258 -0.273924,-3.70198 -0.01882,-6.02091 0.463046,-4.20919 0.466162,-4.21364 1.864587,-2.66361 0.770422,0.85394 1.742281,1.55262 2.159687,1.55262 0.417407,0 -0.192122,-0.99268 -1.354508,-2.20595 l -2.113428,-2.20594 h 7.260632 7.26063 l -2.113427,2.20594 c -2.417477,2.5233 -1.69989,3.02307 0.871753,0.60714 l 1.701849,-1.5988 v 6.13887 6.13887 l -1.701849,-1.59881 c -2.353472,-2.21097 -3.358969,-2.01668 -1.23941,0.23948 l 1.726982,1.83829 h -6.506528 -6.506527 z m 7.38485,-1.04414 -2.5419,-2.10755 -2.421475,1.84695 c -1.331812,1.01582 -2.421475,1.97312 -2.421475,2.12733 0,0.15421 2.233518,0.27148 4.963374,0.2606 l 4.963375,-0.0198 -2.541899,-2.10755 z m -5.770711,-1.14607 c 0.600328,0.23037 1.522854,-0.10089 2.050058,-0.73613 0.870078,-1.04838 1.080287,-1.04482 2.277417,0.0386 0.725375,0.65646 1.691457,0.96328 2.146848,0.68184 0.455392,-0.28145 1.468917,0.0683 2.252277,0.77724 1.394318,1.26184 1.424297,1.19291 1.424297,-3.2743 v -4.56328 l -2.573602,1.96299 c -2.777428,2.11845 -2.959378,2.49896 -1.840912,3.84994 0.402978,0.48675 0.176927,0.39778 -0.502337,-0.19771 -1.153858,-1.01155 -1.146196,-1.18086 0.116591,-2.57622 1.571972,-1.73702 0.722287,-2.02364 -1.102757,-0.372 -1.110682,1.00515 -1.335846,1.00515 -2.170049,0 -0.51193,-0.61684 -1.272442,-1.12152 -1.690026,-1.12152 -0.417584,0 -0.151017,0.67208 0.592371,1.49352 1.312491,1.45028 1.311634,1.5301 -0.02959,2.75743 -1.316768,1.20494 -1.333019,1.20028 -0.348331,-0.1 0.930573,-1.22879 0.780923,-1.57021 -1.510901,-3.44705 l -2.543781,-2.08317 -0.490121,3.07939 c -0.269565,1.69367 -0.322321,3.68262 -0.117234,4.41989 0.342997,1.23305 0.476902,1.24637 1.670582,0.1661 0.713732,-0.64592 1.788872,-0.98591 2.389199,-0.75555 z m 8.680267,-8.9013 c 0,-0.16823 -2.56441,-0.29344 -5.698689,-0.27826 l -5.69869,0.0276 2.908028,2.48851 2.908029,2.4885 2.790661,-2.21024 c 1.534864,-1.21564 2.790661,-2.34789 2.790661,-2.51612 z m -18.371154,5.59854 c -1.182153,-2.20887 -0.07493,-4.43378 2.206458,-4.43378 1.837656,0 2.046653,0.25549 2.046653,2.50194 0,2.06712 -0.311227,2.56143 -1.790792,2.84427 -1.191643,0.2278 -2.015467,-0.0775 -2.462319,-0.91243 z m 3.664859,-0.7572 c 0,-0.40443 -0.744506,-0.78038 -1.654458,-0.83545 l -1.654459,-0.10014 1.654459,-0.31866 c 2.015887,-0.38828 2.204579,-1.68701 0.245104,-1.68701 -1.498931,0 -2.270031,1.24155 -1.712575,2.75743 0.400372,1.08872 3.121929,1.24897 3.121929,0.18383 z m 90.443717,8.82377 c 0,-0.81701 -0.49021,-1.47063 -1.10297,-1.47063 -1.32959,0 -1.42152,0.85797 -0.2206,2.05889 1.18665,1.18664 1.32357,1.12578 1.32357,-0.58826 z m 2.20594,0 c 0,-0.80884 -0.33089,-1.47063 -0.73531,-1.47063 -0.40442,0 -0.73531,0.66179 -0.73531,1.47063 0,0.80885 0.33089,1.47063 0.73531,1.47063 0.40442,0 0.73531,-0.66178 0.73531,-1.47063 z m -72.205568,-1.47063 c -0.149284,-1.9591 -2.06122,-3.32323 -2.06122,-1.47062 0,0.40442 0.299913,0.73531 0.666475,0.73531 0.366562,0 0.493418,0.66178 0.281898,1.47063 -0.217396,0.83131 -0.02258,1.47063 0.448174,1.47063 0.472432,0 0.760029,-0.9545 0.664673,-2.20595 z m 23.473228,1.28681 c 0.40899,-0.52663 0.68295,-6.72349 0.64153,-14.51077 -0.0656,-12.325653 -0.19216,-13.614864 -1.3591,-13.841073 -1.14486,-0.221928 -1.2868,0.445936 -1.2868,6.054653 v 6.30409 h -8.82378 -8.823779 v -6.30409 c 0,-5.607898 -0.142107,-6.276786 -1.286801,-6.056803 -1.165518,0.223986 -1.305588,1.615136 -1.486174,14.760213 l -0.199374,14.51292 h 10.955238 c 7.89326,0 11.15474,-0.2569 11.66904,-0.91914 z m -20.387244,-3.44391 c 0,-2.59089 0.2108,-2.92435 2.022115,-3.19874 1.940592,-0.29398 1.928738,-0.31077 -0.294126,-0.4165 -2.135935,-0.1016 -2.316241,-0.31051 -2.316241,-2.68378 0,-2.36142 0.17938,-2.5736 2.175811,-2.5736 1.532903,0 2.019314,-0.27159 1.646186,-0.91914 -0.291295,-0.50553 0.28956,-0.17464 1.290794,0.73531 2.469745,2.24459 3.507395,2.10412 1.357979,-0.18382 l -1.726982,-1.83829 h 6.746008 c 6.65855,0 7.59404,0.32847 5.86363,2.05888 -1.34965,1.34966 0.21415,1.0496 1.74363,-0.33456 1.29288,-1.17004 1.34469,-0.9717 1.34469,5.1472 0,3.50028 -0.27961,6.36414 -0.62134,6.36414 -0.34175,0 -1.22026,-0.66178 -1.95226,-1.47062 -0.732,-0.80885 -1.66179,-1.47063 -2.06622,-1.47063 -0.40442,0 -0.18769,0.60511 0.48163,1.3447 0.66932,0.73958 1.21694,1.56681 1.21694,1.83828 0,0.27148 -3.16301,0.49359 -7.02889,0.49359 -4.498681,0 -6.865299,-0.26469 -6.574438,-0.73532 0.249948,-0.40442 0.123555,-0.73531 -0.280868,-0.73531 -0.404423,0 -0.939813,0.33089 -1.189761,0.73531 -0.985109,1.59394 -1.838287,0.59279 -1.838287,-2.1571 z m 8.281654,-3.59053 c 0.68536,-0.82582 0.49014,-1.34128 -0.952353,-2.51451 l -1.81444,-1.47576 -0.254287,1.74386 c -0.336884,2.31035 -1.453372,3.58216 -3.144662,3.58216 -1.050015,0 -1.380597,0.53915 -1.380597,2.25163 v 2.25163 l 3.342123,-2.40013 c 1.838169,-1.32007 3.730061,-2.86757 4.204216,-3.43888 z m 5.3549,3.20391 -2.90802,-2.4885 -2.71265,2.14845 c -1.491958,1.18165 -2.958102,2.14846 -3.258096,2.14846 -0.300001,0 0.905739,-1.1236 2.679413,-2.49689 2.808533,-2.17455 3.374733,-2.36441 4.385733,-1.47063 1.68924,1.49336 2.58547,1.25775 1.16908,-0.30735 -0.96217,-1.06318 -1.02255,-1.52725 -0.2978,-2.28859 0.73559,-0.77271 0.61314,-0.86586 -0.64154,-0.48807 -0.97017,0.29212 -1.89846,0.0478 -2.4798,-0.65267 -0.51105,-0.61577 -1.27082,-1.11958 -1.68841,-1.11958 -0.417585,0 -0.128901,0.69873 0.64152,1.55274 1.39245,1.54352 1.38209,1.56885 -1.74647,4.26719 -1.730983,1.49294 -2.916678,2.94501 -2.634883,3.22681 0.281802,0.28179 3.187067,0.49993 6.456163,0.48475 l 5.94379,-0.0276 z m 5.48163,-3.38448 v -5.1929 l -3.30962,2.37679 c -3.00125,2.15534 -3.20664,2.49058 -2.20434,3.59811 0.6079,0.67172 0.86648,1.46012 0.5746,1.75199 -0.29187,0.29188 -0.0235,0.33608 0.59628,0.0982 0.64062,-0.24583 1.71143,0.21338 2.48132,1.06411 0.74491,0.82311 1.46854,1.49656 1.60807,1.49656 0.13952,0 0.25369,-2.3368 0.25369,-5.19289 z m -14.757981,-2.71174 c -0.03934,-2.10037 -0.187454,-2.4098 -0.621466,-1.29855 -0.52536,1.34512 -0.26386,4.05598 0.391254,4.05598 0.155041,0 0.258639,-1.24085 0.230212,-2.75743 z m -1.418944,1.2868 c 0,-0.40443 -0.661783,-0.73532 -1.47063,-0.73532 -0.808846,0 -1.470629,0.33089 -1.470629,0.73532 0,0.40442 0.661783,0.73531 1.470629,0.73531 0.808847,0 1.47063,-0.33089 1.47063,-0.73531 z m 12.622555,-2.03403 c 0.97436,-0.97435 -0.092,-1.27133 -1.2774,-0.35575 -0.39271,0.30332 0.12017,-0.19137 1.13974,-1.09932 l 1.85374,-1.6508 -5.88252,0.0161 -5.882513,0.0161 2.524493,2.09334 c 2.65792,2.20399 5.88087,2.62387 7.52446,0.98028 z m -12.622555,-0.17192 c 0,-0.40442 -0.661783,-0.73531 -1.47063,-0.73531 -0.808846,0 -1.470629,0.33089 -1.470629,0.73531 0,0.40443 0.661783,0.73532 1.470629,0.73532 0.808847,0 1.47063,-0.33089 1.47063,-0.73532 z m 66.766585,7.9414 c 1.08669,-1.08669 1.22081,-12.35329 0.14706,-12.35329 -0.42083,0 -0.73532,2.22206 -0.73532,5.19555 0,2.85755 -0.34253,5.83557 -0.76118,6.61783 -0.84554,1.57991 -0.0206,1.90997 1.34944,0.53991 z M 25.774259,114.16823 c -0.154214,-1.7066 -0.278555,-0.12488 -0.276314,3.51493 0.0022,3.63981 0.128415,5.03611 0.280388,3.1029 0.151972,-1.93321 0.150139,-4.91124 -0.004,-6.61783 z m 10.23842,6.45619 3.1705,-3.30892 h 8.689086 c 5.941436,0 8.997174,0.29065 9.663378,0.91915 0.786284,0.74177 0.910139,0.7063 0.641842,-0.18383 -0.182847,-0.60664 -1.216883,-1.20768 -2.297859,-1.33565 -1.372473,-0.16247 -1.965409,-0.6616 -1.965409,-1.65445 0,-1.165 0.523393,-1.42179 2.897864,-1.42179 1.593824,0 3.124198,0.36622 3.40083,0.81382 0.350622,0.56731 0.69444,0.51163 1.135109,-0.18383 0.347677,-0.54871 0.63214,-0.66676 0.63214,-0.26233 0,0.40442 -0.279776,1.17667 -0.621725,1.71611 -0.500579,0.78968 -0.70881,0.75386 -1.068635,-0.18383 -0.497303,-1.29595 -5.640268,-1.68741 -5.640268,-0.42931 0,0.40442 0.621268,0.73531 1.380594,0.73531 0.759327,0 1.792518,0.49634 2.29598,1.10297 1.35774,1.63598 2.595269,1.34425 3.593747,-0.84717 0.619428,-1.3595 0.655176,-2.18352 0.118029,-2.72067 -1.19596,-1.19596 -0.819051,-5.5253 0.937698,-10.77079 l 1.600702,-4.77955 11.922019,-0.201915 11.922018,-0.201915 0.24061,7.18741 0.24061,7.1874 0.153894,-7.55434 0.153894,-7.55434 -12.68418,0.201192 -12.68418,0.201193 -1.649946,4.779545 c -0.90747,2.62875 -1.448832,3.62143 -1.203025,2.20595 0.245807,-1.41549 0.888675,-3.649 1.428596,-4.963379 0.767206,-1.867671 0.782066,-2.389774 0.06802,-2.389774 -1.315986,0 -2.565243,6.987893 -2.136151,11.948863 0.308048,3.56151 0.177461,4.22806 -0.828326,4.22806 -1.598225,0 -1.53658,-3.09808 0.21581,-10.84589 0.754643,-3.336491 1.220732,-6.066347 1.035753,-6.066347 -0.184979,0 -0.976356,0.342533 -1.758614,0.761186 -1.25238,0.670252 -1.42229,1.592595 -1.42229,7.720801 v 6.95962 h -15.44161 -15.44161 v 6.25018 6.25018 h 3.067304 c 2.675411,0 3.472384,-0.42277 6.237804,-3.30892 z m -6.734716,1.83309 c -0.584059,-0.94503 1.481347,-1.76098 2.991074,-1.18164 1.473402,0.5654 0.66197,1.92215 -1.149578,1.92215 -0.76111,0 -1.589784,-0.33323 -1.841496,-0.74051 z m 2.76064,-0.48179 c -0.505529,-0.20398 -1.332758,-0.20398 -1.838287,0 -0.505529,0.20399 -0.09191,0.37088 0.919143,0.37088 1.011058,0 1.424673,-0.16689 0.919144,-0.37088 z m -4.267657,-2.51834 c -0.757758,-1.22608 0.946503,-2.63207 1.960877,-1.6177 0.848498,0.8485 0.317451,2.41708 -0.818308,2.41708 -0.356687,0 -0.870843,-0.35972 -1.142569,-0.79938 z m 1.877884,-0.67125 c 0,-0.40442 -0.330892,-0.73531 -0.735315,-0.73531 -0.404423,0 -0.735315,0.33089 -0.735315,0.73531 0,0.40442 0.330892,0.73532 0.735315,0.73532 0.404423,0 0.735315,-0.3309 0.735315,-0.73532 z m -1.47063,-4.77954 v -1.83829 h 12.132694 12.132694 v 1.83829 1.83828 H 40.310894 28.1782 Z m 60.958514,3.30891 c -0.109606,-3.75362 -0.418747,-5.1472 -1.141811,-5.1472 -0.545339,0 -0.991521,0.33089 -0.991521,0.73531 0,0.40443 0.330892,0.73532 0.735315,0.73532 0.408512,0 0.735315,1.96084 0.735315,4.41189 0,2.42654 0.182924,4.41189 0.406497,4.41189 0.223572,0 0.338862,-2.31625 0.256205,-5.14721 z m 26.466906,-0.36766 c -0.11111,-3.43204 -0.43302,-4.77954 -1.14182,-4.77954 -0.5429,0 -0.98709,0.33089 -0.98709,0.73531 0,0.40443 0.24817,0.73487 0.55149,0.73432 0.30332,-5.6e-4 0.43814,1.81935 0.2996,4.04423 -0.16784,2.69552 0.0291,4.04523 0.59034,4.04523 0.56223,0 0.79078,-1.58889 0.68748,-4.77955 z m 42.7253,3.44432 c 0,-0.79204 -1.19654,-2.00772 -2.94126,-2.98831 -1.6177,-0.90919 -2.94126,-1.5165 -2.94126,-1.34957 0,0.55272 4.76897,5.59159 5.33103,5.63274 0.30332,0.0222 0.55149,-0.56048 0.55149,-1.29486 z m -19.26525,-1.01778 c 1.40796,-1.40796 1.03601,-2.05888 -1.17651,-2.05888 -1.98457,0 -3.82363,1.13173 -3.82363,2.35301 0,0.92372 4.01868,0.68733 5.00014,-0.29413 z m -4.26483,-1.69122 c 0.70287,-0.8469 2.63579,-1.10297 8.32556,-1.10297 5.8488,0 7.22032,-0.18986 6.50912,-0.90106 -0.49558,-0.49558 -3.29161,-1.13694 -6.21341,-1.42525 -2.92179,-0.28831 -6.66351,-0.74624 -8.31494,-1.01762 -2.8558,-0.4693 -3.04935,-0.3805 -3.95937,1.81649 -0.52624,1.27045 -1.1021,2.1646 -1.2797,1.98701 -0.17759,-0.1776 0.19784,-1.3299 0.83429,-2.56067 1.31399,-2.54097 1.40653,-3.04611 0.55807,-3.04611 -0.63199,0 -3.31394,5.15582 -2.89821,5.57156 0.42674,0.42673 3.83572,1.68673 4.6941,1.73498 0.45601,0.0256 1.24103,-0.44973 1.74449,-1.05636 z m 22.79476,-0.40736 c -3.89682,-2.65859 -7.5414,-3.91334 -12.86801,-4.43021 l -5.88252,-0.5708 5.94912,0.18603 c 4.86397,0.15209 6.59095,0.54475 9.46788,2.15269 4.09576,2.28917 4.06885,2.28301 4.06885,0.93121 0,-2.01385 -8.602,-4.16242 -20.95648,-5.23442 -12.73371,-1.10491 -15.07395,-1.12242 -15.07395,-0.1128 0,0.36163 0.48574,0.47111 1.07942,0.2433 0.59369,-0.22782 1.29153,-0.071 1.55077,0.34843 0.25924,0.41946 1.84157,0.67842 3.51629,0.57546 1.67473,-0.10295 3.54129,0.006 4.14793,0.2428 2.69821,1.05187 8.3033,2.03144 11.62382,2.03144 2.5094,0 4.19445,0.45228 5.49427,1.47472 1.29029,1.01494 1.96688,1.19852 2.17012,0.58879 0.20635,-0.61906 1.05586,-0.41714 2.82007,0.67031 2.52754,1.55794 4.97013,2.32055 2.89242,0.90305 z m -29.08524,-2.82361 1.10043,-2.128 -2.60081,-0.30363 c -2.32896,-0.27189 -2.55835,-0.14554 -2.19456,1.20886 0.22344,0.83186 0.41077,1.92609 0.41629,2.43162 0.0188,1.72111 2.17453,0.92629 3.27865,-1.20885 z m -12.8277,-5.8526 c 0,-1.55837 -0.21259,-4.86729 -0.47241,-7.35315 l -0.4724,-4.519753 h -12.39561 c -6.817582,0 -12.396091,0.248169 -12.396702,0.551487 -6.02e-4,0.303317 4.991251,0.451882 11.093012,0.330144 7.70461,-0.153717 11.41175,0.04228 12.1338,0.641522 0.74463,0.617994 1.03968,2.61102 1.03968,7.023 0,3.61655 0.30362,6.16014 0.73531,6.16014 0.40443,0 0.73532,-1.27502 0.73532,-2.83339 z m -58.825183,-4.80874 c 0,-5.896668 0.1882,-6.980168 1.2868,-7.408322 0.707741,-0.275824 14.519263,-0.463332 30.692274,-0.416683 20.792609,0.05997 29.176189,-0.144462 28.622669,-0.697975 -0.53281,-0.532822 -9.51205,-0.718395 -28.118956,-0.58113 -15.034891,0.110913 -27.336036,-0.04651 -27.335876,-0.349826 1.6e-4,-0.303317 -8.271999,-0.551486 -18.382577,-0.551486 h -18.38287 v 8.456122 8.45612 H 41.046209 56.855477 Z M 28.1782,102.60921 v -6.617837 h 11.029722 11.029722 v 6.617837 6.61783 H 39.207922 28.1782 Z m 21.324129,0 V 96.726687 H 39.207922 28.913515 v 5.882523 5.88251 H 39.207922 49.502329 Z M 36.266663,100.0356 c 0,-1.610685 0.318636,-1.838283 2.573602,-1.838283 2.254965,0 2.573601,0.227598 2.573601,1.838283 0,1.61069 -0.318636,1.83829 -2.573601,1.83829 -2.254966,0 -2.573602,-0.2276 -2.573602,-1.83829 z m 4.411889,0 c 0,-0.68629 -0.694464,-1.102968 -1.838287,-1.102968 -1.143824,0 -1.838287,0.416678 -1.838287,1.102968 0,0.6863 0.694463,1.10298 1.838287,1.10298 1.143823,0 1.838287,-0.41668 1.838287,-1.10298 z m 18.892435,7.91863 c -0.186434,-0.71544 -0.351232,-0.30812 -0.366217,0.90515 -0.01499,1.21327 0.137551,1.79863 0.338971,1.3008 0.20142,-0.49784 0.21368,-1.49051 0.02724,-2.20595 z m 11.25547,1.68386 c 0,-0.17834 -0.330891,-0.52876 -0.735314,-0.77871 -0.404424,-0.24995 -0.735315,-0.10403 -0.735315,0.32426 0,0.42829 0.330891,0.77871 0.735315,0.77871 0.404423,0 0.735314,-0.14591 0.735314,-0.32426 z m 3.125088,-0.16272 c -0.505529,-0.20399 -1.332758,-0.20399 -1.838287,0 -0.505529,0.20398 -0.09191,0.37088 0.919144,0.37088 1.011057,0 1.424672,-0.1669 0.919143,-0.37088 z m 3.293598,0.0427 c -0.244339,-0.24434 -0.878548,-0.27046 -1.409354,-0.0581 -0.586585,0.23474 -0.412347,0.40897 0.444253,0.44426 0.775144,0.0319 1.209439,-0.14187 0.965101,-0.3862 z m 2.941259,0 c -0.244339,-0.24434 -0.878548,-0.27046 -1.409354,-0.0581 -0.586585,0.23474 -0.412347,0.40897 0.444253,0.44426 0.775144,0.0319 1.209439,-0.14187 0.965101,-0.3862 z m 2.941259,0 c -0.244339,-0.24434 -0.878548,-0.27046 -1.409354,-0.0581 -0.586584,0.23474 -0.412346,0.40897 0.444253,0.44426 0.775144,0.0319 1.209441,-0.14187 0.965101,-0.3862 z m 2.405092,-0.29106 c 0,-0.40442 -0.145916,-0.73532 -0.324259,-0.73532 -0.178344,0 -0.528765,0.3309 -0.778713,0.73532 -0.249949,0.40442 -0.104033,0.73531 0.324259,0.73531 0.428291,0 0.778713,-0.33089 0.778713,-0.73531 z m 9.559092,0.41105 c 0,-0.17834 -0.330892,-0.52876 -0.735315,-0.77871 -0.404423,-0.24995 -0.735315,-0.10403 -0.735315,0.32426 0,0.42829 0.330892,0.77871 0.735315,0.77871 0.404423,0 0.735315,-0.14591 0.735315,-0.32426 z m 3.125088,-0.16272 c -0.505529,-0.20399 -1.332758,-0.20399 -1.838287,0 -0.505529,0.20398 -0.09192,0.37088 0.919143,0.37088 1.011058,0 1.424673,-0.1669 0.919144,-0.37088 z m 3.293597,0.0427 c -0.24434,-0.24434 -0.87855,-0.27046 -1.40935,-0.0581 -0.586586,0.23474 -0.412353,0.40897 0.44425,0.44426 0.77514,0.0319 1.20944,-0.14187 0.9651,-0.3862 z m 2.94126,0 c -0.24434,-0.24434 -0.87855,-0.27046 -1.40935,-0.0581 -0.58659,0.23474 -0.41235,0.40897 0.44425,0.44426 0.77514,0.0319 1.20944,-0.14187 0.9651,-0.3862 z m 2.94126,0 c -0.24434,-0.24434 -0.87855,-0.27046 -1.40936,-0.0581 -0.58658,0.23474 -0.41234,0.40897 0.44426,0.44426 0.77514,0.0319 1.20944,-0.14187 0.9651,-0.3862 z m 2.40509,-0.29106 c 0,-0.40442 -0.14592,-0.73532 -0.32426,-0.73532 -0.17834,0 -0.52876,0.3309 -0.77871,0.73532 -0.24995,0.40442 -0.10403,0.73531 0.32426,0.73531 0.42829,0 0.77871,-0.33089 0.77871,-0.73531 z m 32.35385,0 c 0,-0.40442 -0.49634,-0.73532 -1.10297,-0.73532 -0.60664,0 -1.10297,0.3309 -1.10297,0.73532 0,0.40442 0.49633,0.73531 1.10297,0.73531 0.60663,0 1.10297,-0.33089 1.10297,-0.73531 z m -58.089867,-5.1472 V 99.667947 H 77.44429 70.826457 v 4.411893 4.41188 h 6.617833 6.617833 z m 24.265387,0 v -4.411893 h -6.61783 -6.617835 v 4.411893 4.41188 h 6.617835 6.61783 z m 11.76504,-1.47063 c 0,-4.738699 -0.21447,-5.882523 -1.10297,-5.882523 -1.23612,0 -1.30506,0.792124 -0.63057,7.245283 0.67207,6.43003 1.73354,5.5956 1.73354,-1.36276 z m 3.67657,-1.47063 c 0,-7.020633 -0.0711,-7.353152 -1.57175,-7.353152 -1.52295,0 -1.55587,0.195642 -1.06051,6.300672 0.54735,6.74585 0.93746,8.40562 1.97562,8.40562 0.36115,0 0.65664,-3.30891 0.65664,-7.35314 z m -1.48877,2.79161 c -0.19507,-1.9022 -0.0828,-3.18665 0.24955,-2.85433 0.33233,0.33233 0.49194,1.88868 0.35468,3.45856 l -0.24955,2.85433 z m -52.422218,0.0118 c -0.234732,-0.58658 -0.40897,-0.41234 -0.444253,0.44426 -0.03193,0.77514 0.141862,1.20944 0.386202,0.9651 0.244338,-0.24434 0.270462,-0.87855 0.05805,-1.40936 z m 15.441607,0 c -0.234727,-0.58658 -0.408967,-0.41234 -0.444248,0.44426 -0.03191,0.77514 0.141857,1.20944 0.386202,0.9651 0.244338,-0.24434 0.270456,-0.87855 0.05802,-1.40936 z m 8.823777,0 c -0.234727,-0.58658 -0.408967,-0.41234 -0.444248,0.44426 -0.03191,0.77514 0.141857,1.20944 0.386202,0.9651 0.244338,-0.24434 0.270457,-0.87855 0.05802,-1.40936 z m 15.441614,0 c -0.23473,-0.58658 -0.40897,-0.41234 -0.44425,0.44426 -0.0319,0.77514 0.14186,1.20944 0.3862,0.9651 0.24434,-0.24434 0.27046,-0.87855 0.058,-1.40936 z M 69.858132,101.0007 c -0.234732,-0.58658 -0.40897,-0.41234 -0.444253,0.44426 -0.03193,0.77514 0.141862,1.20944 0.386202,0.9651 0.244338,-0.24434 0.270462,-0.87855 0.05805,-1.40936 z m 15.441607,0 c -0.234727,-0.58658 -0.408967,-0.41234 -0.444248,0.44426 -0.03191,0.77514 0.141857,1.20944 0.386202,0.9651 0.244338,-0.24434 0.270456,-0.87855 0.05802,-1.40936 z m 8.823777,0 c -0.234727,-0.58658 -0.408967,-0.41234 -0.444248,0.44426 -0.03191,0.77514 0.141857,1.20944 0.386202,0.9651 0.244338,-0.24434 0.270457,-0.87855 0.05802,-1.40936 z m 15.441614,0 c -0.23473,-0.58658 -0.40897,-0.41234 -0.44425,0.44426 -0.0319,0.77514 0.14186,1.20944 0.3862,0.9651 0.24434,-0.24434 0.27046,-0.87855 0.058,-1.40936 z M 70.4588,98.932632 c 0.249947,-0.404423 0.104029,-0.735315 -0.324261,-0.735315 -0.428291,0 -0.778711,0.330892 -0.778711,0.735315 0,0.404423 0.145917,0.735315 0.324261,0.735315 0.178344,0 0.528763,-0.330892 0.778711,-0.735315 z m 15.073953,0 c 0,-0.404423 -0.350422,-0.735315 -0.778713,-0.735315 -0.428292,0 -0.574208,0.330892 -0.324259,0.735315 0.249948,0.404423 0.600369,0.735315 0.778713,0.735315 0.178343,0 0.324259,-0.330892 0.324259,-0.735315 z m 9.191434,0 c 0.249949,-0.404423 0.104033,-0.735315 -0.324259,-0.735315 -0.428291,0 -0.778713,0.330892 -0.778713,0.735315 0,0.404423 0.145916,0.735315 0.324259,0.735315 0.178344,0 0.528765,-0.330892 0.778713,-0.735315 z m 15.073953,0 c 0,-0.404423 -0.35042,-0.735315 -0.77871,-0.735315 -0.42829,0 -0.57421,0.330892 -0.32426,0.735315 0.24995,0.404423 0.60037,0.735315 0.77871,0.735315 0.17834,0 0.32426,-0.330892 0.32426,-0.735315 z M 73.951545,98.445647 c -0.505529,-0.203985 -1.332758,-0.203985 -1.838287,0 -0.505529,0.203986 -0.09191,0.370882 0.919144,0.370882 1.011057,0 1.424672,-0.166896 0.919143,-0.370882 z m 3.293598,0.04273 c -0.244339,-0.244339 -0.878548,-0.270462 -1.409354,-0.05805 -0.586585,0.234731 -0.412347,0.408969 0.444253,0.444253 0.775144,0.03193 1.209439,-0.141863 0.965101,-0.386202 z m 2.941259,0 c -0.244339,-0.244339 -0.878548,-0.270462 -1.409354,-0.05805 -0.586585,0.234731 -0.412347,0.408969 0.444253,0.444253 0.775144,0.03193 1.209439,-0.141863 0.965101,-0.386202 z m 2.941259,0 c -0.244339,-0.244339 -0.878548,-0.270462 -1.409354,-0.05805 -0.586584,0.234731 -0.412346,0.408969 0.444253,0.444253 0.775144,0.03193 1.209441,-0.141863 0.965101,-0.386202 z m 15.089272,-0.04273 c -0.505529,-0.203985 -1.332758,-0.203985 -1.838287,0 -0.505529,0.203986 -0.09192,0.370882 0.919143,0.370882 1.011058,0 1.424673,-0.166896 0.919144,-0.370882 z m 3.293597,0.04273 c -0.24434,-0.244339 -0.87855,-0.270462 -1.40935,-0.05805 -0.586586,0.234731 -0.412353,0.408969 0.44425,0.444253 0.77514,0.03193 1.20944,-0.141863 0.9651,-0.386202 z m 2.94126,0 c -0.24434,-0.244339 -0.87855,-0.270462 -1.40935,-0.05805 -0.58659,0.234731 -0.41235,0.408969 0.44425,0.444253 0.77514,0.03193 1.20944,-0.141863 0.9651,-0.386202 z m 2.94126,0 c -0.24434,-0.244339 -0.87855,-0.270462 -1.40936,-0.05805 -0.58658,0.234731 -0.41234,0.408969 0.44426,0.444253 0.77514,0.03193 1.20944,-0.141863 0.9651,-0.386202 z M 124.13678,92.3148 c -0.24995,-0.404424 -1.07718,-0.735315 -1.83829,-0.735315 -0.76111,0 -1.58834,0.330891 -1.83829,0.735315 -0.26585,0.430158 0.49704,0.735314 1.83829,0.735314 1.34125,0 2.10414,-0.305156 1.83829,-0.735314 z"
             id="path968"
             inkscape:connector-curvature="0" />
          <path
             style="fill:#333333;fill-opacity:1;stroke-width:0.73531479"
             d="m 39.005785,142.23461 c -3.403963,-3.54701 -4.728496,-7.52229 -3.773785,-11.32616 0.432486,-1.72317 0.322572,-1.79943 -2.011356,-1.39566 -1.357863,0.23491 -3.387238,0.77373 -4.509724,1.19738 -1.641388,0.6195 -2.311289,0.52556 -3.422307,-0.4799 -1.152189,-1.04271 -1.627248,-1.09665 -2.862785,-0.32505 -2.004317,1.25172 -3.966295,-0.33574 -3.660067,-2.9614 0.272548,-2.33688 2.374622,-2.88318 4.319946,-1.12269 1.393821,1.26139 1.415919,1.01487 1.415919,-15.79537 V 92.949001 l 45.405688,0.453544 c 24.973128,0.249449 46.445706,0.611448 47.716856,0.804443 1.81906,0.276185 2.28876,0.09462 2.20594,-0.852713 -0.15382,-1.759603 2.15992,-3.064817 3.70514,-2.090117 1.05754,0.667082 1.20946,1.96244 1.04845,8.939482 l -0.18829,8.15936 5.01789,0.45213 c 2.75984,0.24867 6.06747,0.58354 7.3503,0.74414 1.5515,0.19424 2.46698,-0.0587 2.73435,-0.75543 0.5297,-1.38038 2.58647,-1.34381 3.12344,0.0555 0.2328,0.60664 1.2978,1.11278 2.3667,1.12477 1.06889,0.012 4.59058,0.92194 7.82596,2.02211 l 5.88252,2.00033 0.22339,4.32416 c 0.20919,4.04924 0.12738,4.29906 -1.2868,3.92925 -1.13336,-0.29639 -1.51019,-0.0452 -1.51019,1.00686 0,1.60481 2.49695,1.95419 3.44935,0.48265 0.32718,-0.50553 0.76033,-3.56628 0.96254,-6.80167 0.28596,-4.57529 0.61276,-5.88251 1.47063,-5.88251 0.86912,0 1.14894,1.23243 1.31979,5.81276 0.12543,3.36311 -0.10698,6.13656 -0.55149,6.58107 -0.42256,0.42257 -0.7683,1.86024 -0.7683,3.19484 0,2.12499 -0.23835,2.42654 -1.918,2.42654 -1.67506,0 -1.85997,0.2312 -1.45987,1.82534 0.95534,3.80638 -0.36843,7.78094 -3.77314,11.32873 -3.1193,3.25038 -3.29709,3.33152 -4.30156,1.96317 -1.03719,-1.41291 -1.0483,-1.41291 -1.09947,0 -0.0501,1.38306 -0.0713,1.38172 -0.68363,-0.0433 l -0.63195,-1.47063 -0.0629,1.47063 c -0.0524,1.22334 -0.1828,1.28516 -0.77574,0.36766 -0.63359,-0.98042 -0.7153,-0.98042 -0.73531,0 -0.02,0.98042 -0.10172,0.98042 -0.73532,0 -0.63359,-0.98042 -0.7153,-0.98042 -0.73531,0 -0.0185,0.90363 -0.13729,0.92182 -0.65756,0.10063 -0.53615,-0.84626 -0.69713,-0.84626 -1.03366,0 -0.25738,0.64718 -0.4375,0.48126 -0.50836,-0.46829 l -0.10973,-1.47063 -0.63195,1.47063 c -0.61235,1.42501 -0.63355,1.42635 -0.68363,0.0433 -0.0512,-1.41291 -0.0623,-1.41291 -1.09946,0 -1.00369,1.36728 -1.18933,1.27983 -4.41189,-2.07832 -1.92209,-2.00296 -3.36894,-4.2093 -3.37537,-5.1472 -0.019,-2.77788 -1.02977,-3.76149 -2.85912,-2.78245 -1.14544,0.61302 -9.91465,0.78752 -31.52822,0.6274 -27.79425,-0.2059 -30.086457,-0.32016 -31.96356,-1.59318 -1.112164,-0.75425 -2.022116,-1.79425 -2.022116,-2.3111 0,-0.72652 -1.482857,-1.83239 -2.45704,-1.83239 -0.07195,0 -0.156743,1.90824 -0.188431,4.24053 -0.06483,4.77191 -2.12011,8.75358 -5.570576,10.79182 -1.846129,1.09054 -2.042722,1.08143 -2.746369,-0.1272 -0.703503,-1.20839 -0.763215,-1.19627 -0.831942,0.1688 l -0.07404,1.47063 -0.631951,-1.47063 -0.631951,-1.47063 -0.06294,1.47063 c -0.05236,1.22334 -0.1828,1.28516 -0.775735,0.36766 -0.633596,-0.98042 -0.715298,-0.98042 -0.735315,0 -0.02002,0.98042 -0.101719,0.98042 -0.735315,0 -0.633596,-0.98042 -0.715297,-0.98042 -0.735315,0 -0.01845,0.90363 -0.13729,0.92182 -0.657564,0.10063 -0.536149,-0.84626 -0.697121,-0.84626 -1.033661,0 -0.257376,0.64718 -0.437498,0.48126 -0.50835,-0.46829 l -0.109733,-1.47063 -0.631951,1.47063 c -0.612347,1.42501 -0.633554,1.42635 -0.683633,0.0433 -0.05116,-1.41291 -0.06227,-1.41291 -1.09946,0 -1.004473,1.36835 -1.18226,1.28721 -4.301562,-1.96317 z m 4.132386,-0.10283 c -0.211531,-0.34227 -0.934204,-0.19262 -1.60594,0.33255 -1.115718,0.87227 -1.125955,0.83166 -0.118365,-0.46963 0.998678,-1.28978 0.984836,-1.38023 -0.14638,-0.95659 -0.952513,0.35672 -1.138187,0.17104 -0.781471,-0.78147 0.423642,-1.13122 0.333188,-1.14506 -0.956591,-0.14638 -1.346732,1.04278 -1.364278,1.02523 -0.321502,-0.3215 1.012702,-1.30789 0.989145,-1.38174 -0.287835,-0.90231 -1.180928,0.44337 -1.250563,0.35318 -0.46145,-0.59764 0.764905,-0.92166 0.72593,-1.11981 -0.220255,-1.11981 -2.254918,0 -1.935749,1.38807 1.028592,4.47335 2.310548,2.40482 3.152655,2.89666 3.631897,2.12123 0.343147,-0.55523 0.450832,-1.28954 0.2393,-1.6318 z m 14.514112,-0.61489 c 2.85437,-2.97083 3.141967,-4.34789 0.908049,-4.34789 -0.946186,0 -0.98516,0.19815 -0.220256,1.11981 0.789113,0.95082 0.719479,1.04101 -0.46145,0.59764 -1.276979,-0.47943 -1.300537,-0.40558 -0.287835,0.90231 1.042777,1.34673 1.025231,1.36428 -0.321502,0.3215 -1.289778,-0.99868 -1.380232,-0.98484 -0.956591,0.14638 0.356716,0.95251 0.171042,1.13819 -0.78147,0.78147 -1.131217,-0.42364 -1.145058,-0.33319 -0.146381,0.95659 0.996557,1.28704 0.990029,1.33641 -0.06766,0.51171 -1.346749,-1.05009 -2.220868,-0.52568 -1.641297,0.98466 0.563491,1.46843 0.764716,1.36853 3.976389,-1.97418 z m 82.547437,0.61489 c -0.21153,-0.34227 -0.9342,-0.19262 -1.60594,0.33255 -1.11571,0.87227 -1.12595,0.83166 -0.11836,-0.46963 0.99867,-1.28978 0.98483,-1.38023 -0.14638,-0.95659 -0.95251,0.35672 -1.13819,0.17104 -0.78147,-0.78147 0.42363,-1.13122 0.33318,-1.14506 -0.9566,-0.14638 -1.34673,1.04278 -1.36428,1.02523 -0.3215,-0.3215 1.01271,-1.30789 0.98915,-1.38174 -0.28783,-0.90231 -1.18093,0.44337 -1.25056,0.35318 -0.46145,-0.59764 0.7649,-0.92166 0.72593,-1.11981 -0.22026,-1.11981 -2.25492,0 -1.93575,1.38807 1.0286,4.47335 2.31055,2.40482 3.15265,2.89666 3.63189,2.12123 0.34315,-0.55523 0.45083,-1.28954 0.2393,-1.6318 z m 14.51412,-0.61489 c 2.85436,-2.97083 3.14196,-4.34789 0.90804,-4.34789 -0.94618,0 -0.98516,0.19815 -0.22025,1.11981 0.78911,0.95082 0.71947,1.04101 -0.46146,0.59764 -1.27697,-0.47943 -1.30053,-0.40558 -0.28783,0.90231 1.04278,1.34673 1.02523,1.36428 -0.3215,0.3215 -1.28978,-0.99868 -1.38023,-0.98484 -0.95659,0.14638 0.35671,0.95251 0.17104,1.13819 -0.78147,0.78147 -1.13122,-0.42364 -1.14506,-0.33319 -0.14638,0.95659 0.99655,1.28704 0.99003,1.33641 -0.0677,0.51171 -1.34675,-1.05009 -2.22087,-0.52568 -1.6413,0.98466 0.5635,1.46843 0.76471,1.36853 3.97639,-1.97418 z M 53.896975,141.00115 c 2.856967,-2.08392 4.676666,-6.32636 4.079315,-9.51051 -0.652235,-3.47671 -4.466093,-7.29057 -7.942804,-7.9428 -5.563136,-1.04365 -11.193221,3.77345 -11.193221,9.57693 0,7.72864 8.886278,12.37718 15.05671,7.87638 z m -8.806535,-1.80612 c -3.907665,-2.05364 -4.672377,-8.31992 -1.37905,-11.30034 2.252836,-2.03879 7.460247,-1.88354 9.630916,0.28713 2.254632,2.25463 2.341812,7.54409 0.160297,9.7256 -1.917563,1.91756 -6.018953,2.54535 -8.412163,1.28761 z m 7.766959,-1.32902 c 1.44224,-1.19695 2.027378,-5.12973 1.118788,-7.51951 -1.617736,-4.25497 -9.000999,-4.40467 -11.000047,-0.22304 -1.398321,2.92502 -0.353261,7.04709 2.1143,8.33952 2.013431,1.05457 6.161095,0.73578 7.766959,-0.59697 z m -7.031644,-2.16764 c -0.808846,-0.80884 -1.47063,-1.96697 -1.47063,-2.5736 0,-0.60663 0.661784,-1.76476 1.47063,-2.5736 0.808846,-0.80885 1.966967,-1.47063 2.573602,-1.47063 0.606634,0 1.764755,0.66178 2.573601,1.47063 0.808847,0.80884 1.47063,1.96697 1.47063,2.5736 0,1.42524 -2.618995,4.04423 -4.044231,4.04423 -0.606635,0 -1.764756,-0.66178 -2.573602,-1.47063 z m 4.727023,-0.42018 c 0.635522,-0.63552 1.155495,-1.60456 1.155495,-2.15342 0,-1.28746 -2.021453,-3.30892 -3.308916,-3.30892 -0.548861,0 -1.5179,0.51998 -2.153422,1.1555 -0.635522,0.63552 -1.155495,1.60456 -1.155495,2.15342 0,0.54886 0.519973,1.5179 1.155495,2.15342 0.635522,0.63552 1.604561,1.1555 2.153422,1.1555 0.54886,0 1.5179,-0.51998 2.153421,-1.1555 z m 100.405742,5.72296 c 2.85697,-2.08392 4.67667,-6.32636 4.07932,-9.51051 -0.65223,-3.47671 -4.46609,-7.29057 -7.94281,-7.9428 -5.56313,-1.04365 -11.19322,3.77345 -11.19322,9.57693 0,7.72864 8.88628,12.37718 15.05671,7.87638 z m -8.80653,-1.80612 c -3.90767,-2.05364 -4.67238,-8.31992 -1.37905,-11.30034 2.25284,-2.03879 7.46025,-1.88354 9.63091,0.28713 2.25464,2.25463 2.34182,7.54409 0.1603,9.7256 -1.91756,1.91756 -6.01895,2.54535 -8.41216,1.28761 z m 7.76696,-1.32902 c 1.44224,-1.19695 2.02737,-5.12973 1.11879,-7.51951 -1.61774,-4.25497 -9.001,-4.40467 -11.00005,-0.22304 -1.39832,2.92502 -0.35326,7.04709 2.1143,8.33952 2.01343,1.05457 6.16109,0.73578 7.76696,-0.59697 z m -7.03164,-2.16764 c -0.80885,-0.80884 -1.47063,-1.96697 -1.47063,-2.5736 0,-1.42524 2.61899,-4.04423 4.04423,-4.04423 1.42524,0 4.04423,2.61899 4.04423,4.04423 0,0.60663 -0.66179,1.76476 -1.47063,2.5736 -0.80885,0.80885 -1.96697,1.47063 -2.5736,1.47063 -0.60664,0 -1.76476,-0.66178 -2.5736,-1.47063 z m 4.72702,-0.42018 c 0.63552,-0.63552 1.15549,-1.60456 1.15549,-2.15342 0,-1.28746 -2.02145,-3.30892 -3.30891,-3.30892 -1.28747,0 -3.30892,2.02146 -3.30892,3.30892 0,1.28746 2.02145,3.30892 3.30892,3.30892 0.54886,0 1.5179,-0.51998 2.15342,-1.1555 z m -109.141723,0.70917 c 0,-0.15894 -0.496337,-0.28899 -1.102972,-0.28899 -0.606635,0 -1.102972,0.32051 -1.102972,0.71224 0,0.39173 0.496337,0.52177 1.102972,0.28899 0.606635,-0.23279 1.102972,-0.5533 1.102972,-0.71224 z m 22.059443,0.44633 c 0,-0.40443 -0.57906,-0.73025 -1.2868,-0.72406 -1.099698,0.01 -1.126427,0.1149 -0.183829,0.72406 1.387696,0.89679 1.470629,0.89679 1.470629,0 z m 75.00211,-0.44633 c 0,-0.15894 -0.49634,-0.28899 -1.10297,-0.28899 -0.60664,0 -1.10298,0.32051 -1.10298,0.71224 0,0.39173 0.49634,0.52177 1.10298,0.28899 0.60663,-0.23279 1.10297,-0.5533 1.10297,-0.71224 z m 22.05944,0.44633 c 0,-0.40443 -0.57906,-0.73025 -1.2868,-0.72406 -1.0997,0.01 -1.12643,0.1149 -0.18383,0.72406 1.38769,0.89679 1.47063,0.89679 1.47063,0 z M 37.538145,134.5188 c -0.244339,-0.24433 -0.878548,-0.27046 -1.409354,-0.0581 -0.586584,0.23473 -0.412347,0.40897 0.444253,0.44425 0.775144,0.0319 1.209439,-0.14186 0.965101,-0.3862 z m 23.530073,0 c -0.244339,-0.24433 -0.878548,-0.27046 -1.409354,-0.0581 -0.586585,0.23473 -0.412347,0.40897 0.444253,0.44425 0.775144,0.0319 1.209439,-0.14186 0.965101,-0.3862 z m 73.531482,0 c -0.24435,-0.24433 -0.87856,-0.27046 -1.40936,-0.0581 -0.58658,0.23473 -0.41235,0.40897 0.44426,0.44425 0.77514,0.0319 1.20944,-0.14186 0.9651,-0.3862 z m 23.53007,0 c -0.24434,-0.24433 -0.87855,-0.27046 -1.40936,-0.0581 -0.58658,0.23473 -0.41235,0.40897 0.44426,0.44425 0.77514,0.0319 1.20944,-0.14186 0.9651,-0.3862 z m -38.77254,-10.29648 c 0,-7.69835 0.21194,-9.92577 0.91915,-9.66 4.07461,1.53128 4.45769,1.50353 3.97809,-0.28819 -0.25589,-0.95599 -0.46979,-2.02174 -0.47531,-2.36833 -0.006,-0.34659 -0.54832,-0.4236 -1.20621,-0.17114 -0.6579,0.25245 -1.56785,0.15802 -2.02212,-0.20986 -0.45427,-0.36789 -1.48772,-0.85805 -2.29657,-1.08925 -0.90066,-0.25745 -0.68692,-0.32764 0.55149,-0.1811 1.11216,0.13161 2.02211,-0.0457 2.02211,-0.39406 0,-0.34834 -0.62265,-0.63335 -1.38365,-0.63335 -1.20532,0 -1.45077,-0.80562 -1.9043,-6.25018 -0.91743,-11.013647 -1.67305,-6.690012 -1.28777,7.36864 0.32973,12.03194 0.21949,13.95972 -0.94612,16.54458 l -1.31934,2.92577 H 91.721331 69.455992 l -3.542828,-6.7236 c -1.978649,-3.75509 -3.647792,-6.18993 -3.780572,-5.51486 -0.141431,0.71906 -0.951643,1.20874 -1.999955,1.20874 h -1.762211 l 1.632299,2.42137 c 0.897764,1.33175 2.455934,4.22705 3.462601,6.434 1.924528,4.21921 2.884111,5.18812 5.890502,5.94776 1.011058,0.25547 12.674988,0.50363 25.919846,0.55148 l 24.081556,0.087 z m -45.221856,8.53479 c -0.293504,-0.4749 -0.202752,-1.19434 0.201671,-1.59877 0.490209,-0.49021 0.913195,-0.44749 1.268958,0.12814 0.293504,0.4749 0.202752,1.19435 -0.201671,1.59877 -0.490209,0.49021 -0.913195,0.4475 -1.268958,-0.12814 z m 4.411888,0 c -0.293503,-0.4749 -0.202752,-1.19434 0.201672,-1.59877 0.490209,-0.49021 0.913195,-0.44749 1.268958,0.12814 0.293504,0.4749 0.202752,1.19435 -0.201671,1.59877 -0.490209,0.49021 -0.913196,0.4475 -1.268959,-0.12814 z m 4.411889,0 c -0.293504,-0.4749 -0.202752,-1.19434 0.201671,-1.59877 0.490209,-0.49021 0.913199,-0.44749 1.268959,0.12814 0.293501,0.4749 0.202755,1.19435 -0.201668,1.59877 -0.490212,0.49021 -0.913199,0.4475 -1.268962,-0.12814 z m 22.059439,0 c -0.2935,-0.4749 -0.20275,-1.19434 0.20167,-1.59877 0.49021,-0.49021 0.9132,-0.44749 1.26896,0.12814 0.2935,0.4749 0.20276,1.19435 -0.20166,1.59877 -0.49022,0.49021 -0.91321,0.4475 -1.26897,-0.12814 z m 4.41189,0 c -0.2935,-0.4749 -0.20275,-1.19434 0.20167,-1.59877 0.49021,-0.49021 0.9132,-0.44749 1.26896,0.12814 0.2935,0.4749 0.20276,1.19435 -0.20166,1.59877 -0.49022,0.49021 -0.91321,0.4475 -1.26897,-0.12814 z m 4.41189,0 c -0.2935,-0.4749 -0.20275,-1.19434 0.20167,-1.59877 0.49021,-0.49021 0.9132,-0.44749 1.26896,0.12814 0.2935,0.4749 0.20276,1.19435 -0.20167,1.59877 -0.49021,0.49021 -0.9132,0.4475 -1.26896,-0.12814 z m 15.78286,-5.36746 c 1.80537,-3.72088 3.42225,-7.06613 3.59308,-7.43389 0.17081,-0.36776 -0.2481,-0.45427 -0.93093,-0.19225 -0.68282,0.26202 -1.07871,0.21302 -0.87976,-0.1089 0.19896,-0.32191 -2.26554,-1.44661 -5.47667,-2.49932 l -5.8384,-1.91403 v 9.49324 9.49324 l 3.12509,-0.0364 3.12508,-0.0364 3.28251,-6.76523 z m 0.25858,5.9927 c 1.95102,-1.02694 2.68296,-2.04721 2.69783,-3.76064 0.0177,-2.03331 2.94885,-6.00138 5.83658,-7.90119 3.63028,-2.38832 10.57213,-2.45405 13.83455,-0.131 2.85158,2.0305 3.13489,2.0135 3.13489,-0.18809 0,-2.89496 -2.53522,-4.08593 -8.69774,-4.08593 -4.91539,0 -5.56611,0.17399 -6.87525,1.83829 -1.03825,1.31993 -2.15434,1.83829 -3.95802,1.83829 -2.40276,0 -2.64031,0.25514 -5.46149,5.86619 -3.75563,7.46959 -3.81795,8.26453 -0.51135,6.52408 z m -92.345665,-0.33418 c -0.244339,-0.24433 -0.878548,-0.27046 -1.409354,-0.0581 -0.586584,0.23473 -0.412347,0.40897 0.444253,0.44425 0.775144,0.0319 1.209439,-0.14186 0.965101,-0.3862 z m 23.530073,0 c -0.244339,-0.24433 -0.878548,-0.27046 -1.409354,-0.0581 -0.586585,0.23473 -0.412347,0.40897 0.444253,0.44425 0.775144,0.0319 1.209439,-0.14186 0.965101,-0.3862 z m 73.531482,0 c -0.24435,-0.24433 -0.87856,-0.27046 -1.40936,-0.0581 -0.58658,0.23473 -0.41235,0.40897 0.44426,0.44425 0.77514,0.0319 1.20944,-0.14186 0.9651,-0.3862 z m 23.53007,0 c -0.24434,-0.24433 -0.87855,-0.27046 -1.40936,-0.0581 -0.58658,0.23473 -0.41235,0.40897 0.44426,0.44425 0.77514,0.0319 1.20944,-0.14186 0.9651,-0.3862 z M 37.538145,131.57754 c -0.244339,-0.24433 -0.878548,-0.27046 -1.409354,-0.0581 -0.586584,0.23473 -0.412347,0.40897 0.444253,0.44425 0.775144,0.0319 1.209439,-0.14186 0.965101,-0.3862 z m 23.530073,0 c -0.244339,-0.24433 -0.878548,-0.27046 -1.409354,-0.0581 -0.586585,0.23473 -0.412347,0.40897 0.444253,0.44425 0.775144,0.0319 1.209439,-0.14186 0.965101,-0.3862 z m 73.531482,0 c -0.24435,-0.24433 -0.87856,-0.27046 -1.40936,-0.0581 -0.58658,0.23473 -0.41235,0.40897 0.44426,0.44425 0.77514,0.0319 1.20944,-0.14186 0.9651,-0.3862 z m 23.53007,0 c -0.24434,-0.24433 -0.87855,-0.27046 -1.40936,-0.0581 -0.58658,0.23473 -0.41235,0.40897 0.44426,0.44425 0.77514,0.0319 1.20944,-0.14186 0.9651,-0.3862 z M 27.442886,128.34522 c 0,-1.47063 -0.367658,-2.20594 -1.102973,-2.20594 -1.11294,0 -1.575305,2.95913 -0.612762,3.92168 1.054128,1.05413 1.715735,0.39252 1.715735,-1.71574 z m 11.029721,1.91696 c 0,-0.15894 -0.496337,-0.47945 -1.102972,-0.71224 -0.606635,-0.23278 -1.102972,-0.10274 -1.102972,0.28899 0,0.39173 0.496337,0.71224 1.102972,0.71224 0.606635,0 1.102972,-0.13005 1.102972,-0.28899 z m 22.059443,-0.42325 c 0,-0.39173 -0.496337,-0.52177 -1.102972,-0.28899 -0.606634,0.23279 -1.102972,0.5533 -1.102972,0.71224 0,0.15894 0.496338,0.28899 1.102972,0.28899 0.606635,0 1.102972,-0.32051 1.102972,-0.71224 z m 75.00211,0.42325 c 0,-0.15894 -0.49634,-0.47945 -1.10297,-0.71224 -0.60664,-0.23278 -1.10298,-0.10274 -1.10298,0.28899 0,0.39173 0.49634,0.71224 1.10298,0.71224 0.60663,0 1.10297,-0.13005 1.10297,-0.28899 z m 22.05944,-0.42325 c 0,-0.39173 -0.49634,-0.52177 -1.10297,-0.28899 -0.60664,0.23279 -1.10297,0.5533 -1.10297,0.71224 0,0.15894 0.49633,0.28899 1.10297,0.28899 0.60663,0 1.10297,-0.32051 1.10297,-0.71224 z M 22.937605,128.96822 c 1.245288,-0.7777 1.261317,-0.95972 0.194262,-2.20595 -1.826469,-2.13316 -3.737603,-1.7654 -3.449573,0.66381 0.131869,1.11216 0.27749,2.10484 0.323603,2.20594 0.204711,0.44885 1.687757,0.11306 2.931708,-0.6638 z m -2.510829,-0.67254 c -0.363732,-0.58853 -0.262567,-0.72654 0.284665,-0.38833 0.466909,0.28857 0.848926,0.20182 0.848926,-0.19277 0,-0.39459 -0.413614,-0.88433 -0.919143,-1.08832 -0.662744,-0.26742 -0.67485,-0.38707 -0.0434,-0.42893 1.255681,-0.0832 1.995571,1.40899 1.128525,2.27603 -0.490209,0.49021 -0.923402,0.43099 -1.299577,-0.17768 z m 9.222054,-1.05343 c 0,-2.43388 -0.12974,-2.56816 -2.389773,-2.47346 -1.72818,0.0724 -1.931747,0.18835 -0.735315,0.4188 1.266857,0.244 1.654458,0.82348 1.654458,2.47346 0,1.18514 0.330892,2.1548 0.735315,2.1548 0.404423,0 0.735315,-1.15812 0.735315,-2.5736 z m 6.158154,0.15887 c 0.923679,-0.92368 1.984037,-2.18113 2.356349,-2.79433 0.372313,-0.6132 1.807816,-1.90485 3.19001,-2.87034 5.326719,-3.72081 14.780282,-1.71323 18.057555,3.83475 0.65892,1.11546 1.858265,2.38146 2.665209,2.81332 1.337774,0.71596 1.294804,0.4408 -0.487212,-3.11979 -3.566458,-7.12603 -3.733093,-7.21391 -13.678388,-7.21391 h -8.688619 l -3.113811,3.30891 c -1.712596,1.81991 -3.701088,3.30892 -4.418871,3.30892 -0.959858,0 -1.305061,0.5835 -1.305061,2.20594 0,1.87331 0.282241,2.20595 1.87171,2.20595 1.029441,0 2.627448,-0.75574 3.551129,-1.67942 z m 2.57183,0.4353 c -0.707088,-0.87171 -0.730906,-1.07689 -0.07957,-0.68545 1.04771,0.62964 6.055879,-3.68538 6.055879,-5.21772 0,-1.69056 -1.374697,-0.99841 -4.779624,2.40652 -3.259899,3.2599 -3.677573,4.74077 -1.337119,4.74077 0.987271,0 1.007102,-0.17569 0.140432,-1.24412 z m 21.761612,0.54758 c 0.465866,-0.75378 -5.803137,-7.39192 -6.980874,-7.39192 -1.474471,0 -0.631725,1.96179 1.84717,4.29995 1.589969,1.4997 2.916086,2.20549 3.492745,1.85894 0.651339,-0.39144 0.62752,-0.18626 -0.07957,0.68545 -0.86667,1.06843 -0.846839,1.24412 0.140433,1.24412 0.632287,0 1.343329,-0.31344 1.580094,-0.69654 z m 54.164264,-0.95097 c 1.09523,-2.04645 1.45954,-4.97032 0.6193,-4.97032 -0.99615,0 -1.5412,1.31743 -0.66578,1.60924 0.46589,0.15529 0.14582,1.08654 -0.77641,2.25898 l -1.56909,1.99476 -20.905862,-0.005 -20.90587,-0.005 -1.892642,-3.73495 c -1.040953,-2.05423 -1.761061,-3.86653 -1.600238,-4.02736 0.160822,-0.16082 1.066859,1.3611 2.013416,3.38204 l 1.721014,3.67449 h 8.388852 8.388851 L 86.6511,125.47397 c -0.26911,-1.22527 -0.137268,-2.34105 0.30923,-2.617 1.121671,-0.69323 0.9988,-8.28035 -0.140776,-8.69304 -0.735315,-0.26629 -0.735315,-0.6442 0,-1.88958 1.1112,-1.882 1.270447,-14.077033 0.183828,-14.077033 -0.432541,0 -0.735314,2.573603 -0.735314,6.250173 v 6.25018 H 77.44429 68.620513 v -6.25018 c 0,-6.147925 -0.02957,-6.250173 -1.80715,-6.250173 -1.597654,0 -1.981243,0.584574 -3.308917,5.042653 -1.762428,5.9179 -1.861858,8.75806 -0.375409,10.72333 0.593774,0.78503 1.07452,1.77771 1.068327,2.20594 -0.0062,0.42823 -0.362275,0.28227 -0.791295,-0.32437 -1.448639,-2.04838 -0.317496,0.54515 3.0085,6.89801 l 3.308916,6.32023 21.849746,0.009 21.849739,0.009 0.88172,-1.64751 z m -41.272288,-3.13204 c 0.949839,-1.01106 1.389694,-1.83828 0.977455,-1.83828 -0.412239,0 -1.3714,0.68716 -2.131468,1.52702 l -1.381942,1.52703 -0.482645,-1.80467 c -0.265454,-0.99258 -0.273924,-3.70198 -0.01882,-6.02091 0.463046,-4.20919 0.466162,-4.21364 1.864587,-2.66361 0.770422,0.85394 1.742281,1.55262 2.159687,1.55262 0.417407,0 -0.192122,-0.99268 -1.354508,-2.20595 L 70.55132,112.1683 h 7.260632 7.26063 l -2.113427,2.20594 c -2.417477,2.5233 -1.69989,3.02307 0.871753,0.60714 l 1.701849,-1.5988 v 6.13887 6.13887 l -1.701849,-1.59881 c -2.353472,-2.21097 -3.358969,-2.01668 -1.23941,0.23948 l 1.726982,1.83829 h -6.506528 -6.506527 z m 7.38485,-1.04414 -2.5419,-2.10755 -2.421475,1.84695 c -1.331812,1.01582 -2.421475,1.97312 -2.421475,2.12733 0,0.15421 2.233518,0.27148 4.963374,0.2606 l 4.963375,-0.0198 -2.541899,-2.10755 z m -5.770711,-1.14607 c 0.600328,0.23037 1.522854,-0.10089 2.050058,-0.73613 0.870078,-1.04838 1.080287,-1.04482 2.277417,0.0386 0.725375,0.65646 1.691457,0.96328 2.146848,0.68184 0.455392,-0.28145 1.468917,0.0683 2.252277,0.77724 1.394318,1.26184 1.424297,1.19291 1.424297,-3.2743 v -4.56328 l -2.573602,1.96299 c -2.777428,2.11845 -2.959378,2.49896 -1.840912,3.84994 0.402978,0.48675 0.176927,0.39778 -0.502337,-0.19771 -1.153858,-1.01155 -1.146196,-1.18086 0.116591,-2.57622 1.571972,-1.73702 0.722287,-2.02364 -1.102757,-0.372 -1.110682,1.00515 -1.335846,1.00515 -2.170049,0 -0.51193,-0.61684 -1.272442,-1.12152 -1.690026,-1.12152 -0.417584,0 -0.151017,0.67208 0.592371,1.49352 1.312491,1.45028 1.311634,1.5301 -0.02959,2.75743 -1.316768,1.20494 -1.333019,1.20028 -0.348331,-0.1 0.930573,-1.22879 0.780923,-1.57021 -1.510901,-3.44705 l -2.543781,-2.08317 -0.490121,3.07939 c -0.269565,1.69367 -0.322321,3.68262 -0.117234,4.41989 0.342997,1.23305 0.476902,1.24637 1.670582,0.1661 0.713732,-0.64592 1.788872,-0.98591 2.389199,-0.75555 z m 8.680267,-8.9013 c 0,-0.16823 -2.56441,-0.29344 -5.698689,-0.27826 l -5.69869,0.0276 2.908028,2.48851 2.908029,2.4885 2.790661,-2.21024 c 1.534864,-1.21564 2.790661,-2.34789 2.790661,-2.51612 z m -18.371154,5.59854 c -1.182153,-2.20887 -0.07493,-4.43378 2.206458,-4.43378 1.837656,0 2.046653,0.25549 2.046653,2.50194 0,2.06712 -0.311227,2.56143 -1.790792,2.84427 -1.191643,0.2278 -2.015467,-0.0775 -2.462319,-0.91243 z m 3.664859,-0.7572 c 0,-0.40443 -0.744506,-0.78038 -1.654458,-0.83545 l -1.654459,-0.10014 1.654459,-0.31866 c 2.015887,-0.38828 2.204579,-1.68701 0.245104,-1.68701 -1.498931,0 -2.270031,1.24155 -1.712575,2.75743 0.400372,1.08872 3.121929,1.24897 3.121929,0.18383 z m 66.819847,9.7856 c -0.70709,-0.87171 -0.7309,-1.07689 -0.0796,-0.68545 1.04771,0.62964 6.05588,-3.68538 6.05588,-5.21772 0,-1.69056 -1.3747,-0.99841 -4.77963,2.40652 -3.2599,3.2599 -3.67758,4.74077 -1.33712,4.74077 0.98727,0 1.0071,-0.17569 0.14043,-1.24412 z m 21.75418,0.55961 c 0.73674,-1.19207 -0.8642,-1.55432 -1.8136,-0.41037 -0.73882,0.89023 -0.69378,1.09488 0.24094,1.09488 0.63229,0 1.33998,-0.30803 1.57266,-0.68451 z m 1.86969,-1.52144 c 0,-0.81701 -0.49021,-1.47063 -1.10297,-1.47063 -1.32959,0 -1.42152,0.85797 -0.2206,2.05889 1.18665,1.18664 1.32357,1.12578 1.32357,-0.58826 z m 2.20594,0 c 0,-0.80884 -0.33089,-1.47063 -0.73531,-1.47063 -0.40442,0 -0.73531,0.66179 -0.73531,1.47063 0,0.80885 0.33089,1.47063 0.73531,1.47063 0.40442,0 0.73531,-0.66178 0.73531,-1.47063 z m -72.205568,-1.47063 c -0.149284,-1.9591 -2.06122,-3.32323 -2.06122,-1.47062 0,0.40442 0.299913,0.73531 0.666475,0.73531 0.366562,0 0.493418,0.66178 0.281898,1.47063 -0.217396,0.83131 -0.02258,1.47063 0.448174,1.47063 0.472432,0 0.760029,-0.9545 0.664673,-2.20595 z m 23.473228,1.28681 c 0.40899,-0.52663 0.68295,-6.72349 0.64153,-14.51077 -0.0656,-12.325653 -0.19216,-13.614864 -1.3591,-13.841073 -1.14486,-0.221928 -1.2868,0.445936 -1.2868,6.054653 v 6.30409 h -8.82378 -8.823779 v -6.30409 c 0,-5.607898 -0.142107,-6.276786 -1.286801,-6.056803 -1.165518,0.223986 -1.305588,1.615136 -1.486174,14.760213 l -0.199374,14.51292 h 10.955238 c 7.89326,0 11.15474,-0.2569 11.66904,-0.91914 z m -20.387244,-3.44391 c 0,-2.59089 0.2108,-2.92435 2.022115,-3.19874 1.940592,-0.29398 1.928738,-0.31077 -0.294126,-0.4165 -2.135935,-0.1016 -2.316241,-0.31051 -2.316241,-2.68378 0,-2.36142 0.17938,-2.5736 2.175811,-2.5736 1.532903,0 2.019314,-0.27159 1.646186,-0.91914 -0.291295,-0.50553 0.28956,-0.17464 1.290794,0.73531 2.469745,2.24459 3.507395,2.10412 1.357979,-0.18382 l -1.726982,-1.83829 h 6.746008 c 6.65855,0 7.59404,0.32847 5.86363,2.05888 -1.34965,1.34966 0.21415,1.0496 1.74363,-0.33456 1.29288,-1.17004 1.34469,-0.9717 1.34469,5.1472 0,3.50028 -0.27961,6.36414 -0.62134,6.36414 -0.34175,0 -1.22026,-0.66178 -1.95226,-1.47062 -0.732,-0.80885 -1.66179,-1.47063 -2.06622,-1.47063 -0.40442,0 -0.18769,0.60511 0.48163,1.3447 0.66932,0.73958 1.21694,1.56681 1.21694,1.83828 0,0.27148 -3.16301,0.49359 -7.02889,0.49359 -4.498681,0 -6.865299,-0.26469 -6.574438,-0.73532 0.249948,-0.40442 0.123555,-0.73531 -0.280868,-0.73531 -0.404423,0 -0.939813,0.33089 -1.189761,0.73531 -0.985109,1.59394 -1.838287,0.59279 -1.838287,-2.1571 z m 8.281654,-3.59053 c 0.68536,-0.82582 0.49014,-1.34128 -0.952353,-2.51451 l -1.81444,-1.47576 -0.254287,1.74386 c -0.336884,2.31035 -1.453372,3.58216 -3.144662,3.58216 -1.050015,0 -1.380597,0.53915 -1.380597,2.25163 v 2.25163 l 3.342123,-2.40013 c 1.838169,-1.32007 3.730061,-2.86757 4.204216,-3.43888 z m 5.3549,3.20391 -2.90802,-2.4885 -2.71265,2.14845 c -1.491958,1.18165 -2.958102,2.14846 -3.258096,2.14846 -0.300001,0 0.905739,-1.1236 2.679413,-2.49689 2.808533,-2.17455 3.374733,-2.36441 4.385733,-1.47063 1.68924,1.49336 2.58547,1.25775 1.16908,-0.30735 -0.96217,-1.06318 -1.02255,-1.52725 -0.2978,-2.28859 0.73559,-0.77271 0.61314,-0.86586 -0.64154,-0.48807 -0.97017,0.29212 -1.89846,0.0478 -2.4798,-0.65267 -0.51105,-0.61577 -1.27082,-1.11958 -1.68841,-1.11958 -0.417585,0 -0.128901,0.69873 0.64152,1.55274 1.39245,1.54352 1.38209,1.56885 -1.74647,4.26719 -1.730983,1.49294 -2.916678,2.94501 -2.634883,3.22681 0.281802,0.28179 3.187067,0.49993 6.456163,0.48475 l 5.94379,-0.0276 z m 5.48163,-3.38448 v -5.1929 l -3.30962,2.37679 c -3.00125,2.15534 -3.20664,2.49058 -2.20434,3.59811 0.6079,0.67172 0.86648,1.46012 0.5746,1.75199 -0.29187,0.29188 -0.0235,0.33608 0.59628,0.0982 0.64062,-0.24583 1.71143,0.21338 2.48132,1.06411 0.74491,0.82311 1.46854,1.49656 1.60807,1.49656 0.13952,0 0.25369,-2.3368 0.25369,-5.19289 z m -14.757981,-2.71174 c -0.03934,-2.10037 -0.187454,-2.4098 -0.621466,-1.29855 -0.52536,1.34512 -0.26386,4.05598 0.391254,4.05598 0.155041,0 0.258639,-1.24085 0.230212,-2.75743 z m -1.418944,1.2868 c 0,-0.40443 -0.661783,-0.73532 -1.47063,-0.73532 -0.808846,0 -1.470629,0.33089 -1.470629,0.73532 0,0.40442 0.661783,0.73531 1.470629,0.73531 0.808847,0 1.47063,-0.33089 1.47063,-0.73531 z m 12.622555,-2.03403 c 0.97436,-0.97435 -0.092,-1.27133 -1.2774,-0.35575 -0.39271,0.30332 0.12017,-0.19137 1.13974,-1.09932 l 1.85374,-1.6508 -5.88252,0.0161 -5.882513,0.0161 2.524493,2.09334 c 2.65792,2.20399 5.88087,2.62387 7.52446,0.98028 z m -12.622555,-0.17192 c 0,-0.40442 -0.661783,-0.73531 -1.47063,-0.73531 -0.808846,0 -1.470629,0.33089 -1.470629,0.73531 0,0.40443 0.661783,0.73532 1.470629,0.73532 0.808847,0 1.47063,-0.33089 1.47063,-0.73532 z m 60.713935,10.94808 c 0.48437,-0.78374 -4.44456,-5.80087 -5.6989,-5.80087 -1.29503,0 -0.49026,1.87565 1.78803,4.16732 2.61624,2.63161 3.15496,2.85663 3.91087,1.63355 z m 6.05265,-3.00668 c 1.08669,-1.08669 1.22081,-12.35329 0.14706,-12.35329 -0.42083,0 -0.73532,2.22206 -0.73532,5.19555 0,2.85755 -0.34253,5.83557 -0.76118,6.61783 -0.84554,1.57991 -0.0206,1.90997 1.34944,0.53991 z M 25.774259,114.16823 c -0.154214,-1.7066 -0.278555,-0.12488 -0.276314,3.51493 0.0022,3.63981 0.128415,5.03611 0.280388,3.1029 0.151972,-1.93321 0.150139,-4.91124 -0.004,-6.61783 z m 10.23842,6.45619 3.1705,-3.30892 h 8.689086 c 5.941436,0 8.997174,0.29065 9.663378,0.91915 0.786284,0.74177 0.910139,0.7063 0.641842,-0.18383 -0.182847,-0.60664 -1.216883,-1.20768 -2.297859,-1.33565 -1.372473,-0.16247 -1.965409,-0.6616 -1.965409,-1.65445 0,-1.165 0.523393,-1.42179 2.897864,-1.42179 1.593824,0 3.124198,0.36622 3.40083,0.81382 0.350622,0.56731 0.69444,0.51163 1.135109,-0.18383 0.347677,-0.54871 0.63214,-0.66676 0.63214,-0.26233 0,0.40442 -0.279776,1.17667 -0.621725,1.71611 -0.500579,0.78968 -0.70881,0.75386 -1.068635,-0.18383 -0.497303,-1.29595 -5.640268,-1.68741 -5.640268,-0.42931 0,0.40442 0.621268,0.73531 1.380594,0.73531 0.759327,0 1.792518,0.49634 2.29598,1.10297 1.35774,1.63598 2.595269,1.34425 3.593747,-0.84717 0.619428,-1.3595 0.655176,-2.18352 0.118029,-2.72067 -1.19596,-1.19596 -0.819051,-5.5253 0.937698,-10.77079 l 1.600702,-4.77955 11.922019,-0.201915 11.922018,-0.201915 0.24061,7.18741 0.24061,7.1874 0.153894,-7.55434 0.153894,-7.55434 -12.68418,0.201192 -12.68418,0.201193 -1.649946,4.779545 c -0.90747,2.62875 -1.448832,3.62143 -1.203025,2.20595 0.245807,-1.41549 0.888675,-3.649 1.428596,-4.963379 0.767206,-1.867671 0.782066,-2.389774 0.06802,-2.389774 -1.315986,0 -2.565243,6.987893 -2.136151,11.948863 0.308048,3.56151 0.177461,4.22806 -0.828326,4.22806 -1.598225,0 -1.53658,-3.09808 0.21581,-10.84589 0.754643,-3.336491 1.220732,-6.066347 1.035753,-6.066347 -0.184979,0 -0.976356,0.342533 -1.758614,0.761186 -1.25238,0.670252 -1.42229,1.592595 -1.42229,7.720801 v 6.95962 h -15.44161 -15.44161 v 6.25018 6.25018 h 3.067304 c 2.675411,0 3.472384,-0.42277 6.237804,-3.30892 z m -6.734716,1.83309 c -0.584059,-0.94503 1.481347,-1.76098 2.991074,-1.18164 1.473402,0.5654 0.66197,1.92215 -1.149578,1.92215 -0.76111,0 -1.589784,-0.33323 -1.841496,-0.74051 z m 2.76064,-0.48179 c -0.505529,-0.20398 -1.332758,-0.20398 -1.838287,0 -0.505529,0.20399 -0.09191,0.37088 0.919143,0.37088 1.011058,0 1.424673,-0.16689 0.919144,-0.37088 z m -4.267657,-2.51834 c -0.757758,-1.22608 0.946503,-2.63207 1.960877,-1.6177 0.848498,0.8485 0.317451,2.41708 -0.818308,2.41708 -0.356687,0 -0.870843,-0.35972 -1.142569,-0.79938 z m 1.877884,-0.67125 c 0,-0.40442 -0.330892,-0.73531 -0.735315,-0.73531 -0.404423,0 -0.735315,0.33089 -0.735315,0.73531 0,0.40442 0.330892,0.73532 0.735315,0.73532 0.404423,0 0.735315,-0.3309 0.735315,-0.73532 z m -1.47063,-4.77954 v -1.83829 h 12.132694 12.132694 v 1.83829 1.83828 H 40.310894 28.1782 Z m 17.414544,7.58293 c -0.234732,-0.58659 -0.40897,-0.41235 -0.444253,0.44425 -0.03193,0.77515 0.141863,1.20944 0.386202,0.9651 0.244339,-0.24434 0.270462,-0.87855 0.05805,-1.40935 z m 5.882518,0 c -0.234731,-0.58659 -0.408969,-0.41235 -0.444253,0.44425 -0.03193,0.77515 0.141863,1.20944 0.386202,0.9651 0.244339,-0.24434 0.270462,-0.87855 0.05805,-1.40935 z m 91.179028,0 c -0.23473,-0.58659 -0.40897,-0.41235 -0.44425,0.44425 -0.0319,0.77515 0.14186,1.20944 0.38621,0.9651 0.24433,-0.24434 0.27045,-0.87855 0.058,-1.40935 z m 5.88252,0 c -0.23473,-0.58659 -0.40897,-0.41235 -0.44425,0.44425 -0.0319,0.77515 0.14186,1.20944 0.3862,0.9651 0.24434,-0.24434 0.27046,-0.87855 0.058,-1.40935 z M 47.063374,120.8542 c -0.234732,-0.58658 -0.40897,-0.41234 -0.444253,0.44426 -0.03193,0.77514 0.141862,1.20944 0.386202,0.9651 0.244338,-0.24434 0.270462,-0.87855 0.05805,-1.40936 z m 1.470629,0 c -0.234731,-0.58658 -0.408969,-0.41234 -0.444253,0.44426 -0.03193,0.77514 0.141863,1.20944 0.386202,0.9651 0.244339,-0.24434 0.270462,-0.87855 0.05805,-1.40936 z m 1.47063,0 c -0.234732,-0.58658 -0.40897,-0.41234 -0.444253,0.44426 -0.03193,0.77514 0.141863,1.20944 0.386202,0.9651 0.244338,-0.24434 0.270462,-0.87855 0.05805,-1.40936 z m 39.132081,-3.5387 c -0.109606,-3.75362 -0.418747,-5.1472 -1.141811,-5.1472 -0.545339,0 -0.991521,0.33089 -0.991521,0.73531 0,0.40443 0.330892,0.73532 0.735315,0.73532 0.408512,0 0.735315,1.96084 0.735315,4.41189 0,2.42654 0.182924,4.41189 0.406497,4.41189 0.223572,0 0.338862,-2.31625 0.256205,-5.14721 z m 54.988206,3.5387 c -0.23473,-0.58658 -0.40897,-0.41234 -0.44425,0.44426 -0.0319,0.77514 0.14186,1.20944 0.38621,0.9651 0.24433,-0.24434 0.27045,-0.87855 0.058,-1.40936 z m 1.47063,0 c -0.23473,-0.58658 -0.40897,-0.41234 -0.44425,0.44426 -0.0319,0.77514 0.14186,1.20944 0.3862,0.9651 0.24434,-0.24434 0.27046,-0.87855 0.058,-1.40936 z m 1.47063,0 c -0.23473,-0.58658 -0.40897,-0.41234 -0.44425,0.44426 -0.0319,0.77514 0.14186,1.20944 0.3862,0.9651 0.24434,-0.24434 0.27046,-0.87855 0.058,-1.40936 z m -31.46256,-3.90636 c -0.11111,-3.43204 -0.43302,-4.77954 -1.14182,-4.77954 -0.5429,0 -0.98709,0.33089 -0.98709,0.73531 0,0.40443 0.24817,0.73487 0.55149,0.73432 0.30332,-5.6e-4 0.43814,1.81935 0.2996,4.04423 -0.16784,2.69552 0.0291,4.04523 0.59034,4.04523 0.56223,0 0.79078,-1.58889 0.68748,-4.77955 z m 42.7253,3.44432 c 0,-0.79204 -1.19654,-2.00772 -2.94126,-2.98831 -1.6177,-0.90919 -2.94126,-1.5165 -2.94126,-1.34957 0,0.55272 4.76897,5.59159 5.33103,5.63274 0.30332,0.0222 0.55149,-0.56048 0.55149,-1.29486 z m -19.26525,-1.01778 c 1.40796,-1.40796 1.03601,-2.05888 -1.17651,-2.05888 -1.98457,0 -3.82363,1.13173 -3.82363,2.35301 0,0.92372 4.01868,0.68733 5.00014,-0.29413 z m -4.26483,-1.69122 c 0.70287,-0.8469 2.63579,-1.10297 8.32556,-1.10297 5.8488,0 7.22032,-0.18986 6.50912,-0.90106 -0.49558,-0.49558 -3.29161,-1.13694 -6.21341,-1.42525 -2.92179,-0.28831 -6.66351,-0.74624 -8.31494,-1.01762 -2.8558,-0.4693 -3.04935,-0.3805 -3.95937,1.81649 -0.52624,1.27045 -1.1021,2.1646 -1.2797,1.98701 -0.17759,-0.1776 0.19784,-1.3299 0.83429,-2.56067 1.31399,-2.54097 1.40653,-3.04611 0.55807,-3.04611 -0.63199,0 -3.31394,5.15582 -2.89821,5.57156 0.42674,0.42673 3.83572,1.68673 4.6941,1.73498 0.45601,0.0256 1.24103,-0.44973 1.74449,-1.05636 z m 22.79476,-0.40736 c -3.89682,-2.65859 -7.5414,-3.91334 -12.86801,-4.43021 l -5.88252,-0.5708 5.94912,0.18603 c 4.86397,0.15209 6.59095,0.54475 9.46788,2.15269 4.09576,2.28917 4.06885,2.28301 4.06885,0.93121 0,-2.01385 -8.602,-4.16242 -20.95648,-5.23442 -12.73371,-1.10491 -15.07395,-1.12242 -15.07395,-0.1128 0,0.36163 0.48574,0.47111 1.07942,0.2433 0.59369,-0.22782 1.29153,-0.071 1.55077,0.34843 0.25924,0.41946 1.84157,0.67842 3.51629,0.57546 1.67473,-0.10295 3.54129,0.006 4.14793,0.2428 2.69821,1.05187 8.3033,2.03144 11.62382,2.03144 2.5094,0 4.19445,0.45228 5.49427,1.47472 1.29029,1.01494 1.96688,1.19852 2.17012,0.58879 0.20635,-0.61906 1.05586,-0.41714 2.82007,0.67031 2.52754,1.55794 4.97013,2.32055 2.89242,0.90305 z m -29.08524,-2.82361 1.10043,-2.128 -2.60081,-0.30363 c -2.32896,-0.27189 -2.55835,-0.14554 -2.19456,1.20886 0.22344,0.83186 0.41077,1.92609 0.41629,2.43162 0.0188,1.72111 2.17453,0.92629 3.27865,-1.20885 z m -12.8277,-5.8526 c 0,-1.55837 -0.21259,-4.86729 -0.47241,-7.35315 l -0.4724,-4.519753 h -12.39561 c -6.817582,0 -12.396091,0.248169 -12.396702,0.551487 -6.02e-4,0.303317 4.991251,0.451882 11.093012,0.330144 7.70461,-0.153717 11.41175,0.04228 12.1338,0.641522 0.74463,0.617994 1.03968,2.61102 1.03968,7.023 0,3.61655 0.30362,6.16014 0.73531,6.16014 0.40443,0 0.73532,-1.27502 0.73532,-2.83339 z m -58.825183,-4.80874 c 0,-5.896668 0.1882,-6.980168 1.2868,-7.408322 0.707741,-0.275824 14.519263,-0.463332 30.692274,-0.416683 20.792609,0.05997 29.176189,-0.144462 28.622669,-0.697975 -0.53281,-0.532822 -9.51205,-0.718395 -28.118956,-0.58113 -15.034891,0.110913 -27.336036,-0.04651 -27.335876,-0.349826 1.6e-4,-0.303317 -8.271999,-0.551486 -18.382577,-0.551486 h -18.38287 v 8.456122 8.45612 H 41.046209 56.855477 Z M 28.1782,102.60921 v -6.617837 h 11.029722 11.029722 v 6.617837 6.61783 H 39.207922 28.1782 Z m 21.324129,0 V 96.726687 H 39.207922 28.913515 v 5.882523 5.88251 H 39.207922 49.502329 Z M 36.266663,100.0356 c 0,-1.610685 0.318636,-1.838283 2.573602,-1.838283 2.254965,0 2.573601,0.227598 2.573601,1.838283 0,1.61069 -0.318636,1.83829 -2.573601,1.83829 -2.254966,0 -2.573602,-0.2276 -2.573602,-1.83829 z m 4.411889,0 c 0,-0.68629 -0.694464,-1.102968 -1.838287,-1.102968 -1.143824,0 -1.838287,0.416678 -1.838287,1.102968 0,0.6863 0.694463,1.10298 1.838287,1.10298 1.143823,0 1.838287,-0.41668 1.838287,-1.10298 z m 18.892435,7.91863 c -0.186434,-0.71544 -0.351232,-0.30812 -0.366217,0.90515 -0.01499,1.21327 0.137551,1.79863 0.338971,1.3008 0.20142,-0.49784 0.21368,-1.49051 0.02724,-2.20595 z m 11.25547,1.68386 c 0,-0.17834 -0.330891,-0.52876 -0.735314,-0.77871 -0.404424,-0.24995 -0.735315,-0.10403 -0.735315,0.32426 0,0.42829 0.330891,0.77871 0.735315,0.77871 0.404423,0 0.735314,-0.14591 0.735314,-0.32426 z m 3.125088,-0.16272 c -0.505529,-0.20399 -1.332758,-0.20399 -1.838287,0 -0.505529,0.20398 -0.09191,0.37088 0.919144,0.37088 1.011057,0 1.424672,-0.1669 0.919143,-0.37088 z m 3.293598,0.0427 c -0.244339,-0.24434 -0.878548,-0.27046 -1.409354,-0.0581 -0.586585,0.23474 -0.412347,0.40897 0.444253,0.44426 0.775144,0.0319 1.209439,-0.14187 0.965101,-0.3862 z m 2.941259,0 c -0.244339,-0.24434 -0.878548,-0.27046 -1.409354,-0.0581 -0.586585,0.23474 -0.412347,0.40897 0.444253,0.44426 0.775144,0.0319 1.209439,-0.14187 0.965101,-0.3862 z m 2.941259,0 c -0.244339,-0.24434 -0.878548,-0.27046 -1.409354,-0.0581 -0.586584,0.23474 -0.412346,0.40897 0.444253,0.44426 0.775144,0.0319 1.209441,-0.14187 0.965101,-0.3862 z m 2.405092,-0.29106 c 0,-0.40442 -0.145916,-0.73532 -0.324259,-0.73532 -0.178344,0 -0.528765,0.3309 -0.778713,0.73532 -0.249949,0.40442 -0.104033,0.73531 0.324259,0.73531 0.428291,0 0.778713,-0.33089 0.778713,-0.73531 z m 9.559092,0.41105 c 0,-0.17834 -0.330892,-0.52876 -0.735315,-0.77871 -0.404423,-0.24995 -0.735315,-0.10403 -0.735315,0.32426 0,0.42829 0.330892,0.77871 0.735315,0.77871 0.404423,0 0.735315,-0.14591 0.735315,-0.32426 z m 3.125088,-0.16272 c -0.505529,-0.20399 -1.332758,-0.20399 -1.838287,0 -0.505529,0.20398 -0.09192,0.37088 0.919143,0.37088 1.011058,0 1.424673,-0.1669 0.919144,-0.37088 z m 3.293597,0.0427 c -0.24434,-0.24434 -0.87855,-0.27046 -1.40935,-0.0581 -0.586586,0.23474 -0.412353,0.40897 0.44425,0.44426 0.77514,0.0319 1.20944,-0.14187 0.9651,-0.3862 z m 2.94126,0 c -0.24434,-0.24434 -0.87855,-0.27046 -1.40935,-0.0581 -0.58659,0.23474 -0.41235,0.40897 0.44425,0.44426 0.77514,0.0319 1.20944,-0.14187 0.9651,-0.3862 z m 2.94126,0 c -0.24434,-0.24434 -0.87855,-0.27046 -1.40936,-0.0581 -0.58658,0.23474 -0.41234,0.40897 0.44426,0.44426 0.77514,0.0319 1.20944,-0.14187 0.9651,-0.3862 z m 2.40509,-0.29106 c 0,-0.40442 -0.14592,-0.73532 -0.32426,-0.73532 -0.17834,0 -0.52876,0.3309 -0.77871,0.73532 -0.24995,0.40442 -0.10403,0.73531 0.32426,0.73531 0.42829,0 0.77871,-0.33089 0.77871,-0.73531 z m 32.35385,0 c 0,-0.40442 -0.49634,-0.73532 -1.10297,-0.73532 -0.60664,0 -1.10297,0.3309 -1.10297,0.73532 0,0.40442 0.49633,0.73531 1.10297,0.73531 0.60663,0 1.10297,-0.33089 1.10297,-0.73531 z m -58.089867,-5.1472 V 99.667947 H 77.44429 70.826457 v 4.411893 4.41188 h 6.617833 6.617833 z m 24.265387,0 v -4.411893 h -6.61783 -6.617835 v 4.411893 4.41188 h 6.617835 6.61783 z m 11.76504,-1.47063 c 0,-4.738699 -0.21447,-5.882523 -1.10297,-5.882523 -1.23612,0 -1.30506,0.792124 -0.63057,7.245283 0.67207,6.43003 1.73354,5.5956 1.73354,-1.36276 z m 3.67657,-1.47063 c 0,-7.020633 -0.0711,-7.353152 -1.57175,-7.353152 -1.52295,0 -1.55587,0.195642 -1.06051,6.300672 0.54735,6.74585 0.93746,8.40562 1.97562,8.40562 0.36115,0 0.65664,-3.30891 0.65664,-7.35314 z m -1.48877,2.79161 c -0.19507,-1.9022 -0.0828,-3.18665 0.24955,-2.85433 0.33233,0.33233 0.49194,1.88868 0.35468,3.45856 l -0.24955,2.85433 z m -52.422218,0.0118 c -0.234732,-0.58658 -0.40897,-0.41234 -0.444253,0.44426 -0.03193,0.77514 0.141862,1.20944 0.386202,0.9651 0.244338,-0.24434 0.270462,-0.87855 0.05805,-1.40936 z m 15.441607,0 c -0.234727,-0.58658 -0.408967,-0.41234 -0.444248,0.44426 -0.03191,0.77514 0.141857,1.20944 0.386202,0.9651 0.244338,-0.24434 0.270456,-0.87855 0.05802,-1.40936 z m 8.823777,0 c -0.234727,-0.58658 -0.408967,-0.41234 -0.444248,0.44426 -0.03191,0.77514 0.141857,1.20944 0.386202,0.9651 0.244338,-0.24434 0.270457,-0.87855 0.05802,-1.40936 z m 15.441614,0 c -0.23473,-0.58658 -0.40897,-0.41234 -0.44425,0.44426 -0.0319,0.77514 0.14186,1.20944 0.3862,0.9651 0.24434,-0.24434 0.27046,-0.87855 0.058,-1.40936 z M 69.858132,101.0007 c -0.234732,-0.58658 -0.40897,-0.41234 -0.444253,0.44426 -0.03193,0.77514 0.141862,1.20944 0.386202,0.9651 0.244338,-0.24434 0.270462,-0.87855 0.05805,-1.40936 z m 15.441607,0 c -0.234727,-0.58658 -0.408967,-0.41234 -0.444248,0.44426 -0.03191,0.77514 0.141857,1.20944 0.386202,0.9651 0.244338,-0.24434 0.270456,-0.87855 0.05802,-1.40936 z m 8.823777,0 c -0.234727,-0.58658 -0.408967,-0.41234 -0.444248,0.44426 -0.03191,0.77514 0.141857,1.20944 0.386202,0.9651 0.244338,-0.24434 0.270457,-0.87855 0.05802,-1.40936 z m 15.441614,0 c -0.23473,-0.58658 -0.40897,-0.41234 -0.44425,0.44426 -0.0319,0.77514 0.14186,1.20944 0.3862,0.9651 0.24434,-0.24434 0.27046,-0.87855 0.058,-1.40936 z M 70.4588,98.932632 c 0.249947,-0.404423 0.104029,-0.735315 -0.324261,-0.735315 -0.428291,0 -0.778711,0.330892 -0.778711,0.735315 0,0.404423 0.145917,0.735315 0.324261,0.735315 0.178344,0 0.528763,-0.330892 0.778711,-0.735315 z m 15.073953,0 c 0,-0.404423 -0.350422,-0.735315 -0.778713,-0.735315 -0.428292,0 -0.574208,0.330892 -0.324259,0.735315 0.249948,0.404423 0.600369,0.735315 0.778713,0.735315 0.178343,0 0.324259,-0.330892 0.324259,-0.735315 z m 9.191434,0 c 0.249949,-0.404423 0.104033,-0.735315 -0.324259,-0.735315 -0.428291,0 -0.778713,0.330892 -0.778713,0.735315 0,0.404423 0.145916,0.735315 0.324259,0.735315 0.178344,0 0.528765,-0.330892 0.778713,-0.735315 z m 15.073953,0 c 0,-0.404423 -0.35042,-0.735315 -0.77871,-0.735315 -0.42829,0 -0.57421,0.330892 -0.32426,0.735315 0.24995,0.404423 0.60037,0.735315 0.77871,0.735315 0.17834,0 0.32426,-0.330892 0.32426,-0.735315 z M 73.951545,98.445647 c -0.505529,-0.203985 -1.332758,-0.203985 -1.838287,0 -0.505529,0.203986 -0.09191,0.370882 0.919144,0.370882 1.011057,0 1.424672,-0.166896 0.919143,-0.370882 z m 3.293598,0.04273 c -0.244339,-0.244339 -0.878548,-0.270462 -1.409354,-0.05805 -0.586585,0.234731 -0.412347,0.408969 0.444253,0.444253 0.775144,0.03193 1.209439,-0.141863 0.965101,-0.386202 z m 2.941259,0 c -0.244339,-0.244339 -0.878548,-0.270462 -1.409354,-0.05805 -0.586585,0.234731 -0.412347,0.408969 0.444253,0.444253 0.775144,0.03193 1.209439,-0.141863 0.965101,-0.386202 z m 2.941259,0 c -0.244339,-0.244339 -0.878548,-0.270462 -1.409354,-0.05805 -0.586584,0.234731 -0.412346,0.408969 0.444253,0.444253 0.775144,0.03193 1.209441,-0.141863 0.965101,-0.386202 z m 15.089272,-0.04273 c -0.505529,-0.203985 -1.332758,-0.203985 -1.838287,0 -0.505529,0.203986 -0.09192,0.370882 0.919143,0.370882 1.011058,0 1.424673,-0.166896 0.919144,-0.370882 z m 3.293597,0.04273 c -0.24434,-0.244339 -0.87855,-0.270462 -1.40935,-0.05805 -0.586586,0.234731 -0.412353,0.408969 0.44425,0.444253 0.77514,0.03193 1.20944,-0.141863 0.9651,-0.386202 z m 2.94126,0 c -0.24434,-0.244339 -0.87855,-0.270462 -1.40935,-0.05805 -0.58659,0.234731 -0.41235,0.408969 0.44425,0.444253 0.77514,0.03193 1.20944,-0.141863 0.9651,-0.386202 z m 2.94126,0 c -0.24434,-0.244339 -0.87855,-0.270462 -1.40936,-0.05805 -0.58658,0.234731 -0.41234,0.408969 0.44426,0.444253 0.77514,0.03193 1.20944,-0.141863 0.9651,-0.386202 z M 124.13678,92.3148 c -0.24995,-0.404424 -1.07718,-0.735315 -1.83829,-0.735315 -0.76111,0 -1.58834,0.330891 -1.83829,0.735315 -0.26585,0.430158 0.49704,0.735314 1.83829,0.735314 1.34125,0 2.10414,-0.305156 1.83829,-0.735314 z"
             id="path966"
             inkscape:connector-curvature="0" />
        </g>
      </g>
      <path
         inkscape:connector-curvature="0"
         id="path997"
         d="m 42.094951,201.80226 7.349911,-7.34991 h 26.326049 l 14.601182,8.42999 z"
         style="fill:#333333;fill-opacity:1;stroke:#000000;stroke-width:0.26458332px;stroke-linecap:butt;stroke-linejoin:miter;stroke-opacity:1" />
    </g>
  </g>
</svg>
