<?xml version="1.0" encoding="UTF-8" standalone="no"?>
<svg
   xmlns:dc="http://purl.org/dc/elements/1.1/"
   xmlns:cc="http://creativecommons.org/ns#"
   xmlns:rdf="http://www.w3.org/1999/02/22-rdf-syntax-ns#"
   xmlns:svg="http://www.w3.org/2000/svg"
   xmlns="http://www.w3.org/2000/svg"
   xmlns:sodipodi="http://sodipodi.sourceforge.net/DTD/sodipodi-0.dtd"
   xmlns:inkscape="http://www.inkscape.org/namespaces/inkscape"
   width="559.03229"
   height="400"
   viewBox="0 0 147.91062 105.83334"
   version="1.1"
   id="svg8"
   inkscape:version="1.0.1 (3bc2e813f5, 2020-09-07)"
   sodipodi:docname="jet.svg">
  <defs
     id="defs2" />
  <sodipodi:namedview
     id="base"
     pagecolor="#ffffff"
     bordercolor="#666666"
     borderopacity="1.0"
     inkscape:pageopacity="0.0"
     inkscape:pageshadow="2"
     inkscape:zoom="0.70000001"
     inkscape:cx="65.2299"
     inkscape:cy="231.99286"
     inkscape:document-units="mm"
     inkscape:current-layer="layer1"
     showgrid="false"
     inkscape:window-width="1920"
     inkscape:window-height="1043"
     inkscape:window-x="0"
     inkscape:window-y="0"
     inkscape:window-maximized="1"
     units="px"
     inkscape:document-rotation="0"
     fit-margin-top="0"
     fit-margin-left="0"
     fit-margin-right="0"
     fit-margin-bottom="0" />
  <metadata
     id="metadata5">
    <rdf:RDF>
      <cc:Work
         rdf:about="">
        <dc:format>image/svg+xml</dc:format>
        <dc:type
           rdf:resource="http://purl.org/dc/dcmitype/StillImage" />
        <dc:title></dc:title>
      </cc:Work>
    </rdf:RDF>
  </metadata>
  <g
     inkscape:label="Layer 1"
     inkscape:groupmode="layer"
     id="layer1"
     transform="translate(-5.8321567,-243.48332)">
    <g
       id="g1081"
       transform="matrix(1.0747698,0,0,1.0747698,-27.822275,262.57049)">
      <path
         sodipodi:nodetypes="ccccc"
         inkscape:connector-curvature="0"
         id="path1065"
         d="m 127.45416,30.532281 c 0,0 14.36573,-2.973376 15.86912,-2.10475 5.07812,1.904295 8.21936,3.820536 8.21936,3.820536 -4.07586,3.57473 -22.38464,0.155099 -22.38464,0.155099 z"
         style="fill:#343434;fill-opacity:1;stroke:none;stroke-width:0.264583px;stroke-linecap:butt;stroke-linejoin:miter;stroke-opacity:1" />
      <g
         transform="translate(260.4839,-90.144372)"
         id="g1018">
        <path
           inkscape:connector-curvature="0"
           id="path1048"
           d="m -204.75462,123.36981 c -0.0899,-0.2343 -0.0729,-0.51017 0.0377,-0.61303 0.11066,-0.10287 0.25435,-0.0382 0.31931,0.1437 0.16654,0.46629 0.86777,0.41284 0.86777,-0.0662 0,-0.22048 -0.23518,-0.39687 -0.52916,-0.39687 -0.29104,0 -0.52917,-0.11906 -0.52917,-0.26459 0,-0.14552 0.23813,-0.26458 0.52917,-0.26458 0.29398,0 0.52916,-0.17639 0.52916,-0.39687 0,-0.47899 -0.70123,-0.53244 -0.86777,-0.0662 -0.065,0.1819 -0.20865,0.24657 -0.31931,0.1437 -0.43766,-0.40682 0.12794,-1.03878 0.85485,-0.95517 0.69721,0.0802 0.72911,0.14752 0.72911,1.53907 0,1.39155 -0.0319,1.45888 -0.72911,1.53908 -0.48252,0.0555 -0.7844,-0.0602 -0.89258,-0.34214 z m 2.39724,0.0417 c -0.0811,-0.21138 -0.1102,-0.90396 -0.0646,-1.53908 0.0746,-1.03945 0.15563,-1.16312 0.81195,-1.23861 0.72691,-0.0836 1.2925,0.54835 0.85485,0.95517 -0.11066,0.10287 -0.25435,0.0382 -0.31932,-0.1437 -0.163,-0.45641 -0.86777,-0.41764 -0.86777,0.0477 0,0.20817 0.26789,0.41652 0.59532,0.46303 0.46628,0.0662 0.59531,0.25659 0.59531,0.87829 0,0.66963 -0.11402,0.80687 -0.72911,0.87762 -0.45477,0.0523 -0.7846,-0.0607 -0.87659,-0.30046 z m 1.20882,-0.57716 c 0,-0.21828 -0.17859,-0.39687 -0.39687,-0.39687 -0.21828,0 -0.39688,0.17859 -0.39688,0.39687 0,0.21828 0.1786,0.39688 0.39688,0.39688 0.21828,0 0.39687,-0.1786 0.39687,-0.39688 z m 2.91042,-0.66146 v -1.5875 h 1.05833 c 0.58209,0 1.05834,0.11907 1.05834,0.26459 0,0.14552 -0.35719,0.26458 -0.79375,0.26458 -0.52917,0 -0.79375,0.13229 -0.79375,0.39688 0,0.21828 0.17859,0.39687 0.39687,0.39687 0.21828,0 0.39688,0.11906 0.39688,0.26458 0,0.14553 -0.1786,0.26459 -0.39688,0.26459 -0.24694,0 -0.39687,0.24988 -0.39687,0.66146 0,0.3638 -0.11906,0.66145 -0.26459,0.66145 -0.14699,0 -0.26458,-0.70555 -0.26458,-1.5875 z m 2.47935,1.19694 c -0.0899,-0.2343 -0.0729,-0.51017 0.0377,-0.61303 0.11066,-0.10287 0.25435,-0.0382 0.31932,0.1437 0.163,0.45641 0.86777,0.41764 0.86777,-0.0478 0,-0.20816 -0.26789,-0.41652 -0.59531,-0.46302 -0.46629,-0.0662 -0.59532,-0.25659 -0.59532,-0.87829 0,-0.66963 0.11402,-0.80687 0.72911,-0.87762 0.72692,-0.0836 1.29251,0.54835 0.85486,0.95517 -0.11066,0.10287 -0.25436,0.0382 -0.31932,-0.1437 -0.16301,-0.45641 -0.86777,-0.41764 -0.86777,0.0477 0,0.20817 0.26789,0.41652 0.59531,0.46303 0.46628,0.0662 0.59531,0.25659 0.59531,0.87829 0,0.66963 -0.11401,0.80687 -0.72911,0.87762 -0.48251,0.0555 -0.78439,-0.0602 -0.89258,-0.34214 z m -8.0356,-6.67992 c 0,-0.25075 0.7407,-1.20325 1.646,-2.11667 l 1.646,-1.66076 h -1.646 c -1.28672,0 -1.646,-0.0866 -1.646,-0.39688 0,-0.3197 0.41158,-0.39687 2.11667,-0.39687 2.68207,0 2.73478,0.28814 0.47066,2.57257 l -1.646,1.66076 h 1.646 c 1.28673,0 1.646,0.0866 1.646,0.39688 0,0.3197 -0.41157,0.39687 -2.11666,0.39687 -1.82689,0 -2.11667,-0.0624 -2.11667,-0.4559 z m 4.7625,0 c 0,-0.25075 0.7407,-1.20325 1.646,-2.11667 l 1.646,-1.66076 h -1.646 c -1.28672,0 -1.646,-0.0866 -1.646,-0.39688 0,-0.3197 0.41158,-0.39687 2.11667,-0.39687 2.68207,0 2.73478,0.28814 0.47066,2.57257 l -1.646,1.66076 h 1.646 c 1.28673,0 1.646,0.0866 1.646,0.39688 0,0.3197 -0.41157,0.39687 -2.11666,0.39687 -1.82689,0 -2.11667,-0.0624 -2.11667,-0.4559 z"
           style="fill:#e5e5e5;stroke-width:0.264583" />
        <path
           inkscape:connector-curvature="0"
           id="path1046"
           d="m -197.85652,129.99964 c -0.49693,-0.36336 -0.49222,-0.38013 0.14787,-0.52673 3.36973,-0.7718 8.92766,-0.9062 12.3763,-0.29929 1.20459,0.21199 2.29583,0.45075 2.42498,0.53057 0.12914,0.0798 6.40638,-0.20941 13.94941,-0.64272 16.37792,-0.94084 21.69744,-1.18807 21.51982,-1.00016 -0.0728,0.077 -2.98979,0.27734 -6.48229,0.44525 -3.4925,0.16792 -12.00547,0.65676 -18.91771,1.08632 -14.12098,0.87756 -14.2875,0.88359 -14.2875,0.51749 0,-0.14552 0.26789,-0.2664 0.59531,-0.26863 0.32743,-0.002 0.76084,-0.10887 0.96316,-0.23699 0.4869,-0.30833 -9.33789,-0.11667 -10.5543,0.20589 -1.27811,0.33893 -0.79706,0.34253 1.98437,0.0149 2.50602,-0.2952 6.74688,-0.10123 6.74688,0.30861 0,0.13618 -2.16243,0.24083 -4.97652,0.24083 -3.87888,0 -5.08972,-0.0828 -5.48978,-0.37532 z m 13.57824,-0.0711 c -0.25297,-0.0662 -0.72922,-0.0686 -1.05834,-0.005 -0.32911,0.0633 -0.12214,0.11747 0.45994,0.12041 0.58208,0.003 0.85136,-0.0489 0.5984,-0.11507 z m -15.40313,-1.39348 c -0.95961,-0.98273 -0.97651,-1.03132 -0.4555,-1.31015 0.74835,-0.40051 1.27624,-0.36295 2.05312,0.14608 l 0.6649,0.43567 -1.00494,0.49474 c -0.55271,0.27211 -0.76681,0.41641 -0.47577,0.32067 1.15845,-0.38108 1.8764,-0.3787 2.38125,0.008 0.50802,0.38902 0.49411,0.40555 -0.34812,0.41363 -0.48251,0.005 -1.08903,0.12174 -1.34783,0.26024 -0.37358,0.19994 -0.67587,0.0415 -1.46711,-0.76876 z m 100.794315,-0.0522 -3.968755,-0.227 -0.87065,-0.93271 c -0.91816,-0.98359 -0.91776,-1.44616 0.001,-1.44616 0.5378,0 0.54009,-0.016 0.0757,-0.52917 -0.59993,-0.66292 -0.68149,-0.66643 3.727714,0.16051 3.704077,0.6947 5.291979,1.29941 6.855624,2.61077 l 0.79375,0.66568 -1.322916,-0.0375 c -0.727605,-0.0206 -3.108855,-0.13961 -5.291667,-0.26446 z m -33.998955,-0.70313 c 0.44116,-0.27511 6.31554,-0.96706 6.51517,-0.76743 0.18138,0.18139 -2.88588,0.7122 -5.05997,0.87566 -1.20238,0.0904 -1.71286,0.0524 -1.4552,-0.10823 z m -44.57916,-0.41162 -0.79062,-0.33709 0.90728,-0.31628 c 0.70005,-0.24403 1.12236,-0.24482 1.84895,-0.003 l 0.94167,0.31284 -0.79375,0.34054 c -0.98339,0.42189 -1.13153,0.42213 -2.11353,0.003 z m 30.68853,0.0964 c 0.29104,-0.12506 0.88635,-0.22739 1.32292,-0.22739 0.43656,0 1.03187,0.10233 1.32291,0.22739 0.36196,0.15554 -0.0561,0.22739 -1.32291,0.22739 -1.26686,0 -1.68488,-0.0718 -1.32292,-0.22739 z m 7.53532,-0.40327 c -0.52291,-0.63006 -0.13933,-0.72632 0.56314,-0.14131 0.48945,0.4076 0.53524,0.52897 0.20217,0.53578 -0.23685,0.005 -0.58124,-0.17267 -0.76531,-0.39447 z m -77.38532,-0.91965 c 0.31649,-0.61203 0.59063,-0.79375 1.19742,-0.79375 0.89474,0 0.8955,10e-4 0.4799,0.9136 -0.24049,0.52781 -0.50007,0.6739 -1.19742,0.6739 h -0.89037 z m 27.74239,-0.19843 c -0.0997,-0.40019 -1.57463,-5.90683 -3.27767,-12.23698 l -3.09645,-11.50938 -2.01903,-0.0773 c -1.11047,-0.0425 -2.01903,-0.1262 -2.01903,-0.18599 0,-0.0598 0.14008,-0.41616 0.31129,-0.79193 0.3052,-0.66984 0.35785,-0.68174 2.68748,-0.60776 l 2.37618,0.0755 3.51423,12.43542 c 1.93283,6.83948 3.58323,12.70331 3.66756,13.03073 0.14005,0.5437 0.0616,0.59531 -0.90499,0.59531 -0.93422,0 -1.07959,-0.0853 -1.23957,-0.7276 z m 80.47219,0.46302 c 0.0899,-0.14552 0.34212,-0.26459 0.5604,-0.26459 0.21828,0 0.32329,0.11907 0.23335,0.26459 -0.0899,0.14552 -0.34211,0.26458 -0.56039,0.26458 -0.21828,0 -0.32329,-0.11906 -0.23336,-0.26458 z m -23.94479,-0.66146 c -0.28033,-0.33778 -0.21118,-0.39688 0.46438,-0.39688 0.43656,0 0.94196,0.1786 1.12312,0.39688 0.28033,0.33778 0.21118,0.39687 -0.46437,0.39687 -0.43656,0 -0.94197,-0.17859 -1.12313,-0.39687 z m -83.60833,-0.78937 c 0,-0.0704 0.44282,-1.02286 0.98406,-2.11667 0.9269,-1.87323 1.03465,-1.98875 1.85503,-1.98875 h 0.87098 l -1.06424,2.11666 c -0.97357,1.93633 -1.13161,2.11667 -1.85504,2.11667 -0.43493,0 -0.79079,-0.0576 -0.79079,-0.12791 z m 7.37873,-14.41676 5.18898,-10.04676 0.85989,-0.007 c 0.47294,-0.004 0.8599,0.0484 0.8599,0.11657 0,0.0682 -0.93323,1.8839 -2.07384,4.0349 -1.1406,2.151 -3.47161,6.61958 -5.18001,9.93018 -3.09455,5.99672 -3.10944,6.01927 -3.97504,6.01927 h -0.86885 z m 6.64418,-8.59392 c 0,-0.0659 0.13818,-0.4231 0.30706,-0.79375 0.26037,-0.57145 0.48161,-0.67391 1.45521,-0.67391 1.28237,0 1.26564,-0.0182 0.8411,0.91359 -0.26037,0.57145 -0.48161,0.67391 -1.45521,0.67391 -0.63149,0 -1.14816,-0.0539 -1.14816,-0.11984 z"
           style="fill:#e3e3e3;stroke-width:0.264583" />
        <path
           inkscape:connector-curvature="0"
           id="path1044"
           d="m -227.34231,129.44069 c -1.15077,-0.18957 -1.65093,-0.34989 -1.19062,-0.38163 l 0.79375,-0.0547 -0.92604,-0.28026 c -0.90592,-0.27417 -0.91167,-0.28458 -0.26459,-0.47893 0.36381,-0.10927 0.48287,-0.21237 0.26459,-0.2291 -0.8945,-0.0686 0.41149,-0.54319 1.45521,-0.52884 0.80778,0.0111 0.93305,0.0653 0.52916,0.2289 -0.44312,0.1795 -0.35708,0.24958 0.52917,0.431 l 1.05833,0.21666 -0.79375,0.15721 c -0.64057,0.12687 -0.32144,0.25068 1.65365,0.64155 1.34607,0.26639 2.44739,0.52911 2.44739,0.58381 0,0.20836 -3.65736,0.007 -5.55625,-0.30563 z m 3.96875,-0.91782 -1.19062,-0.1851 1.53697,-0.0397 c 0.96646,-0.025 1.47627,0.0585 1.37345,0.22484 -0.0899,0.14553 -0.2458,0.2467 -0.34635,0.22485 -0.10055,-0.0219 -0.7186,-0.12304 -1.37345,-0.22485 z"
           style="fill:#c7c7c7;stroke-width:0.264583" />
        <path
           inkscape:connector-curvature="0"
           id="path1042"
           d="m -139.05076,135.05176 c 0.11637,-0.19265 1.26922,-1.85953 2.5619,-3.70416 2.19655,-3.13447 2.99322,-3.86159 3.43961,-3.13932 0.0729,0.11801 -0.70196,1.45747 -1.72199,2.97656 -1.02003,1.5191 -2.05494,3.08866 -2.29981,3.48793 -0.33982,0.55407 -0.65189,0.72632 -1.31826,0.7276 -0.65483,10e-4 -0.82015,-0.0859 -0.66145,-0.34861 z m 35.73933,-3.72995 -0.98474,-0.85777 1.0634,-0.59767 c 0.90898,-0.51087 1.0141,-0.65707 0.72392,-1.00672 -0.30367,-0.3659 -0.0747,-0.392 2.1703,-0.2474 1.380382,0.0889 3.741498,0.23789 5.246921,0.33106 l 2.737133,0.16941 -1.028512,0.61333 c -0.565684,0.33734 -2.452238,0.96515 -4.192341,1.39514 -4.818071,1.19057 -4.608021,1.18322 -5.736081,0.20062 z m -79.97775,-1.72707 c -0.41611,-0.18945 -0.27479,-0.24521 0.66146,-0.261 0.65484,-0.0111 6.78656,-0.31672 13.62604,-0.67927 6.83948,-0.36256 13.44745,-0.63809 14.68438,-0.61229 2.68039,0.0559 2.97922,0.0345 -12.30313,0.87947 -6.54844,0.36205 -12.85875,0.71581 -14.02292,0.78613 -1.16416,0.0703 -2.35479,0.0194 -2.64583,-0.11304 z m -11.50975,-0.83674 c 2e-4,-0.089 -0.28667,-0.10687 -0.63751,-0.0398 -0.35084,0.0671 -0.85686,-0.0125 -1.12448,-0.17682 -0.41511,-0.25487 -0.35055,-0.29196 0.43945,-0.25246 0.50932,0.0255 1.87854,0.0252 3.04271,-5.3e-4 l 2.11666,-0.0468 -0.73223,-0.64439 -0.73224,-0.64438 2.9812,-0.0749 2.98119,-0.0749 -0.0714,-0.69727 c -0.0456,-0.44528 0.0824,-0.75631 0.3542,-0.8606 0.23408,-0.0898 2.29027,-0.0443 4.56932,0.10119 4.43827,0.2833 6.61862,0.14546 6.8404,-0.43248 0.19513,-0.50851 4.93661,-0.47803 7.45781,0.048 1.07383,0.22402 2.08586,0.35668 2.24896,0.29479 0.16311,-0.0619 -0.32626,-0.20079 -1.08747,-0.30866 -0.76121,-0.10787 -1.32842,-0.28609 -1.26046,-0.39605 0.20858,-0.3375 2.2472,-0.26063 2.25166,0.0849 0.003,0.22152 0.0614,0.22837 0.19844,0.0232 0.11326,-0.1695 1.61581,-0.36521 3.60046,-0.46895 2.93398,-0.15338 3.44839,-0.12018 3.71142,0.23953 0.21394,0.29258 0.73879,0.41729 1.7533,0.41659 0.79637,-5.3e-4 2.1028,0.0226 2.90316,0.0514 4.89414,0.17613 8.99086,-0.22347 9.42066,-0.91889 0.0746,-0.12065 0.55309,-0.21937 1.06339,-0.21937 1.13708,0 2.03918,-0.44787 1.85721,-0.92207 -0.15119,-0.39401 -0.18559,-0.38344 3.89041,-1.19557 2.77451,-0.55281 2.88155,-0.55571 3.21053,-0.087 1.0567,1.5055 1.33625,1.65651 4.50259,2.4323 2.84535,0.69715 3.7958,0.7966 9.15407,0.95782 6.65632,0.20028 8.48758,0.003 10.68968,-1.15273 1.29688,-0.68053 1.34089,-0.68523 2.23569,-0.23862 1.23953,0.61865 2.48055,1.08476 2.74492,1.03093 0.11996,-0.0244 0.14778,0.0694 0.0618,0.20845 -0.0859,0.13907 -0.01,0.34335 0.1691,0.45395 0.22143,0.13685 0.095,0.29528 -0.3959,0.49592 l -0.72128,0.29482 0.96466,1.127 0.96467,1.12699 -1.55664,-0.15219 c -0.85614,-0.0837 -5.72382,-0.38729 -10.81705,-0.67464 -5.09322,-0.28735 -9.79732,-0.58406 -10.45353,-0.65935 -1.46873,-0.16853 -7.64034,0.56842 -8.12436,0.97012 -0.43857,0.36398 -8.71895,0.064 -10.19624,-0.36942 -0.72712,-0.21331 -1.36452,-0.2113 -2.38125,0.008 -1.6807,0.3617 -15.33395,0.61754 -15.12748,0.28346 0.0794,-0.12841 0.2861,-0.23726 0.45942,-0.24189 0.17331,-0.005 0.54364,-0.18133 0.82295,-0.39267 0.49568,-0.37506 0.49604,-0.39728 0.0149,-0.92892 -0.45571,-0.50354 -0.7437,-0.53881 -3.81513,-0.46723 -1.82722,0.0426 -3.52528,-0.0226 -3.77347,-0.14479 -0.32493,-0.16002 -0.63896,-0.0345 -1.12181,0.44833 -0.8115,0.8115 -0.65787,1.41557 0.4819,1.8948 l 0.814,0.34227 -1.22022,0.18298 c -0.82409,0.12358 -1.4233,0.07 -1.84579,-0.16497 -0.4131,-0.22978 -1.74887,-0.35896 -3.93287,-0.38036 -2.68449,-0.0263 -3.55934,-0.13549 -4.64577,-0.5798 -2.18216,-0.89241 -3.56796,-0.99621 -4.97729,-0.37279 -0.66882,0.29585 -1.60497,0.83382 -2.08034,1.1955 -0.80724,0.61418 -1.10454,0.66333 -4.5027,0.74443 -2.00112,0.0478 -3.63823,0.014 -3.63802,-0.0749 z m 19.44725,-1.39328 0.79375,-0.34054 -0.94167,-0.31283 c -0.72659,-0.24138 -1.1489,-0.24059 -1.84895,0.003 l -0.90728,0.31628 0.79062,0.33709 c 0.982,0.41869 1.13014,0.41845 2.11353,-0.003 z m 36.67346,-0.44476 c -0.34804,-0.28984 -0.69243,-0.46735 -0.76531,-0.39447 -0.2269,0.2269 0.51424,0.93951 0.96748,0.93025 0.33307,-0.007 0.28728,-0.12818 -0.20217,-0.53578 z m 2.51208,0.32401 c -0.075,-0.12131 -0.60959,-0.54854 -1.18801,-0.94939 -0.75118,-0.52056 -1.17331,-0.66076 -1.47732,-0.49063 -0.35602,0.19924 -0.26217,0.35449 0.57394,0.94939 0.91962,0.65432 2.40841,1.00358 2.09139,0.49063 z m -17.22512,-0.44089 c 0,-0.28469 -3.13793,-0.51848 -3.75922,-0.28007 -0.20645,0.0792 -0.29816,0.26896 -0.2038,0.42163 0.21899,0.35434 3.96302,0.2206 3.96302,-0.14156 z m 45.77291,-0.39687 c 0.0899,-0.14552 -0.0151,-0.26459 -0.23335,-0.26459 -0.21828,0 -0.47046,0.11907 -0.5604,0.26459 -0.0899,0.14552 0.0151,0.26458 0.23336,0.26458 0.21828,0 0.47046,-0.11906 0.56039,-0.26458 z m -23.15104,-0.66146 c -0.18116,-0.21828 -0.68656,-0.39688 -1.12312,-0.39688 -0.67556,0 -0.74471,0.0591 -0.46438,0.39688 0.18116,0.21828 0.68657,0.39687 1.12313,0.39687 0.67555,0 0.7447,-0.0591 0.46437,-0.39687 z m -94.58854,1.9706 c 1.20819,-0.29765 13.32359,-0.75526 19.44687,-0.73453 l 4.10105,0.0139 -1.85209,0.34483 c -2.28126,0.42475 -23.37779,0.79017 -21.69583,0.37581 z m 27.38437,-0.25081 -0.66145,-0.5174 h 2.91041 c 2.48647,0 3.00677,0.0754 3.57188,0.5174 l 0.66146,0.5174 h -2.91042 c -2.48646,0 -3.00677,-0.0754 -3.57188,-0.5174 z m -17.19798,-0.71515 c 4e-5,-0.0295 0.13824,-0.35696 0.30712,-0.72761 0.28761,-0.63122 0.42758,-0.67391 2.20995,-0.67391 h 1.90289 l 5.64327,-11.64166 5.64327,-11.64167 h 1.26471 1.26471 l 0.29311,1.12448 c 0.16121,0.61846 0.51474,1.89838 0.78562,2.84427 0.27088,0.94589 0.62244,2.21846 0.78123,2.82794 0.25396,0.97479 0.38891,1.11807 1.12138,1.19063 l 0.83266,0.0825 2.20077,8.18351 c 1.21043,4.50092 2.17257,8.21069 2.1381,8.24392 -0.0777,0.0749 -26.38887,0.26195 -26.38879,0.18763 z m 21.35209,-3.03886 c 0.36264,-0.34069 0.60839,-0.88047 0.60839,-1.33629 0,-1.0018 -0.98066,-3.32972 -1.76281,-4.18459 -0.71874,-0.78557 -0.77356,-1.04386 -0.22156,-1.04386 0.21828,0 0.39687,-0.17859 0.39687,-0.39687 0,-0.2569 -0.25751,-0.39688 -0.7301,-0.39688 -0.45781,0 -0.86102,-0.20963 -1.08113,-0.56207 -0.31897,-0.51076 -0.25231,-0.66265 0.73011,-1.66366 1.23611,-1.25951 1.40509,-2.0076 0.45348,-2.0076 -0.5305,0 -0.65457,-0.16838 -0.8016,-1.08791 -0.10767,-0.67329 -0.0598,-1.22548 0.12564,-1.4489 0.23279,-0.2805 0.0843,-0.65431 -0.66592,-1.6763 -1.30447,-1.77704 -1.72365,-1.86441 -3.16491,-0.65967 -1.58042,1.32106 -2.12851,2.38693 -1.94209,3.77679 l 0.147,1.09599 h -1.03315 c -0.74197,0 -1.03316,0.11185 -1.03316,0.39687 0,0.26132 0.26144,0.39688 0.76544,0.39688 0.4501,0 0.83084,0.1704 0.92417,0.41363 0.19056,0.49659 -0.36586,1.6454 -1.13335,2.33998 -0.30594,0.27687 -0.55626,0.76623 -0.55626,1.08747 0,0.32124 -0.35719,1.03353 -0.79375,1.58288 -0.63023,0.79304 -0.79375,1.25757 -0.79375,2.25496 0,0.69089 0.16789,1.65546 0.3731,2.14349 0.56479,1.34325 2.63342,1.82527 7.15444,1.6671 3.05365,-0.10684 3.4927,-0.18207 4.0349,-0.69144 z m -2.83119,-10.22089 c 0,-0.31977 0.50197,-0.69258 0.68546,-0.50909 0.0666,0.0666 -0.0604,0.27169 -0.28219,0.45577 -0.25146,0.20869 -0.40327,0.22876 -0.40327,0.0533 z m -16.66875,9.47698 c 0.61949,-1.23209 1.2301,-2.11666 1.46111,-2.11666 0.29717,0 0.1295,0.53179 -0.66736,2.11666 -0.61949,1.2321 -1.2301,2.11667 -1.46111,2.11667 -0.29717,0 -0.1295,-0.53179 0.66736,-2.11667 z m 4.53147,-7.12806 c 2.49226,-5.13774 4.41321,-9.4094 4.30796,-9.57969 -0.12679,-0.20516 -0.0734,-0.23534 0.16049,-0.0908 0.25657,0.15857 0.30376,0.095 0.1762,-0.23744 -0.11741,-0.30597 -0.0743,-0.39225 0.13229,-0.26458 0.20657,0.12766 0.2497,0.0414 0.13229,-0.26459 -0.11741,-0.30597 -0.0743,-0.39224 0.13229,-0.26458 0.20657,0.12766 0.24971,0.0414 0.1323,-0.26458 -0.11742,-0.30597 -0.0743,-0.39225 0.13229,-0.26459 0.20656,0.12767 0.2497,0.0414 0.13229,-0.26458 -0.11741,-0.30597 -0.0743,-0.39225 0.13229,-0.26458 0.20657,0.12766 0.2497,0.0414 0.13229,-0.26459 -0.11741,-0.30597 -0.0743,-0.39224 0.13229,-0.26458 0.20657,0.12766 0.24971,0.0414 0.1323,-0.26458 -0.11742,-0.30597 -0.0743,-0.39225 0.13229,-0.26459 0.20656,0.12767 0.2497,0.0414 0.13229,-0.26458 -0.10349,-0.26968 -0.068,-0.38839 0.0873,-0.29237 0.14385,0.0889 0.26155,0.0356 0.26155,-0.11855 0,-0.1557 0.52903,-0.2802 1.19063,-0.2802 0.65484,0 1.19062,0.0462 1.19062,0.10263 0,0.0564 -2.47445,5.2059 -5.49878,11.44323 l -5.49878,11.3406 -1.23131,0.08 -1.23131,0.08 z m 85.95603,8.7202 c -4.80426,-0.20178 -9.03134,-1.19241 -9.9785,-2.33851 -0.32219,-0.38986 -0.59008,-0.85766 -0.59532,-1.03956 -0.0188,-0.65403 0.75232,-0.31254 1.30176,0.57647 0.34336,0.55557 0.83885,0.96319 1.27835,1.05166 3.96213,0.79752 6.16022,0.97934 12.44703,1.02958 6.54386,0.0523 6.83852,0.0326 8.08188,-0.54105 0.70972,-0.32742 1.45386,-0.59531 1.65365,-0.59531 0.7349,0 0.32955,0.45376 -0.89353,1.00025 -2.53695,1.13352 -4.17945,1.23933 -13.29532,0.85647 z m -16.64962,-3.21538 c 0.24156,-0.45135 0.34899,-0.49124 0.53443,-0.19844 0.36107,0.57014 0.28557,0.76335 -0.29828,0.76335 -0.46785,0 -0.49882,-0.0741 -0.23615,-0.56491 z m -69.1904,-7.30644 c 1.84867,-3.60164 3.47884,-6.6675 3.62259,-6.81302 0.17217,-0.1743 0.1751,-0.084 0.009,0.26458 -4.73493,9.91096 -6.35024,13.09687 -6.64034,13.09687 -0.21194,0 0.98561,-2.60605 3.00918,-6.54843 z"
           style="fill:#bfbfbf;stroke-width:0.264583" />
        <path
           inkscape:connector-curvature="0"
           id="path1040"
           d="m -218.47876,129.54729 c -1.30969,-0.1236 -2.65767,-0.16212 -2.99551,-0.0856 -0.33783,0.0765 -1.64752,-0.0674 -2.91041,-0.31987 -2.07757,-0.41529 -2.21064,-0.47676 -1.39776,-0.64571 0.49413,-0.1027 1.62522,-0.057 2.51354,0.10148 0.88833,0.15852 2.5198,0.26449 3.6255,0.23551 1.26472,-0.0332 2.78578,0.13776 4.10104,0.46084 2.0621,0.50653 2.0726,0.51331 0.76776,0.49581 -0.7276,-0.01 -2.39448,-0.11886 -3.70416,-0.24245 z"
           style="fill:#b0b0b0;stroke-width:0.264583" />
        <path
           inkscape:connector-curvature="0"
           id="path1038"
           d="m -194.00481,109.8891 c 0,-0.214 -1.81238,-6.89938 -2.00296,-7.38837 -0.14754,-0.37857 -0.0838,-0.46874 0.28044,-0.39688 0.36283,0.0716 0.70385,0.9458 1.48122,3.79715 1.18011,4.32863 1.1447,4.10104 0.63818,4.10104 -0.21828,0 -0.39688,-0.0508 -0.39688,-0.11294 z"
           style="fill:#a9a9a9;stroke-width:0.264583" />
        <path
           inkscape:connector-curvature="0"
           id="path1036"
           d="m -142.54335,135.93121 c -0.0899,-0.14552 -0.0374,-0.26459 0.11668,-0.26459 0.15411,0 0.2802,0.11907 0.2802,0.26459 0,0.14552 -0.0525,0.26458 -0.11668,0.26458 -0.0642,0 -0.19026,-0.11906 -0.2802,-0.26458 z m -27.11979,-0.55204 c -2.69213,-0.13476 -10.2526,-0.72123 -16.80104,-1.30325 l -11.90625,-1.05822 -9.92188,-2.31356 -9.92187,-2.31356 2.64583,-0.16736 c 1.45521,-0.0921 4.25318,-0.18151 6.21771,-0.1988 3.14609,-0.0277 6.90778,-0.46198 8.56934,-0.98934 0.46462,-0.14746 0.50249,-0.1132 0.23332,0.21112 -0.26394,0.31804 -0.12187,0.57767 0.79583,1.45427 2.13123,2.0358 1.68765,1.94203 9.04736,1.91256 3.64202,-0.0146 7.79274,-0.10388 9.22382,-0.19844 1.43108,-0.0946 2.65044,-0.12335 2.70969,-0.064 0.0592,0.0594 -0.007,0.2457 -0.14633,0.41406 -0.17586,0.2119 0.17089,0.72063 1.12678,1.6531 l 1.38082,1.347 2.24895,0.18325 2.24896,0.18325 -1.13731,-1.17365 c -1.00943,-1.04167 -1.09026,-1.2127 -0.71879,-1.52099 0.37813,-0.31382 0.36664,-0.40257 -0.11909,-0.9196 l -0.53761,-0.57226 10.11995,-0.58465 c 5.56596,-0.32155 12.20353,-0.73078 14.75015,-0.90938 5.89534,-0.41347 15.36382,-0.43889 15.12169,-0.0406 -0.095,0.15628 -1.23038,1.79339 -2.52305,3.63802 l -2.35032,3.35389 h -9.58054 c -5.26929,0 -10.99822,0.05 -12.73093,0.11109 -1.73272,0.0611 -5.35305,7.9e-4 -8.04519,-0.13396 z m 23.84164,-0.86807 c -0.22837,-0.27516 -0.20446,-0.44126 0.0999,-0.69385 0.22008,-0.18265 0.40014,-0.48152 0.40014,-0.66417 0,-0.18264 -0.18006,-0.48152 -0.40014,-0.66416 -0.30435,-0.25259 -0.32826,-0.41869 -0.0999,-0.69386 0.25286,-0.30468 -1.02656,-0.36177 -8.10754,-0.36177 -8.36449,0 -8.40534,0.003 -7.93338,0.5242 0.35822,0.39583 0.4022,0.6112 0.17959,0.87943 -0.21722,0.26174 -0.21455,0.43546 0.0101,0.66016 0.23021,0.23022 0.1862,0.43618 -0.1796,0.84038 l -0.48453,0.53541 h 8.40778 c 7.08098,0 8.3604,-0.0571 8.10754,-0.36177 z m 17.92582,-3.51531 c 1.17146,-1.57839 2.28504,-3.08854 2.47461,-3.3559 0.33394,-0.47097 0.68512,-0.46546 11.26971,0.17699 7.38145,0.44803 11.05243,0.76883 11.31779,0.98906 0.33373,0.27698 0.227,0.4248 -0.7103,0.98374 l -1.10306,0.65778 1.02784,0.87986 c 0.5653,0.48392 0.90877,0.88482 0.76324,0.89089 -0.14552,0.006 -2.5863,0.32496 -5.42395,0.70864 -4.36392,0.59005 -6.43801,0.71619 -13.4526,0.81817 l -8.29322,0.12056 z m 14.39036,0.22451 c -0.30262,-0.31213 -0.53037,-0.38087 -0.65741,-0.19844 -0.34295,0.49247 -0.21833,0.67601 0.45897,0.67601 0.63226,0 0.64102,-0.0211 0.19844,-0.47757 z m -72.16511,-2.09285 c -0.29104,-0.0528 -0.8239,-0.15991 -1.18413,-0.23801 l -0.65497,-0.14201 0.65497,-0.52794 c 0.36023,-0.29036 1.28792,-0.82948 2.06154,-1.19803 1.61062,-0.76729 2.86292,-0.70836 5.19244,0.24431 1.08807,0.44498 1.95723,0.55298 4.64577,0.57732 2.04541,0.0185 3.5092,0.15083 3.83646,0.34681 0.49128,0.2942 0.47295,0.31746 -0.25605,0.32493 -0.74084,0.008 -9.15188,0.43215 -12.31166,0.62145 -0.80036,0.048 -1.69333,0.044 -1.98437,-0.009 z m 16.90678,-1.22747 c -1.14861,-0.52733 -1.29834,-1.11898 -0.48818,-1.92913 0.48285,-0.48285 0.79688,-0.60835 1.12181,-0.44833 0.24819,0.12222 1.92453,0.18737 3.72519,0.14475 2.78027,-0.0658 3.34879,-0.01 3.77032,0.37174 0.68881,0.62336 0.64622,0.71821 -0.62794,1.39832 -1.45148,0.77475 -6.1854,1.06673 -7.5012,0.46265 z m 64.59317,-0.76206 -0.95899,-1.12036 0.68996,-0.22999 c 0.67477,-0.22493 0.67946,-0.2425 0.21267,-0.79786 -0.35577,-0.42329 -0.28662,-0.39945 0.27157,0.0936 0.6547,0.57828 0.68773,0.67301 0.26269,0.75329 -0.90714,0.17133 -0.92578,0.50255 -0.0823,1.46319 0.46287,0.52719 0.779,0.95852 0.70251,0.95852 -0.0765,0 -0.57063,-0.50416 -1.09808,-1.12037 z m -33.92634,-0.59106 c -0.97025,-0.85359 -0.4412,-0.85979 0.71285,-0.008 0.57527,0.42442 0.7412,0.66146 0.46303,0.66146 -0.23844,0 -0.76759,-0.2939 -1.17588,-0.6531 z m -18.27101,0.19577 c 0.54571,-0.0571 1.43868,-0.0571 1.98438,0 0.5457,0.0571 0.0992,0.10379 -0.99219,0.10379 -1.0914,0 -1.53789,-0.0467 -0.99219,-0.10379 z m -22.82031,-1.20958 c -0.0728,-0.0761 -1.79126,-0.19418 -3.81889,-0.26238 -3.46589,-0.11658 -3.69912,-0.15782 -3.89557,-0.68888 l -0.20896,-0.56487 6.01223,0.16998 c 5.78137,0.16346 6.83274,0.31401 6.25156,0.89519 -0.28271,0.28271 -4.12006,0.68141 -4.34037,0.45096 z m 22.37912,-0.66964 c -0.42456,-0.0973 -0.81605,-0.30969 -0.86999,-0.47186 -0.0655,-0.19689 0.76246,-0.34502 2.49171,-0.4458 1.42438,-0.083 3.72088,-0.28602 5.10333,-0.45114 6.35353,-0.75883 9.13962,-0.9786 9.39271,-0.74088 0.42294,0.39726 -0.63931,1.00664 -1.75475,1.00664 -0.54568,0 -1.05316,0.0987 -1.12772,0.21937 -0.43759,0.70802 -5.07706,1.14359 -9.42066,0.88444 -0.80036,-0.0478 -1.81239,-0.0276 -2.24896,0.0447 -0.43656,0.0723 -1.14111,0.0519 -1.56567,-0.0455 z m -45.60159,-0.66337 c -0.80926,-0.23156 -1.04866,-0.40437 -0.84389,-0.60914 0.15723,-0.15723 0.2489,-0.86803 0.20372,-1.57955 -0.0757,-1.19149 -0.13975,-1.30031 -0.81126,-1.37755 -0.72691,-0.0836 -1.29251,0.54835 -0.85485,0.95517 0.11066,0.10287 0.25435,0.0382 0.31931,-0.1437 0.16654,-0.46629 0.86777,-0.41284 0.86777,0.0662 0,0.22048 -0.23518,0.39687 -0.52916,0.39687 -0.29104,0 -0.52917,0.11906 -0.52917,0.26458 0,0.14553 0.23813,0.26459 0.52917,0.26459 0.29398,0 0.52916,0.17639 0.52916,0.39687 0,0.21828 -0.17859,0.39688 -0.39687,0.39688 -0.21828,0 -0.39688,-0.11906 -0.39688,-0.26459 0,-0.14552 -0.16585,-0.26458 -0.36856,-0.26458 -0.49558,0 -0.68977,-0.58844 -0.68977,-2.09021 0,-1.00507 0.16836,-1.47223 0.85037,-2.35961 l 0.85037,-1.10643 h 2.06005 c 1.65476,0 2.06004,-0.0781 2.06004,-0.39687 0,-0.31025 -0.35927,-0.39688 -1.646,-0.39688 h -1.646 l 1.646,-1.66076 c 1.96206,-1.97966 2.10403,-2.57257 0.61598,-2.57257 -1.12981,0 -1.35239,-0.27633 -1.34948,-1.67529 0.002,-1.03134 0.62149,-2.00256 2.06491,-3.23808 1.3653,-1.16865 1.80907,-1.06865 3.10757,0.70026 0.75021,1.02199 0.89871,1.3958 0.66592,1.6763 -0.18543,0.22342 -0.23331,0.77561 -0.12564,1.4489 l 0.17396,1.08791 h -1.48902 c -1.14719,0 -1.48903,0.0911 -1.48903,0.39687 0,0.29885 0.32063,0.39688 1.29815,0.39688 1.13876,0 1.28223,0.0609 1.16849,0.4958 -0.0713,0.27269 -0.65548,1.01185 -1.29815,1.64259 -0.64267,0.63073 -1.16849,1.36012 -1.16849,1.62086 0,0.4036 0.23854,0.47408 1.60458,0.47408 1.47713,0 1.66102,0.0667 2.31511,0.84037 0.91172,1.07833 1.87687,3.29349 1.89052,4.33903 0.007,0.51705 -0.21121,1.02218 -0.59777,1.38534 -0.5421,0.50927 -0.98183,0.5847 -4.0349,0.69216 -2.25639,0.0794 -3.8123,0.0102 -4.55626,-0.20265 z m 1.65893,-1.36571 c 0,-0.6217 -0.12903,-0.81207 -0.59531,-0.87829 -0.32743,-0.0465 -0.59532,-0.25486 -0.59532,-0.46303 0,-0.46538 0.70477,-0.50415 0.86777,-0.0477 0.065,0.1819 0.20866,0.24657 0.31932,0.1437 0.43765,-0.40682 -0.12794,-1.03878 -0.85485,-0.95517 -0.65632,0.0755 -0.73738,0.19916 -0.81195,1.23861 -0.11372,1.58532 0.0678,1.94001 0.94123,1.83954 0.61509,-0.0708 0.72911,-0.20799 0.72911,-0.87762 z m -1.19063,0 c 0,-0.21828 0.1786,-0.39687 0.39688,-0.39687 0.21828,0 0.39687,0.17859 0.39687,0.39687 0,0.21828 -0.17859,0.39688 -0.39687,0.39688 -0.21828,0 -0.39688,-0.1786 -0.39688,-0.39688 z m 4.23334,0.26459 c 0,-0.41158 0.14993,-0.66146 0.39687,-0.66146 0.21828,0 0.39688,-0.11906 0.39688,-0.26459 0,-0.14552 -0.1786,-0.26458 -0.39688,-0.26458 -0.21828,0 -0.39687,-0.17859 -0.39687,-0.39687 0,-0.26459 0.26458,-0.39688 0.79375,-0.39688 0.43656,0 0.79375,-0.11906 0.79375,-0.26458 0,-0.14552 -0.47625,-0.26459 -1.05834,-0.26459 h -1.05833 v 1.5875 c 0,0.88195 0.11759,1.5875 0.26458,1.5875 0.14553,0 0.26459,-0.29765 0.26459,-0.66145 z m 3.57187,-0.26459 c 0,-0.6217 -0.12903,-0.81207 -0.59531,-0.87829 -0.32742,-0.0465 -0.59531,-0.25486 -0.59531,-0.46303 0,-0.46538 0.70476,-0.50415 0.86777,-0.0477 0.065,0.1819 0.20866,0.24657 0.31932,0.1437 0.43765,-0.40682 -0.12794,-1.03878 -0.85486,-0.95517 -0.61509,0.0708 -0.72911,0.20799 -0.72911,0.87762 0,0.6217 0.12903,0.81207 0.59532,0.87829 0.32742,0.0465 0.59531,0.25486 0.59531,0.46302 0,0.46539 -0.70477,0.50416 -0.86777,0.0478 -0.065,-0.1819 -0.20866,-0.24657 -0.31932,-0.1437 -0.43765,0.40682 0.12794,1.03878 0.85485,0.95517 0.6151,-0.0708 0.72911,-0.20799 0.72911,-0.87762 z m -3.44043,-7.01052 c 0.36473,-0.40302 0.5626,-0.45806 0.83476,-0.23219 0.5835,0.48427 0.4099,0.76042 -0.47804,0.76042 -0.81751,0 -0.82488,-0.0109 -0.35672,-0.52823 z m -4.63962,-1.56927 c 0.15012,-0.2805 0.2011,-0.69722 0.1133,-0.92604 -0.12533,-0.32659 0.0283,-0.41604 0.71431,-0.41604 h 0.87395 l -0.89755,0.92604 c -1.02147,1.05389 -1.19283,1.14256 -0.80401,0.41604 z m 7.14051,-5.37698 c -0.16416,-0.61846 -0.645,-2.36552 -1.06853,-3.88234 -0.90311,-3.23441 -0.86223,-2.93068 -0.39444,-2.93068 0.41186,0 0.81136,1.10077 1.857,5.11681 0.79879,3.06796 0.77327,2.82069 0.29113,2.82069 -0.23171,0 -0.5063,-0.45067 -0.68516,-1.12448 z"
           style="fill:#7f7f7f;stroke-width:0.264583" />
        <path
           inkscape:connector-curvature="0"
           id="path1034"
           d="m -161.47067,134.22301 c 0.17586,-0.21191 0.24295,-0.50957 0.14907,-0.66146 -0.11713,-0.18952 2.33774,-0.27618 7.82344,-0.27618 7.73165,0 7.97972,0.0159 7.55566,0.4845 -0.24115,0.26647 -0.35882,0.56412 -0.26149,0.66145 0.0973,0.0973 -3.3698,0.17697 -7.70474,0.17697 -6.87058,0 -7.84068,-0.0494 -7.56194,-0.38528 z m -13.74872,-0.60223 c -0.99331,-0.0845 -1.3976,-0.30413 -2.43956,-1.32517 -0.86412,-0.84678 -1.17053,-1.31833 -0.99448,-1.53046 0.13995,-0.16862 0.18587,-0.37517 0.10204,-0.45899 -0.0838,-0.0838 0.75836,-0.19194 1.87153,-0.24024 1.77955,-0.0772 2.08681,-0.0207 2.54476,0.46776 0.4707,0.50212 0.48061,0.58899 0.10296,0.90241 -0.37141,0.30825 -0.30758,0.45975 0.57405,1.36263 l 0.99193,1.01582 -0.7813,-0.0462 c -0.42972,-0.0254 -1.31708,-0.0918 -1.97193,-0.14754 z m 13.89779,-0.87616 c 0.0939,-0.1519 0.0268,-0.44955 -0.14907,-0.66146 -0.27874,-0.33586 0.69136,-0.38529 7.56194,-0.38529 4.33494,0 7.80207,0.0796 7.70474,0.17697 -0.0973,0.0973 0.0203,0.39499 0.26149,0.66146 0.42406,0.46858 0.17599,0.48449 -7.55566,0.48449 -5.4857,0 -7.94057,-0.0867 -7.82344,-0.27617 z"
           style="fill:#696969;stroke-width:0.264583" />
        <path
           inkscape:connector-curvature="0"
           id="path1032"
           d="m -175.21939,133.88561 c -1.01417,-0.0861 -1.39527,-0.30217 -2.57144,-1.45795 -0.95565,-0.93909 -1.3026,-1.45114 -1.12678,-1.66299 0.13973,-0.16836 0.16578,-0.40354 0.0579,-0.52262 -0.10787,-0.11908 -0.0415,-0.12729 0.14744,-0.0183 0.23887,0.13785 0.26142,0.29726 0.074,0.52311 -0.19611,0.2363 0.0708,0.65441 0.97934,1.534 1.1964,1.1583 1.33241,1.21679 3.23331,1.3907 l 1.98438,0.18155 -1.00438,-1.03513 c -0.89258,-0.91991 -0.95786,-1.07373 -0.5865,-1.38194 0.37608,-0.31212 0.35746,-0.4156 -0.18625,-1.0347 l -0.60412,-0.68788 0.73305,0.64656 c 0.6558,0.57841 0.69069,0.68892 0.33101,1.0486 -0.35967,0.35967 -0.28473,0.52159 0.7111,1.53626 l 1.11314,1.1342 -1.04728,-0.0462 c -0.576,-0.0254 -1.58305,-0.0917 -2.2379,-0.14729 z m 71.6003,-2.55829 -1.02784,-0.87986 1.08924,-0.64954 c 0.89251,-0.53223 1.03035,-0.71566 0.76324,-1.01568 -0.2758,-0.30977 -0.2547,-0.3122 0.13704,-0.0158 0.25466,0.19271 0.46302,0.38771 0.46302,0.43334 0,0.0456 -0.4729,0.34875 -1.05089,0.6736 l -1.05089,0.59063 0.98474,0.87049 c 0.54162,0.47877 0.92522,0.87097 0.85246,0.87157 -0.0728,5.3e-4 -0.59482,-0.39486 -1.16012,-0.87878 z m -34.63844,-4.57398 c -0.83611,-0.5949 -0.92996,-0.75015 -0.57394,-0.94939 0.30401,-0.17013 0.72614,-0.0299 1.47732,0.49063 1.32909,0.92106 1.48019,1.16996 0.71026,1.16996 -0.33775,0 -1.06388,-0.32004 -1.61364,-0.7112 z m 0.87356,-0.21484 c -0.49311,-0.3638 -1.02225,-0.6577 -1.17588,-0.6531 -0.45583,0.0136 1.16608,1.31456 1.63891,1.31456 0.27817,0 0.11224,-0.23704 -0.46303,-0.66146 z m -19.97031,0.40614 c -0.0944,-0.15267 -0.003,-0.34241 0.2038,-0.42163 0.62129,-0.23841 3.75922,-0.005 3.75922,0.28007 0,0.36216 -3.74403,0.4959 -3.96302,0.14156 z m 2.97083,-0.20201 c -0.5457,-0.0571 -1.43867,-0.0571 -1.98438,0 -0.5457,0.0571 -0.0992,0.10379 0.99219,0.10379 1.09141,0 1.53789,-0.0467 0.99219,-0.10379 z m -60.58552,-1.58996 1.39314,-0.0973 1.05001,-2.08837 1.05002,-2.08838 -1.25253,-0.0989 -1.25252,-0.0989 1.32292,-0.0483 1.32292,-0.0483 4.86781,-10.05846 c 2.6773,-5.53216 4.90993,-10.01635 4.96141,-9.96487 0.0515,0.0515 -2.57925,5.59637 -5.84605,12.32198 l -5.93964,12.22838 1.23224,-0.0801 1.23224,-0.0801 5.94023,-12.2384 c 3.26712,-6.73113 5.98058,-12.19805 6.0299,-12.14873 0.0493,0.0493 -2.60829,5.64589 -5.9058,12.43684 l -5.99547,12.34716 -2.80198,-0.0489 c -1.54109,-0.0269 -2.17507,-0.0927 -1.40885,-0.14626 z"
           style="fill:#5a5a5a;stroke-width:0.264583" />
        <path
           inkscape:connector-curvature="0"
           id="path1026"
           d="m -137.11939,135.16506 c 0,-0.429 0.27525,-0.4842 3.175,-0.6367 l 2.77813,-0.14611 -2.11667,0.36456 c -1.16417,0.20051 -2.50362,0.43536 -2.97656,0.52189 -0.49525,0.0906 -0.8599,0.0467 -0.8599,-0.10364 z m 2.54478,-3.8346 c 1.72641,-2.60994 2.1357,-3.0723 2.72026,-3.07301 0.71774,-8e-4 5.09237,-0.71003 5.93606,-0.96226 0.46923,-0.14029 0.46951,-0.11997 0.008,0.60742 -0.69214,1.09147 -4.28593,5.85418 -4.52456,5.99622 -0.11137,0.0663 -1.54567,0.20676 -3.18733,0.31216 l -2.98484,0.19164 2.03217,-3.07217 z"
           style="fill:#343434;stroke-width:0.264583" />
        <path
           inkscape:connector-curvature="0"
           id="path1024"
           d="m -213.84856,130.75714 c -3.8563,-0.48339 -7.18013,-0.88619 -7.38628,-0.89511 -0.20616,-0.009 -0.31245,-0.0786 -0.23622,-0.15485 0.32212,-0.32212 11.03429,0.74308 13.44334,1.33679 3.25416,0.80198 2.61357,0.77041 -5.82084,-0.28683 z m -7.01145,-2.23427 c 0.43656,-0.11108 1.0914,-0.20769 1.4552,-0.21468 0.6002,-0.0115 0.61245,0.008 0.1323,0.21468 -0.29105,0.12507 -0.94589,0.22168 -1.45521,0.21469 l -0.92604,-0.0127 0.79375,-0.20198 z"
           style="fill:#303030;stroke-width:0.264583" />
        <path
           inkscape:connector-curvature="0"
           id="path1020"
           d="m -142.7752,136.05339 c -0.13793,-0.35946 -1.69383,-0.40234 -13.32362,-0.36722 -7.24209,0.0219 -15.01291,-0.089 -17.26849,-0.24631 -9.88895,-0.68983 -25.16835,-2.18559 -27.38437,-2.68078 -1.30969,-0.29265 -6.48408,-1.00946 -11.49865,-1.5929 -5.01457,-0.58344 -9.22189,-1.16531 -9.34961,-1.29303 -0.48881,-0.4888 0.43128,-0.57056 3.44521,-0.30615 4.46116,0.39138 5.04753,0.32632 2.58638,-0.28699 -1.62068,-0.40386 -2.55961,-0.48769 -4.00695,-0.35776 -1.03965,0.0933 -1.95403,0.0665 -2.03196,-0.0595 -0.0779,-0.12609 0.23692,-0.18617 0.69966,-0.13351 0.46273,0.0526 1.11299,-0.006 1.44501,-0.13038 0.39475,-0.14785 -0.63295,-0.24794 -2.96944,-0.28921 -1.96522,-0.0347 -3.84421,-0.16345 -4.17555,-0.28611 -0.58073,-0.21497 -0.57384,-0.22902 0.19132,-0.38998 1.94524,-0.40922 4.67683,-0.68807 6.78756,-0.6929 l 2.28965,-0.005 6.93008,-13.36145 6.93008,-13.36146 h 4.85913 4.85914 l 0.2712,0.99218 c 1.29777,4.74797 6.32259,22.33815 6.40453,22.42009 0.0577,0.0577 3.85234,0.23654 8.43258,0.39747 6.90126,0.24248 9.89127,0.22114 17.45584,-0.1246 5.02047,-0.22946 10.02109,-0.52565 11.1125,-0.65821 2.44332,-0.29675 9.50622,-1.06652 9.78574,-1.06652 0.11233,0 0.35218,-0.35718 0.53301,-0.79375 0.33722,-0.81412 1.05833,-1.09518 1.05833,-0.41249 0,0.2097 0.1149,0.45228 0.25534,0.53907 0.14043,0.0868 3.56348,-0.49475 7.60677,-1.29231 9.33877,-1.84214 11.50857,-2.11834 13.62566,-1.73444 1.54089,0.27942 6.52911,2.5693 9.01404,4.13797 1.7298,1.09197 4.07573,1.8423 8.12259,2.59795 4.047772,0.75581 5.477361,1.31885 7.270699,2.86356 l 1.048218,0.90289 -1.306655,0.81328 c -1.869133,1.16338 -6.765851,2.29543 -14.151242,3.27158 -5.50194,0.7272 -7.17714,0.83578 -14.55208,0.94316 -4.58391,0.0667 -8.39822,0.22441 -8.47624,0.35037 -0.2414,0.38971 -6.73067,1.30691 -9.24647,1.30691 -1.94417,0 -2.38563,0.0735 -2.38563,0.39688 0,0.52079 -0.69259,0.51295 -0.89331,-0.0101 z m 0.62873,-0.12218 c 0,-0.14552 -0.12609,-0.26459 -0.2802,-0.26459 -0.15411,0 -0.20661,0.11907 -0.11668,0.26459 0.0899,0.14552 0.21603,0.26458 0.2802,0.26458 0.0642,0 0.11668,-0.11906 0.11668,-0.26458 z m -5.84544,-0.54037 10.47565,-0.0112 0.6393,-0.98099 c 0.35161,-0.53954 1.35372,-2.05155 2.22691,-3.36001 0.87318,-1.30846 1.58761,-2.51325 1.58761,-2.6773 0,-0.1752 0.71874,-0.36313 1.74184,-0.45543 2.2679,-0.20462 5.33153,-0.79621 4.65225,-0.89836 -0.54219,-0.0815 -5.45368,0.53869 -6.87916,0.86871 -0.56383,0.13053 -0.71657,0.10081 -0.52731,-0.10261 0.3641,-0.39133 6.58928,-1.13697 8.06544,-0.96607 0.65621,0.076 7.32484,0.49095 14.81916,0.92217 7.49432,0.43121 14.816666,0.85428 16.271875,0.94016 l 2.645833,0.15613 -0.79375,-0.68629 c -1.544021,-1.33498 -3.121284,-1.93303 -7.016228,-2.66031 -3.48883,-0.65144 -6.93814,-1.67698 -7.48723,-2.22606 -0.1191,-0.11911 -0.83361,0.10979 -1.5878,0.50868 -2.24506,1.18738 -4.04032,1.3853 -10.73801,1.18377 -5.35827,-0.16122 -6.30872,-0.26067 -9.15407,-0.95781 -3.16653,-0.77584 -3.44585,-0.92675 -4.50291,-2.43275 -0.32835,-0.46782 -0.46318,-0.46014 -3.73969,0.21289 -1.86949,0.38401 -5.06594,0.87622 -7.10323,1.09379 -2.03729,0.21758 -4.59714,0.50529 -5.68854,0.63937 -1.09141,0.13408 -6.15156,0.43211 -11.24479,0.6623 -7.53365,0.34048 -10.69701,0.36657 -16.96465,0.13993 -4.23732,-0.15323 -7.94637,-0.2786 -8.24233,-0.2786 -0.51646,0 -0.52332,0.0491 -0.17053,1.22139 0.20217,0.67176 0.30256,1.3266 0.22308,1.4552 -0.0795,0.12861 -1.45381,0.23382 -3.05407,0.23382 h -2.90955 l 0.74236,0.6531 0.74235,0.6531 -2.11666,0.0425 c -1.16417,0.0234 -2.68939,0.0157 -3.38938,-0.0171 -1.56949,-0.0736 -2.96699,0.43152 -2.55789,0.92446 0.19188,0.23119 0.50308,0.26669 0.99647,0.11366 1.31712,-0.40853 3.231,-0.71118 3.231,-0.51094 0,0.10881 -0.56554,0.27767 -1.25677,0.37524 -0.69122,0.0976 -1.48738,0.24524 -1.76925,0.32816 -0.49994,0.14706 -0.50032,0.15964 -0.0156,0.51409 0.37962,0.27759 1.67157,0.36336 5.47342,0.36336 2.81409,0 4.97652,-0.10465 4.97652,-0.24083 0,-0.40984 -4.24086,-0.60381 -6.74688,-0.30861 -2.78143,0.32765 -3.26248,0.32405 -1.98437,-0.0149 1.16708,-0.30948 11.04688,-0.51592 10.56944,-0.22085 -0.23846,0.14738 -0.0577,0.2555 0.55821,0.33384 0.50099,0.0637 0.22628,0.0664 -0.61046,0.006 -0.95569,-0.0691 -1.52136,-0.007 -1.52136,0.16773 0,0.3814 0.0981,0.37789 14.41979,-0.51603 6.985,-0.43598 13.23578,-0.77733 13.89063,-0.75855 3.58934,0.10295 -26.27535,1.77841 -32.02186,1.79648 -7.2103,0.0227 -6.78746,0.11367 -8.91507,-1.91867 -0.9177,-0.8766 -1.05977,-1.13623 -0.79583,-1.45427 0.26917,-0.32432 0.2313,-0.35858 -0.23332,-0.21112 -1.66156,0.52736 -5.42325,0.96165 -8.56934,0.98934 -1.96453,0.0173 -4.7625,0.10676 -6.21771,0.1988 l -2.64583,0.16736 6.79483,1.57606 c 3.73715,0.86683 6.7373,1.66914 6.66698,1.78291 -0.0703,0.11376 0.046,0.14013 0.2585,0.0586 0.21248,-0.0815 1.64006,0.15388 3.17238,0.52315 2.11752,0.51029 5.66284,0.92711 14.77481,1.73704 13.65113,1.21341 20.39913,1.6045 24.92873,1.44479 1.73271,-0.0611 7.86443,-0.11613 13.62604,-0.12229 z m -13.86036,-1.05338 c 0.36579,-0.4042 0.40981,-0.61016 0.17959,-0.84038 -0.2247,-0.2247 -0.22737,-0.39842 -0.0101,-0.66016 0.2226,-0.26823 0.17862,-0.4836 -0.1796,-0.87943 -0.47197,-0.5215 -0.43112,-0.5242 7.93337,-0.5242 7.08098,0 8.3604,0.0571 8.10754,0.36177 -0.22837,0.27517 -0.20446,0.44127 0.0999,0.69386 0.22008,0.18264 0.40014,0.48152 0.40014,0.66416 0,0.18265 -0.18006,0.48152 -0.40014,0.66417 -0.30435,0.25259 -0.32826,0.41869 -0.0999,0.69385 0.25286,0.30469 -1.02656,0.36177 -8.10754,0.36177 h -8.40778 z m 15.64828,0.0939 c -0.0973,-0.0973 0.0203,-0.39498 0.26149,-0.66145 0.42406,-0.46859 0.17599,-0.4845 -7.55566,-0.4845 -5.4857,0 -7.94057,0.0867 -7.82344,0.27618 0.0939,0.15189 0.0268,0.44955 -0.14907,0.66146 -0.27874,0.33585 0.69136,0.38528 7.56194,0.38528 4.33494,0 7.80207,-0.0796 7.70474,-0.17697 z m 0.26149,-1.89502 c -0.24115,-0.26647 -0.35882,-0.56413 -0.26149,-0.66146 0.0973,-0.0973 -3.3698,-0.17697 -7.70474,-0.17697 -6.87058,0 -7.84068,0.0494 -7.56194,0.38529 0.17586,0.21191 0.24295,0.50956 0.14907,0.66146 -0.11713,0.18951 2.33774,0.27617 7.82344,0.27617 7.73165,0 7.97972,-0.0159 7.55566,-0.48449 z m -25.17585,-4.02757 c 13.75483,-0.75563 27.442,-0.96391 33.73438,-0.51336 2.13836,0.15311 1.71185,0.17284 -1.85208,0.0857 -2.54662,-0.0623 -5.5478,0.008 -6.6693,0.15635 -1.1215,0.14828 -4.15759,0.32479 -6.74688,0.39224 l -4.70778,0.12264 4.23333,-0.23813 c 6.34397,-0.35685 6.54013,-0.42731 1.32292,-0.47517 -2.61938,-0.024 -10.35844,0.25294 -17.19792,0.6155 -6.83948,0.36255 -13.14979,0.64486 -14.02292,0.62736 -0.87312,-0.0175 4.48469,-0.36539 11.90625,-0.7731 z m 37.83542,6.23808 2.11667,-0.36456 -2.77813,0.14611 c -2.89975,0.1525 -3.175,0.2077 -3.175,0.6367 0,0.1503 0.36465,0.19425 0.8599,0.10364 0.47294,-0.0865 1.81239,-0.32138 2.97656,-0.52189 z m 2.84833,-0.84798 c 0.23863,-0.14204 3.83242,-4.90475 4.52456,-5.99622 0.46126,-0.72739 0.46098,-0.74771 -0.008,-0.60742 -0.84369,0.25223 -5.21831,0.96137 -5.93606,0.96226 -0.58456,7.9e-4 -0.99384,0.46307 -2.72025,3.07301 l -2.03217,3.07217 2.98484,-0.19164 c 1.64166,-0.1054 3.07596,-0.24587 3.18733,-0.31216 z m 23.34542,-1.11894 c 6.83686,-0.90799 12.058845,-2.07149 13.706172,-3.05384 l 1.028512,-0.61333 -2.604841,-0.16735 c -1.432663,-0.092 -8.795493,-0.53227 -16.361853,-0.9783 -13.30565,-0.78434 -13.76829,-0.79504 -14.10079,-0.32601 -0.18907,0.26672 -1.30224,1.77634 -2.4737,3.35473 l -2.12994,2.86979 8.29322,-0.12118 c 7.38959,-0.10798 8.98512,-0.21307 14.64322,-0.96451 z m -7.27199,-1.28045 c 0.002,-0.10914 0.13252,-0.37703 0.28954,-0.59532 0.2387,-0.33182 0.26022,-0.31873 0.13127,0.0799 -0.0848,0.26222 -0.0606,0.41891 0.0538,0.34819 0.11443,-0.0707 0.38095,-0.0192 0.59229,0.1145 0.28801,0.1822 0.20202,0.24409 -0.34337,0.24712 -0.40018,0.002 -0.72578,-0.0852 -0.72355,-0.19438 z m -93.66655,-0.46967 c -1.38245,-0.34826 -3.02659,-0.63806 -3.65364,-0.644 -0.62705,-0.006 -1.0849,-0.10011 -1.01745,-0.20925 0.0675,-0.10914 -0.72919,-0.19844 -1.77032,-0.19844 -1.04113,0 -3.08359,-0.0822 -4.5388,-0.18274 -4.2112,-0.29085 -2.51845,0.0311 5.09895,0.96991 8.54001,1.05247 9.11106,1.07816 5.88126,0.26452 z m 13.28217,-3.04195 3.25429,-0.006 -0.66146,-0.5174 c -0.57698,-0.45132 -1.09453,-0.51815 -4.05229,-0.52328 -1.94458,-0.003 -3.61972,0.11661 -3.92748,0.28132 -0.53455,0.28608 -0.53434,0.28965 0.0527,0.91456 0.5499,0.58534 0.6393,0.60155 1.33465,0.24197 0.53186,-0.27504 1.67717,-0.38709 3.99956,-0.39129 z m -8.91655,-0.64827 1.85209,-0.34484 -4.10105,-0.0139 c -6.12328,-0.0207 -18.23868,0.43688 -19.44687,0.73453 -1.68196,0.41436 19.41457,0.0489 21.69583,-0.37581 z m 16.99175,-0.77815 c 0.0321,-0.0283 -1.58626,-5.87915 -3.59641,-13.0018 l -3.65481,-12.95027 -4.73797,-0.0664 -4.73797,-0.0664 -3.37257,6.54869 c -1.85491,3.60178 -4.91525,9.52902 -6.80076,13.17165 l -3.42821,6.62296 15.13514,-0.10345 c 8.32433,-0.0569 15.16143,-0.12664 15.19356,-0.15499 z m 74.47492,-2.02013 c 1.56509,-0.3097 3.91563,-1.2821 3.91563,-1.61987 0,-0.37082 -0.66814,-0.24628 -2.01689,0.37595 -1.24336,0.57361 -1.53802,0.59334 -8.08188,0.54105 -6.28681,-0.0502 -8.4849,-0.23206 -12.44703,-1.02958 -0.4395,-0.0885 -0.93499,-0.49609 -1.27835,-1.05166 -0.54944,-0.88901 -1.32057,-1.2305 -1.30176,-0.57647 0.0498,1.73129 4.39172,3.11842 10.57382,3.37807 6.54126,0.27473 9.18162,0.27039 10.63646,-0.0175 z m 1.93125,-1.55366 1.32292,-0.59521 -3.33082,-1.67789 c -4.03333,-2.03179 -5.59659,-2.38426 -8.80572,-1.98548 -2.11827,0.26322 -10.22266,1.7378 -10.95977,1.99411 -0.33605,0.11685 -0.25359,0.39092 0.41745,1.38749 0.59493,0.88354 8.6099,1.64864 16.06427,1.53349 3.46626,-0.0536 4.13625,-0.13667 5.29167,-0.65651 z m -28.44676,-1.27776 c -0.002,-0.10914 -0.10849,-0.36335 -0.23614,-0.56491 -0.18544,-0.2928 -0.29287,-0.25291 -0.53443,0.19844 -0.26267,0.49081 -0.2317,0.56491 0.23615,0.56491 0.29616,0 0.53665,-0.0893 0.53442,-0.19844 z"
           style="fill:#000000;stroke-width:0.264583" />
      </g>
    </g>
  </g>
</svg>
