<?xml version="1.0" encoding="UTF-8" standalone="no"?>
<!DOCTYPE svg PUBLIC "-//W3C//DTD SVG 1.1//EN" "http://www.w3.org/Graphics/SVG/1.1/DTD/svg11.dtd">
<svg width="100%" height="100%" viewBox="0 0 64 64" version="1.1" xmlns="http://www.w3.org/2000/svg" xmlns:xlink="http://www.w3.org/1999/xlink" xml:space="preserve" xmlns:serif="http://www.serif.com/" style="fill-rule:evenodd;clip-rule:evenodd;stroke-linejoin:round;stroke-miterlimit:2;">
    <g transform="matrix(1,0,0,1,-280,-140)">
        <g id="clusterbomb" transform="matrix(0.314479,0,0,0.314479,279.687,140.289)">
            <rect x="0.996" y="-0.92" width="203.511" height="203.511" style="fill:none;"/>
            <g transform="matrix(0.308714,0.308714,-0.308714,0.308714,112.863,-17.2208)">
                <path d="M89.598,71.891L77.313,62.677L77.313,14.979L102.752,34.059L128.191,14.979L128.191,62.677L115.906,71.891C126.901,76.89 134.551,87.977 134.551,100.836L134.551,154.894C134.551,172.444 120.302,186.692 102.752,186.692C85.202,186.692 70.953,172.444 70.953,154.894L70.953,100.836C70.953,87.977 78.603,76.89 89.598,71.891Z" style="fill:white;"/>
            </g>
            <g transform="matrix(0.308714,0.308714,-0.308714,0.308714,112.863,-17.2208)">
                <path d="M89.598,71.891L77.313,62.677L77.313,14.979L102.752,34.059L128.191,14.979L128.191,62.677L115.906,71.891C126.901,76.89 134.551,87.977 134.551,100.836L134.551,154.894C134.551,172.444 120.302,186.692 102.752,186.692C85.202,186.692 70.953,172.444 70.953,154.894L70.953,100.836C70.953,87.977 78.603,76.89 89.598,71.891Z" style="fill:white;"/>
            </g>
            <g transform="matrix(0.308714,0.308714,-0.308714,0.308714,145.363,17.779)">
                <path d="M89.598,71.891L77.313,62.677L77.313,14.979L102.752,34.059L128.191,14.979L128.191,62.677L115.906,71.891C126.901,76.89 134.551,87.977 134.551,100.836L134.551,154.894C134.551,172.444 120.302,186.692 102.752,186.692C85.202,186.692 70.953,172.444 70.953,154.894L70.953,100.836C70.953,87.977 78.603,76.89 89.598,71.891Z" style="fill:white;"/>
            </g>
            <g transform="matrix(0.308714,0.308714,-0.308714,0.308714,79.5302,86.9454)">
                <path d="M89.598,71.891L77.313,62.677L77.313,14.979L102.752,34.059L128.191,14.979L128.191,62.677L115.906,71.891C126.901,76.89 134.551,87.977 134.551,100.836L134.551,154.894C134.551,172.444 120.302,186.692 102.752,186.692C85.202,186.692 70.953,172.444 70.953,154.894L70.953,100.836C70.953,87.977 78.603,76.89 89.598,71.891Z" style="fill:white;"/>
            </g>
            <g transform="matrix(0.308714,0.308714,-0.308714,0.308714,45.3637,46.9456)">
                <path d="M89.598,71.891L77.313,62.677L77.313,14.979L102.752,34.059L128.191,14.979L128.191,62.677L115.906,71.891C126.901,76.89 134.551,87.977 134.551,100.836L134.551,154.894C134.551,172.444 120.302,186.692 102.752,186.692C85.202,186.692 70.953,172.444 70.953,154.894L70.953,100.836C70.953,87.977 78.603,76.89 89.598,71.891Z" style="fill:white;"/>
            </g>
        </g>
    </g>
</svg>
