<?xml version="1.0" encoding="UTF-8" standalone="no"?>
<!DOCTYPE svg PUBLIC "-//W3C//DTD SVG 1.1//EN" "http://www.w3.org/Graphics/SVG/1.1/DTD/svg11.dtd">
<svg width="100%" height="100%" viewBox="0 0 64 64" version="1.1" xmlns="http://www.w3.org/2000/svg" xmlns:xlink="http://www.w3.org/1999/xlink" xml:space="preserve" xmlns:serif="http://www.serif.com/" style="fill-rule:evenodd;clip-rule:evenodd;stroke-linejoin:round;stroke-miterlimit:2;">
    <g transform="matrix(1,0,0,1,-210,-140)">
        <g id="dual-machine-gun" transform="matrix(0.314479,0,0,0.314479,209.687,140.289)">
            <rect x="0.996" y="-0.92" width="203.511" height="203.511" style="fill:none;"/>
            <g transform="matrix(0.137931,0,0,5.5,132.746,-420.373)">
                <path d="M194.968,91.296L10.536,91.296L10.536,110.375L194.968,110.375L194.968,91.296ZM102.752,107.485C115.476,107.485 125.806,107.744 125.806,108.063C125.806,108.382 115.476,108.641 102.752,108.641C90.028,108.641 79.698,108.382 79.698,108.063C79.698,107.744 90.028,107.485 102.752,107.485ZM102.752,104.016C115.476,104.016 125.806,104.275 125.806,104.594C125.806,104.913 115.476,105.172 102.752,105.172C90.028,105.172 79.698,104.913 79.698,104.594C79.698,104.275 90.028,104.016 102.752,104.016ZM102.752,100.547C115.476,100.547 125.806,100.806 125.806,101.125C125.806,101.444 115.476,101.703 102.752,101.703C90.028,101.703 79.698,101.444 79.698,101.125C79.698,100.806 90.028,100.547 102.752,100.547ZM102.752,97.078C115.476,97.078 125.806,97.337 125.806,97.656C125.806,97.975 115.476,98.234 102.752,98.234C90.028,98.234 79.698,97.975 79.698,97.656C79.698,97.337 90.028,97.078 102.752,97.078ZM102.752,93.609C115.476,93.609 125.806,93.868 125.806,94.187C125.806,94.506 115.476,94.765 102.752,94.765C90.028,94.765 79.698,94.506 79.698,94.187C79.698,93.868 90.028,93.609 102.752,93.609Z" style="fill:white;"/>
            </g>
            <g transform="matrix(3.17987,0,0,3.17987,45.1628,-19.9991)">
                <path d="M36,32L28,32L30,27L34,27L36,32Z" style="fill:white;"/>
            </g>
            <g transform="matrix(3.17987,0,0,2.7256,45.1628,3.16854)">
                <rect x="30" y="9" width="4" height="14" style="fill:white;"/>
            </g>
            <g transform="matrix(4.7698,0,0,2.0442,-5.7151,-12.9579)">
                <rect x="30" y="9" width="4" height="14" style="fill:white;"/>
            </g>
            <g transform="matrix(1.95684,0,0,3.17987,-189.658,-0.919859)">
                <rect x="159" y="53.5" width="26" height="9" style="fill:white;"/>
            </g>
            <g transform="matrix(0.137931,0,0,5.5,29.4129,-419.539)">
                <path d="M194.968,91.296L10.536,91.296L10.536,110.375L194.968,110.375L194.968,91.296ZM102.752,107.485C115.476,107.485 125.806,107.744 125.806,108.063C125.806,108.382 115.476,108.641 102.752,108.641C90.028,108.641 79.698,108.382 79.698,108.063C79.698,107.744 90.028,107.485 102.752,107.485ZM102.752,104.016C115.476,104.016 125.806,104.275 125.806,104.594C125.806,104.913 115.476,105.172 102.752,105.172C90.028,105.172 79.698,104.913 79.698,104.594C79.698,104.275 90.028,104.016 102.752,104.016ZM102.752,100.547C115.476,100.547 125.806,100.806 125.806,101.125C125.806,101.444 115.476,101.703 102.752,101.703C90.028,101.703 79.698,101.444 79.698,101.125C79.698,100.806 90.028,100.547 102.752,100.547ZM102.752,97.078C115.476,97.078 125.806,97.337 125.806,97.656C125.806,97.975 115.476,98.234 102.752,98.234C90.028,98.234 79.698,97.975 79.698,97.656C79.698,97.337 90.028,97.078 102.752,97.078ZM102.752,93.609C115.476,93.609 125.806,93.868 125.806,94.187C125.806,94.506 115.476,94.765 102.752,94.765C90.028,94.765 79.698,94.506 79.698,94.187C79.698,93.868 90.028,93.609 102.752,93.609Z" style="fill:white;"/>
            </g>
            <g transform="matrix(3.17987,0,0,3.17987,-58.1701,-19.1657)">
                <path d="M36,32L28,32L30,27L34,27L36,32Z" style="fill:white;"/>
            </g>
            <g transform="matrix(3.17987,0,0,2.7256,-58.1701,4.00187)">
                <rect x="30" y="9" width="4" height="14" style="fill:white;"/>
            </g>
            <g transform="matrix(4.7698,0,0,2.0442,-109.048,-12.1246)">
                <rect x="30" y="9" width="4" height="14" style="fill:white;"/>
            </g>
            <g transform="matrix(1.95684,0,0,3.17987,-292.991,-0.0865296)">
                <rect x="159" y="53.5" width="26" height="9" style="fill:white;"/>
            </g>
        </g>
    </g>
</svg>
