<?xml version="1.0" encoding="UTF-8" standalone="no"?>
<!DOCTYPE svg PUBLIC "-//W3C//DTD SVG 1.1//EN" "http://www.w3.org/Graphics/SVG/1.1/DTD/svg11.dtd">
<svg width="100%" height="100%" viewBox="0 0 64 64" version="1.1" xmlns="http://www.w3.org/2000/svg" xmlns:xlink="http://www.w3.org/1999/xlink" xml:space="preserve" xmlns:serif="http://www.serif.com/" style="fill-rule:evenodd;clip-rule:evenodd;stroke-linejoin:round;stroke-miterlimit:2;">
    <g transform="matrix(1,0,0,1,-350,-140)">
        <g id="rocket" transform="matrix(0.314479,0,0,0.314479,349.687,140.289)">
            <rect x="0.996" y="-0.92" width="203.511" height="203.511" style="fill:none;"/>
            <g transform="matrix(0.451579,0.451579,-0.451579,0.451579,119.11,-9.19355)">
                <path d="M118.651,71.09L147.27,111.935L58.234,111.935L86.853,71.09L86.853,45.218L118.651,45.218L118.651,71.09ZM86.853,32.499L102.752,8.62L118.651,32.499L118.651,42.038L86.853,42.038L86.853,32.499Z" style="fill:white;"/>
            </g>
            <g transform="matrix(0.451579,0.451579,-0.451579,0.451579,32.6525,24.1396)">
                <path d="M118.651,71.09L147.27,111.935L58.234,111.935L86.853,71.09L86.853,45.218L118.651,45.218L118.651,71.09ZM86.853,32.499L102.752,8.62L118.651,32.499L118.651,42.038L86.853,42.038L86.853,32.499Z" style="fill:white;"/>
            </g>
            <g transform="matrix(0.451579,0.451579,-0.451579,0.451579,83.6939,76.2227)">
                <path d="M118.651,71.09L147.27,111.935L58.234,111.935L86.853,71.09L86.853,45.218L118.651,45.218L118.651,71.09ZM86.853,32.499L102.752,8.62L118.651,32.499L118.651,42.038L86.853,42.038L86.853,32.499Z" style="fill:white;"/>
            </g>
        </g>
    </g>
</svg>
